<svg xmlns="http://www.w3.org/2000/svg" xml:space="preserve" x="0px" y="0px" viewBox="0 0 500 300"><path fill="#231815" d="m249.163 251.797 4.85-4.224c1.226-1.052 2.886-1.209 4.398-1.487a152.75 152.75 0 0 0 2.851-.548 178.489 178.489 0 0 0 8.292-1.834 194.65 194.65 0 0 0 7.945-2.13 214.689 214.689 0 0 0 7.597-2.382 226.22 226.22 0 0 0 7.223-2.582 213.73 213.73 0 0 0 6.832-2.738 215.008 215.008 0 0 0 6.441-2.843c2.017-.93 4.024-1.895 6.015-2.895a209.322 209.322 0 0 0 10.735-5.772 223.759 223.759 0 0 0 4.685-2.782 229.862 229.862 0 0 0 4.207-2.651 183.789 183.789 0 0 0 3.712-2.469 211.408 211.408 0 0 0 3.216-2.243c.895-.643 1.791-1.304 2.686-1.965.721-.539 1.434-1.087 2.147-1.643a79.406 79.406 0 0 0 1.6-1.269c.095-.07.947-.878 1.025-.844 1.939.913 3.712 1.365 5.311 1.365 1.095 0 2.112-.209 3.042-.644 3.225-1.486 4.103-4.989 4.138-5.137l.017-.078.009-.079 2.842-40.427c-.017-2.573-1.139-4.268-1.139-4.268-2.964-4.268-8.345-5.807-13.647-5.807-.417 0-.826.009-1.252.044-12.595.87-20.296 12.665-23.677 15.802a111.906 111.906 0 0 1-3.207 2.886 118.669 118.669 0 0 1-4.972 4.103 111.686 111.686 0 0 1-4.955 3.668 112.633 112.633 0 0 1-9.77 6.146 109.195 109.195 0 0 1-9.379 4.703 105.322 105.322 0 0 1-4.477 1.878c-1.426.557-2.86 1.087-4.311 1.582-1.356.47-2.721.913-4.103 1.322a100.22 100.22 0 0 1-7.493 1.956 87.587 87.587 0 0 1-6.363 1.182c-.895.139-1.79.261-2.686.374-.783.096-1.556.173-2.33.243-1.678.157-3.129.348-4.659 1.061-1.426.652-2.886 1.669-3.381 3.234h-.026c-.487-1.565-1.956-2.582-3.381-3.234-1.53-.712-2.981-.904-4.65-1.061a65.78 65.78 0 0 1-2.329-.243 91.9 91.9 0 0 1-2.695-.374 90.809 90.809 0 0 1-6.363-1.182c-1.208-.27-2.416-.557-3.616-.869a98.883 98.883 0 0 1-3.877-1.087 97.905 97.905 0 0 1-4.103-1.322 101.067 101.067 0 0 1-4.303-1.582 99.274 99.274 0 0 1-4.485-1.878 99.851 99.851 0 0 1-4.624-2.182 107.37 107.37 0 0 1-4.755-2.521 113.671 113.671 0 0 1-4.85-2.877 110.1 110.1 0 0 1-4.911-3.269 112.712 112.712 0 0 1-4.963-3.668 124.079 124.079 0 0 1-4.972-4.103 111.755 111.755 0 0 1-3.199-2.886c-3.39-3.138-11.091-14.933-23.686-15.802a15.403 15.403 0 0 0-1.252-.044c-5.302 0-10.674 1.539-13.646 5.807 0 0-1.121 1.695-1.13 4.268l2.834 40.427.009.079.017.078c.035.148.922 3.651 4.146 5.137.921.434 1.938.644 3.034.644 1.599 0 3.381-.452 5.311-1.365.078-.034.93.774 1.026.844a138.683 138.683 0 0 0 3.746 2.912c.895.66 1.791 1.322 2.695 1.965 1.06.756 2.13 1.503 3.207 2.243 1.226.835 2.469 1.66 3.712 2.469 1.391.896 2.799 1.782 4.207 2.651 1.547.948 3.112 1.869 4.685 2.782 1.704.983 3.416 1.93 5.146 2.869a210.86 210.86 0 0 0 18.045 8.641 214.22 214.22 0 0 0 6.841 2.738c2.39.903 4.798 1.764 7.223 2.582 2.512.843 5.042 1.634 7.588 2.382a194.65 194.65 0 0 0 7.945 2.13 182.43 182.43 0 0 0 8.292 1.834c.948.191 1.895.373 2.851.548 1.521.278 3.181.434 4.398 1.487l4.85 4.224h-.007z"/><path fill="#FFF000" d="M249.148 249.296h.034s4.329-3.903 5.12-4.19a10.304 10.304 0 0 1 1.999-.504c53.256-9.136 88.225-39.558 88.581-39.87l.46-.408.556.278c1.886.956 3.564 1.434 5.024 1.434.826 0 1.582-.157 2.269-.46 2.217-1.017 2.999-3.442 3.12-3.86 0 0 4.833-38.471 2.886-42.208-1.286-4.312-7.171-6.25-13.021-6.25-.365 0-.73.017-1.104.043-12.072.834-19.642 12.769-22.372 15.115l-.052.07-.07.07c-27.05 25.268-55.264 29.51-66.182 30.657-5.763.609-7.119 4.946-7.206 4.946h-.026.009-.035c-.078 0-1.426-4.337-7.197-4.946-10.917-1.148-39.132-5.389-66.181-30.657l-.07-.07-.052-.07c-2.729-2.346-10.3-14.281-22.373-15.116a15.88 15.88 0 0 0-1.104-.043c-5.85 0-11.734 1.938-13.029 6.25-1.938 3.738 2.895 42.208 2.895 42.208.122.418.904 2.843 3.121 3.86.686.304 1.443.46 2.269.46 1.46 0 3.138-.478 5.024-1.434l.556-.278.461.408c.356.312 35.325 30.735 88.581 39.87.635.105 1.2.218 1.999.504.791.287 5.12 4.19 5.12 4.19h.035-.045z"/><path fill="#FFF" d="M249.349 34.111c-3.538 1.852-29.857 15.125-65.73 19.914l.756 75.152c.044 4.72.226 8.962 2.008 13.203 1.078 2.556 2.521 5.111 4.285 7.606 4.876 6.893 12.065 13.091 21.348 18.41.661.373 1.321.747 1.991 1.104 1.165.538 29.579 13.829 35.073 20.8l.078.105.026-.026c5.363-6.963 33.96-20.331 35.177-20.896 9.709-5.268 17.306-11.482 22.53-18.445 3.851-5.137 6.154-10.17 6.841-14.942.304-2.13.278-4.398.252-6.589-.009-.878-.026-1.756-.018-2.625l.73-72.84c-36.377-4.103-61.897-17.975-65.347-19.931"/><path fill="#008BC8" d="m316.329 52.599-.73-.079c-38.993-4.242-65.556-19.87-65.817-20.026l-.4-.235-.409.218c-.27.157-27.815 15.046-66.268 20.044l-.713.096.765 76.577c.052 4.894.244 9.3 2.138 13.812 1.121 2.66 2.616 5.328 4.45 7.919 5.016 7.084 12.378 13.429 21.869 18.87.669.383 1.339.757 2.06 1.148.296.139 29.275 13.681 34.534 20.366l1.365 1.712 1.286-1.66c5.128-6.65 34.282-20.279 34.621-20.444 9.961-5.398 17.732-11.761 23.095-18.914 4.024-5.354 6.432-10.63 7.154-15.672.322-2.26.296-4.59.27-6.841-.017-.87-.026-1.73-.017-2.591l.626-61.992.121-12.308zm-2.347 76.907c.026 2.191.061 4.459-.243 6.589-.695 4.772-2.999 9.805-6.849 14.942-5.224 6.962-12.821 13.177-22.53 18.444-1.217.565-29.814 13.934-35.177 20.896l-.026.034-.078-.105c-5.493-6.98-33.908-20.27-35.073-20.809-.669-.365-1.33-.73-1.991-1.104-9.283-5.32-16.471-11.517-21.348-18.41-1.765-2.495-3.207-5.05-4.277-7.606-1.791-4.242-1.973-8.484-2.017-13.203l-.756-75.152c35.872-4.79 62.192-18.062 65.73-19.914 3.451 1.956 28.971 15.828 65.347 19.931l-.73 72.84c-.008.872.009 1.75.018 2.627"/><path fill="#FFF" d="M103.259 40.586C70.49 33.798 41.015 24.524 15.608 13.015c.609 3.077 2.225 10.605 5.302 20.409 15.767 4.207 54.656 13.568 90.38 14.212-2.582-1.852-5.102-4.251-7.223-6.285l-.808-.765zM152.093 137.119c3.233.644 6.328 1.061 9.214 1.243 1.234-1.851 6.797-10.431 11.004-21.226-2.043-2.356-5.615-2.573-7.006-2.547-3.668 7.354-9.075 16.107-13.212 22.53"/><path fill="#FFF" d="M177.158 90.283a16.12 16.12 0 0 1-1.547.27c-4.407.574-8.753-.365-12.221-2.642-3.512-2.295-5.711-5.676-6.206-9.518-1.008-7.875 5.606-15.237 14.759-16.411a17.365 17.365 0 0 1 2.06-.147c-1.087-7.05-1.999-10.222-2.616-11.648l-1.313-.078a396.857 396.857 0 0 1-14.064-1.252 512.091 512.091 0 0 1-13.925-1.668l-.2-.027a557.076 557.076 0 0 1-35.559-5.945c2.53 2.26 5.893 5.033 8.727 6.58.661.357 1.165.6 1.608.774l.244.095.148.226c0 .008.208.33.556.869 1.304 1.965 4.729 6.241 7.31 9.057.6.522 1.191.948 1.721 1.191l.244.131c.217.139 2.051 1.356 2.686 2.677l.07.095.009.009c.078.113.2.269.339.478.009.008.017.026.026.034.07.095.139.2.209.313a.831.831 0 0 1 .095.148 6.517 6.517 0 0 1 .296.46c.052.087.113.174.165.278.044.069.087.148.13.226.061.095.113.192.174.305.052.078.095.165.139.252.061.104.113.208.174.321.044.087.087.191.139.287.052.104.113.217.165.339.044.095.087.199.131.296.052.121.113.243.165.365.035.104.078.208.122.313.052.121.095.252.148.383.035.104.069.217.113.321.044.13.087.26.131.399.026.113.061.226.087.331.044.139.078.278.113.417.026.113.044.226.069.339.026.14.061.279.087.418.018.113.026.234.044.347.017.148.035.287.052.426.009.121.009.234.018.347.009.148.018.287.009.435 0 .113 0 .234-.009.347-.009.105 0 .208-.009.313.357.609 1.208 2.156 1.347 3.416l.044.034v.061c.035.034.087.095.131.139.07.078.139.148.226.252.069.069.148.165.217.252.096.105.174.2.27.321.087.105.174.226.252.339.104.131.2.253.296.4.087.131.174.27.261.418.096.147.191.296.287.46.087.157.156.321.243.478.087.174.174.347.252.53.078.174.131.348.2.531.069.191.148.383.208.583.052.191.078.383.122.573.044.218.095.417.122.643.026.2.026.409.035.609.009.192.044.365.035.557.478.417 1.208 1.269 1.46 2.703l.035-.026v.234c.018.174.044.339.052.522.999.46 3.06 1.694 4.103 4.233 0 .008.009.026.009.043.148.357.278.739.374 1.157.052.191.07.409.104.617.035.226.096.434.113.686.261.278.556.765.661 1.565 1.208.079 3.521.452 5.155 2.113.687.695 1.156 1.547 1.443 2.521.018.07.035.147.052.218.087.33.157.669.2 1.034.026.2.026.418.035.635.008.2.044.383.035.591.661.322 1.373 1.07 1.591 2.538 1.252-.034 3.607.122 5.441 1.756 1.417 1.261 2.191 3.112 2.321 5.511 0 .027.009.044.009.07.756-.418 1.721-.748 2.677-.487.869.234 1.53.886 1.965 1.947.304-.026.687-.052 1.121-.052 1.773 0 4.477.399 6.502 2.503 1.782-4.876 3.034-9.544 3.72-13.907.252-1.6.435-3.216.53-4.807.104-1.556.121-3.13.052-4.659a54.01 54.01 0 0 0-.121-1.731"/><path fill="#FFF" d="M149.685 100.589c-.009-.052-.018-.095-.026-.147-.139-.965-.487-1.765-1.06-2.382-.991-1.07-2.643-1.635-4.894-1.661-3.859 3.451-16.393 14.151-33.447 23.504 1.973 1.2 6.293 3.738 11.986 6.545 6.884-5.189 19.183-15.011 27.467-24.764.008-.226 0-.434-.009-.652-.008-.147 0-.303-.017-.443M116.526 51.04c-35.203 2.478-75.134-4.068-92.119-7.319a215.58 215.58 0 0 0 6.641 16.054c24.068 1.643 67.242 3.807 92.979.461l-.322-.348c-2.72-2.433-5.658-6.57-7.179-8.848M141.933 91.795c-.009-.034-.026-.07-.035-.104a5.185 5.185 0 0 0-.331-.878c0-.008 0-.018-.009-.018-.852-1.782-2.39-2.677-3.329-3.086-18.28 10.013-51.023 18.871-69.997 23.495 4.694 4.016 9.64 7.588 14.724 10.613 3.981-1.452 40.131-14.794 59.176-28.91-.009-.044-.009-.096-.018-.14a6.464 6.464 0 0 0-.181-.972M131.294 70.383a8.27 8.27 0 0 0-.148-.782 6.02 6.02 0 0 0-.096-.391c-.061-.209-.122-.409-.182-.609-.044-.113-.078-.235-.122-.348-.096-.26-.191-.512-.304-.756-.044-.113-.095-.218-.139-.322-.104-.218-.208-.444-.313-.652a3.29 3.29 0 0 1-.122-.234 31.885 31.885 0 0 0-.435-.774c-.13-.208-.252-.409-.365-.591-.026-.044-.052-.078-.069-.113-.122-.182-.235-.347-.33-.486-22.191 5.641-71.449 5.024-93.179 4.442 2.834 5.389 5.876 10.518 9.057 15.281 17.306-.748 59.211-3.425 86.825-12.36v-.061a8.415 8.415 0 0 0-.035-.921c-.017-.105-.026-.218-.043-.323M326.424 117.137c4.198 10.796 9.761 19.366 11.004 21.218 2.886-.174 5.98-.591 9.214-1.235-4.146-6.424-9.544-15.176-13.212-22.539-1.348-.025-4.964.201-7.006 2.556M135.766 81.318a6.725 6.725 0 0 0-.157-.59 1.687 1.687 0 0 0-.061-.218 10.943 10.943 0 0 0-.252-.652c-.052-.105-.095-.2-.148-.305-.061-.121-.122-.234-.182-.347a25.176 25.176 0 0 0-.287-.504c-.052-.087-.104-.174-.165-.252a4.31 4.31 0 0 0-.217-.322 1.173 1.173 0 0 0-.122-.165 9.05 9.05 0 0 0-.383-.496c-.026-.034-.061-.069-.078-.104-.07-.079-.139-.157-.2-.218a.375.375 0 0 0-.096-.105c-.035-.052-.078-.095-.113-.139-19.957 7.858-63.782 12.891-83.288 14.82a134.393 134.393 0 0 0 9.535 11.222c12.734-1.965 44.669-7.762 76.342-20.54v-.06a6.348 6.348 0 0 0-.087-.809c-.007-.068-.024-.137-.041-.216M159.039 110.955c-.191-1.634-.765-2.903-1.721-3.772-1.634-1.478-3.955-1.461-4.72-1.4-.139.157-.339.4-.6.712-9.162 11.091-16.524 19.01-21.895 23.573a139.912 139.912 0 0 0 9.37 3.599c6.224-5.085 14.516-12.778 19.618-21.096.009-.435-.009-.835-.035-1.226-.008-.129-.008-.268-.017-.39M356.841 47.162l-.209.027a507.002 507.002 0 0 1-17.471 2.033c-4.85.479-8.388.739-10.509.887l-1.304.078c-.843 1.912-1.73 5.824-2.625 11.648.713.008 1.391.06 2.06.147 9.153 1.174 15.767 8.536 14.759 16.419-1.008 7.875-9.283 13.325-18.418 12.152a15.24 15.24 0 0 1-1.556-.27 37.86 37.86 0 0 0-.113 1.73 46.508 46.508 0 0 0 .052 4.659c.104 1.608.287 3.225.53 4.807.686 4.355 1.938 9.031 3.72 13.907 2.53-2.616 6.102-2.599 7.623-2.443.443-1.069 1.095-1.721 1.964-1.956.956-.26 1.93.069 2.686.487v-.009c.122-2.425.895-4.303 2.33-5.572 1.834-1.634 4.198-1.799 5.441-1.756.235-1.468.93-2.216 1.582-2.538 0-.208.026-.383.035-.582.009-.226.018-.444.035-.661.043-.347.113-.669.2-.982.017-.087.035-.182.061-.26.287-.974.756-1.826 1.434-2.521 1.643-1.652 3.955-2.025 5.163-2.104.113-.799.4-1.287.652-1.565.026-.287.087-.539.13-.799.026-.157.043-.321.078-.47.765-3.381 3.347-4.937 4.494-5.459.009-.131.026-.244.035-.365l-.017-.418.061.035c.252-1.417.991-2.278 1.469-2.695 0-.182.026-.348.035-.521.009-.226.009-.452.044-.67.017-.165.052-.313.087-.469.052-.253.095-.513.165-.757.044-.121.087-.234.131-.347.087-.261.174-.521.278-.765.043-.105.096-.2.148-.296.113-.244.226-.478.348-.704.061-.095.122-.182.174-.278.122-.2.243-.4.374-.583.061-.095.131-.183.191-.27.122-.165.235-.321.339-.46.078-.096.139-.166.2-.244.104-.113.2-.235.287-.331.061-.07.104-.121.165-.183.061-.061.13-.147.182-.2v-.052l.052-.044c.13-1.243.991-2.808 1.356-3.425-.009-.095-.009-.2-.017-.296 0-.131-.009-.261-.009-.383v-.235c.009-.191.017-.382.035-.582v-.044c.209-2.217 1.191-4.338 2.078-5.841.017-.035.035-.061.052-.095.078-.131.156-.261.235-.383.052-.079.096-.157.148-.235a2.54 2.54 0 0 0 .122-.191c.069-.105.13-.192.2-.287.017-.026.035-.061.061-.087.157-.234.304-.434.409-.582l.087-.113c.643-1.322 2.469-2.53 2.677-2.669l.243-.131c.539-.244 1.121-.67 1.73-1.2 2.573-2.808 6.006-7.084 7.301-9.049.356-.539.556-.869.565-.869l.139-.226.252-.095c.435-.174.948-.418 1.6-.774 2.834-1.547 6.197-4.32 8.727-6.58a548.44 548.44 0 0 1-35.563 5.955"/><path fill="#FFF" d="M370.036 64.364c-.087.131-.191.279-.296.444-.026.044-.052.078-.079.121-.122.183-.243.392-.374.609a1.44 1.44 0 0 1-.078.122c-.13.234-.27.486-.408.756-.009 0-.009.008-.009.018-.139.26-.278.539-.409.835a.907.907 0 0 0-.069.165c-.131.287-.252.583-.357.886-.017.052-.035.113-.061.165-.104.305-.191.609-.278.93a.17.17 0 0 1-.017.061 9.2 9.2 0 0 0-.182.983c-.009.06-.018.13-.018.199a6.002 6.002 0 0 0-.043.965v.069c27.615 8.927 69.519 11.613 86.825 12.36 3.181-4.763 6.224-9.9 9.057-15.289-21.73.591-70.988 1.2-93.179-4.433-.008.008-.017.025-.025.034M375.023 59.885c-.105.114-.218.235-.313.348 25.728 3.347 68.902 1.182 92.971-.452a216.007 216.007 0 0 0 6.641-16.054c-16.976 3.242-56.907 9.787-92.119 7.31-1.521 2.277-4.459 6.423-7.18 8.848M394.658 41.359c-2.121 2.026-4.642 4.433-7.223 6.276 35.724-.644 74.613-10.005 90.389-14.212 3.068-9.805 4.694-17.332 5.294-20.4-25.407 11.5-54.882 20.774-87.651 27.562l-.809.774zM346.136 105.781c-.765-.052-3.086-.078-4.72 1.4-.965.87-1.539 2.139-1.721 3.773-.018.131-.009.287-.026.417-.026.383-.043.783-.035 1.2 5.102 8.319 13.403 16.011 19.618 21.105a133.822 133.822 0 0 0 9.379-3.608c-5.38-4.563-12.734-12.482-21.895-23.564-.262-.314-.47-.557-.6-.723M365.404 76.931c-.079.079-.156.174-.252.279a.881.881 0 0 0-.078.095c-.113.122-.226.26-.348.417-.009.018-.026.035-.035.053-.113.139-.226.304-.339.46-.026.044-.061.087-.087.139-.13.182-.252.382-.374.591-.017.035-.035.061-.052.087a9.084 9.084 0 0 0-.304.6l-.078.156c-.104.235-.2.479-.287.731-.017.044-.026.087-.035.13-.069.218-.13.452-.182.687-.009.052-.026.113-.035.174a6.281 6.281 0 0 0-.087.817v.052c31.674 12.777 63.609 18.584 76.343 20.539a133.16 133.16 0 0 0 9.535-11.221c-19.505-1.921-63.33-6.954-83.279-14.812a.319.319 0 0 1-.026.026M350.129 98.058c-.565.609-.913 1.409-1.052 2.373-.009.053-.026.105-.035.157-.009.139-.009.296-.018.434-.009.218-.009.435-.009.67 8.284 9.744 20.583 19.566 27.467 24.755 5.702-2.808 10.022-5.346 11.986-6.546-17.054-9.344-29.588-20.053-33.447-23.503-2.25.026-3.893.591-4.892 1.66M356.611 92.779c-.009.044-.009.087-.009.122 19.036 14.125 55.195 27.467 59.167 28.91 5.085-3.025 10.031-6.589 14.724-10.605-18.966-4.624-51.718-13.481-69.989-23.494-1.251.53-3.511 1.93-3.893 5.067"/><path fill="#0086C4" d="m178.715 89.563-.131-1.303-.922.243c-.843.218-1.564.366-2.26.452-4.033.522-7.979-.33-11.126-2.39-3.112-2.034-5.059-5.007-5.493-8.371-.895-6.997 5.102-13.551 13.36-14.612a17.943 17.943 0 0 1 2.773-.13l.956.026-.252-1.73c-1.017-6.632-1.99-10.795-2.999-12.716l-.217-.4-.46-.026s-.617-.035-1.765-.113a346.102 346.102 0 0 1-10.448-.878c-1.122-.113-2.304-.226-3.555-.365a512.623 512.623 0 0 1-13.881-1.66l-.191-.027a547.47 547.47 0 0 1-38.289-6.51C70.464 32.16 40.537 22.686 14.869 10.908l-1.391-.635.252 1.495c.018.096 1.591 9.344 5.772 22.565l.131.426.426.113c15.959 4.268 57.055 14.229 94.048 14.412h.304c.165.087.322.165.47.244-35.646 2.225-75.76-4.581-91.562-7.658l-1.391-.27.478 1.339a218.613 218.613 0 0 0 7.38 17.958l.2.426.478.034c14.829 1.017 37.133 2.252 58.159 2.252 13.768 0 26.98-.531 37.202-1.991l.304-.044c.461.313 1.095.825 1.547 1.33-23.451 5.702-77.342 4.668-93.518 4.207l-1.365-.034.626 1.208c3.121 6.033 6.502 11.769 10.039 17.037l.252.383.452-.026c17.054-.722 59.515-3.373 87.573-12.413.365.652.748 1.495.904 2.165-20.296 7.962-65.582 13.012-84.209 14.829l-1.426.139.861 1.148a136.378 136.378 0 0 0 10.813 12.812l.287.304.417-.06c12.491-1.904 44.877-7.71 77.029-20.67.278.235.948.939 1.026 2.373-18.61 10.188-52.483 19.21-71.101 23.695l-1.504.365 1.164 1.026c5.215 4.599 10.752 8.64 16.472 12.004l.321.2.357-.131c.391-.139 39.253-14.09 59.61-29.023a2.6 2.6 0 0 1 .078.565c-3.625 3.268-16.706 14.542-34.56 24.138l-1.208.652 1.148.738c.061.035 5.58 3.582 13.768 7.589l.443.217.391-.296c6.78-5.094 19.296-15.037 27.841-24.981.278.139.626.591.713 1.678-.157.182-.357.417-.609.73-9.692 11.726-17.332 19.861-22.695 24.19l-1.035.835 1.217.53a136.215 136.215 0 0 0 11.135 4.32l.417.139.348-.278c6.224-5.068 14.664-12.821 19.992-21.287l.313-.286c.383-.357 1.643-1.322 2.503-1.087.4.113.713.512.965 1.19-3.825 7.701-9.614 17.002-13.82 23.495l-.643.983 1.147.243c3.903.835 7.632 1.356 11.065 1.539l.452.026.252-.373c.061-.087 6.267-9.066 11.03-20.913l.008.026.565-1.478.156-.409v-.009c1.999-5.302 3.407-10.396 4.146-15.133.261-1.652.444-3.312.548-4.955.104-1.617.122-3.242.061-4.833a42.632 42.632 0 0 0-.173-2.384M20.91 33.429c-3.077-9.805-4.703-17.332-5.302-20.409 25.407 11.5 54.882 20.774 87.651 27.562l.808.774c2.121 2.025 4.642 4.433 7.223 6.276-35.724-.634-74.613-9.995-90.38-14.203m10.135 26.346a215.107 215.107 0 0 1-6.632-16.054c16.976 3.251 56.907 9.796 92.11 7.319 1.521 2.278 4.459 6.415 7.188 8.849.104.113.208.235.313.348-25.737 3.345-68.902 1.181-92.979-.462m100.324 11.908c-27.615 8.936-69.519 11.622-86.825 12.369-3.173-4.764-6.215-9.901-9.057-15.29 21.739.591 70.988 1.2 93.188-4.433.087.139.2.304.322.478.026.044.044.078.069.113.122.182.244.382.365.599.035.052.07.113.105.174.113.191.217.391.33.599a19.985 19.985 0 0 1 .434.886c.052.105.096.209.148.313.104.244.2.505.296.757.044.121.078.234.122.347.07.2.131.409.183.609l.104.391c.061.261.105.521.139.783.017.113.035.217.043.33.035.305.052.618.044.922-.001.019-.01.036-.01.053m4.529 10.718c-31.674 12.777-63.609 18.584-76.343 20.539a132.955 132.955 0 0 1-9.535-11.222c19.505-1.93 63.33-6.954 83.288-14.811.035.035.069.087.113.131.035.034.061.069.096.105.061.07.131.139.191.226.026.026.061.06.087.095.122.147.252.321.383.496.043.06.078.113.121.165.07.105.148.208.218.321a12.139 12.139 0 0 1 .452.757c.061.113.121.234.183.356.052.096.095.2.148.305.087.208.174.426.252.643.017.069.044.148.061.218.061.191.113.391.157.599.018.07.026.139.044.218.044.26.078.53.087.809-.003.015-.003.032-.003.05m-52.935 39.41c-5.085-3.025-10.031-6.589-14.724-10.605 18.966-4.624 51.718-13.481 69.989-23.495.947.409 2.486 1.304 3.338 3.077 0 .009 0 .018.009.027.122.269.235.565.33.877l.026.105c.087.304.148.626.191.974 0 .044.008.087.008.131-19.044 14.124-55.195 27.466-59.167 28.909m39.279 4.641a158.665 158.665 0 0 1-11.986-6.554c17.054-9.344 29.597-20.052 33.447-23.503 2.251.035 3.903.591 4.894 1.66.573.618.921 1.426 1.06 2.391.009.052.026.095.026.148.017.139.008.295.017.443.009.208.018.426.009.652-8.275 9.743-20.574 19.565-27.467 24.763m17.237 7.223a138.422 138.422 0 0 1-9.379-3.607c5.381-4.564 12.734-12.482 21.904-23.573.261-.313.452-.556.591-.712.765-.052 3.086-.079 4.72 1.4.956.869 1.539 2.138 1.721 3.772.018.122.009.261.018.383.035.4.052.8.035 1.235-5.094 8.316-13.395 16.009-19.61 21.102m21.826 4.685c-2.886-.183-5.98-.6-9.214-1.243 4.138-6.424 9.544-15.176 13.212-22.53 1.391-.026 4.963.191 7.006 2.547-4.207 10.796-9.77 19.375-11.004 21.226m15.915-41.687a53.704 53.704 0 0 1-.53 4.807c-.687 4.363-1.938 9.031-3.72 13.907-2.025-2.104-4.729-2.503-6.502-2.503-.435 0-.817.026-1.121.052-.435-1.061-1.095-1.713-1.965-1.947-.956-.261-1.93.069-2.677.486 0-.026-.009-.044-.009-.069-.131-2.399-.904-4.251-2.321-5.511-1.834-1.634-4.198-1.791-5.441-1.756-.217-1.469-.93-2.217-1.591-2.538 0-.208-.026-.4-.035-.591-.008-.218-.008-.434-.035-.643a7.696 7.696 0 0 0-.2-1.026c-.018-.069-.035-.147-.052-.217-.287-.974-.756-1.826-1.443-2.53-1.634-1.652-3.946-2.026-5.163-2.104-.096-.809-.391-1.287-.652-1.574-.018-.243-.078-.451-.113-.677-.035-.209-.052-.426-.104-.618a7.626 7.626 0 0 0-.374-1.164c0-.009-.008-.026-.008-.035-1.043-2.538-3.103-3.772-4.103-4.233-.009-.182-.035-.347-.052-.521v-.234l-.035.026c-.252-1.434-.982-2.286-1.46-2.703 0-.192-.026-.374-.035-.557-.008-.208-.008-.417-.035-.617-.026-.218-.078-.426-.121-.634-.044-.192-.07-.392-.131-.574-.052-.199-.13-.391-.2-.582-.07-.182-.121-.365-.2-.531a5.785 5.785 0 0 0-.261-.53 11.904 11.904 0 0 0-.235-.478c-.095-.166-.191-.313-.287-.47-.087-.139-.174-.278-.261-.409-.105-.148-.191-.27-.296-.4a4.96 4.96 0 0 0-.252-.339 5.009 5.009 0 0 0-.27-.321 5.966 5.966 0 0 0-.217-.26c-.087-.096-.157-.166-.235-.244a.955.955 0 0 0-.13-.139l.009-.069-.044-.027c-.148-1.26-.991-2.808-1.356-3.416.018-.104.009-.208.018-.312.008-.122.008-.235.008-.348.009-.147 0-.286-.008-.434-.009-.113-.009-.234-.018-.347l-.052-.426c-.017-.113-.026-.234-.052-.347-.018-.14-.052-.279-.078-.418-.026-.113-.044-.234-.07-.347-.035-.131-.078-.27-.113-.409-.026-.113-.061-.218-.096-.331-.035-.139-.087-.27-.13-.4-.035-.113-.07-.217-.104-.322-.052-.13-.105-.26-.148-.382-.044-.104-.087-.217-.131-.312-.044-.131-.104-.244-.157-.366-.044-.104-.087-.199-.13-.304a5.856 5.856 0 0 1-.165-.339c-.052-.095-.096-.191-.139-.278-.061-.113-.113-.218-.174-.321a3.67 3.67 0 0 0-.139-.261c-.061-.105-.113-.2-.174-.296l-.131-.234a4.522 4.522 0 0 1-.165-.279 2.109 2.109 0 0 1-.122-.191c-.061-.095-.113-.183-.174-.27a1.285 1.285 0 0 0-.096-.139c-.07-.122-.148-.218-.208-.313-.009-.008-.018-.026-.026-.035a11.378 11.378 0 0 0-.339-.478l-.008-.008-.069-.095c-.643-1.322-2.477-2.538-2.686-2.678l-.243-.13c-.53-.244-1.121-.67-1.73-1.191-2.573-2.816-5.998-7.093-7.301-9.066-.348-.531-.556-.861-.565-.861l-.139-.226-.244-.096a13.962 13.962 0 0 1-1.608-.774c-2.834-1.547-6.198-4.329-8.727-6.58a556.376 556.376 0 0 0 35.559 5.946l.2.026a508.12 508.12 0 0 0 17.489 2.034c5.102.496 8.77.765 10.5.878.565.044 1.009.069 1.304.087.626 1.426 1.539 4.598 2.625 11.647-.713.009-1.391.061-2.06.148-9.153 1.174-15.768 8.536-14.759 16.411.495 3.842 2.695 7.223 6.206 9.518 3.468 2.269 7.814 3.208 12.212 2.643a15.52 15.52 0 0 0 1.556-.27c.052.573.087 1.148.113 1.73.073 1.53.055 3.104-.049 4.659M483.865 10.906c-25.668 11.778-55.595 21.252-88.946 28.145a548.005 548.005 0 0 1-38.297 6.51l-.191.027c-4.72.635-9.388 1.19-13.873 1.668-1.251.131-2.443.252-3.555.357-5.085.496-8.727.765-10.457.887l-1.765.105-.461.026-.209.409c-1.008 1.921-1.991 6.076-3.008 12.717l-.252 1.721.965-.026c.974-.018 1.878.017 2.764.13 8.266 1.061 14.264 7.615 13.36 14.612-.895 6.997-8.353 11.821-16.611 10.761a16.325 16.325 0 0 1-2.26-.452l-.913-.243-.139 1.303a43.677 43.677 0 0 0-.174 2.382 44.856 44.856 0 0 0 .052 4.833c.104 1.652.296 3.321.547 4.955.748 4.737 2.147 9.831 4.155 15.133l-.009.009.165.417.556 1.469.018-.018c4.755 11.839 10.961 20.818 11.022 20.913l.261.365.443-.026c3.442-.182 7.162-.696 11.065-1.529l1.147-.253-.635-.973c-4.216-6.493-9.996-15.802-13.82-23.503.243-.678.565-1.077.956-1.19.852-.226 2.13.73 2.504 1.087l.278.243c5.337 8.484 13.794 16.254 20.027 21.331l.348.286.426-.147a135.298 135.298 0 0 0 11.126-4.32l1.225-.53-1.043-.835c-5.354-4.329-12.986-12.465-22.686-24.182a33.458 33.458 0 0 0-.617-.748c.078-1.087.443-1.539.713-1.678 8.544 9.953 21.061 19.896 27.841 24.99l.4.296.443-.217c8.188-4.007 13.708-7.554 13.76-7.589l1.148-.738-1.2-.652c-17.862-9.596-30.944-20.87-34.569-24.138 0-.244.035-.426.078-.565 20.348 14.933 59.219 28.884 59.61 29.023l.357.131.33-.192c5.711-3.373 11.256-7.406 16.471-12.004l1.165-1.025-1.513-.366c-18.61-4.485-52.492-13.507-71.101-23.703.07-1.434.748-2.138 1.035-2.364 32.143 12.951 64.539 18.757 77.02 20.661l.417.07.287-.305c3.772-3.929 7.406-8.24 10.822-12.821l.861-1.148-1.426-.139c-18.627-1.808-63.913-6.858-84.209-14.829.156-.67.539-1.504.904-2.165 28.049 9.04 70.519 11.7 87.573 12.421l.452.018.252-.374c3.538-5.276 6.919-11.013 10.039-17.036l.626-1.217-1.373.034c-16.167.47-70.067 1.504-93.51-4.207.444-.505 1.078-1.009 1.547-1.33l.304.044c10.213 1.46 23.434 1.991 37.193 1.991 21.035 0 43.339-1.235 58.168-2.252l.469-.026.2-.434a216.386 216.386 0 0 0 7.38-17.958l.487-1.339-1.4.27c-15.793 3.086-55.908 9.892-91.554 7.658l.461-.244h.313c36.985-.174 78.09-10.135 94.04-14.412l.435-.113.13-.425c4.172-13.221 5.746-22.469 5.763-22.556l.252-1.504-1.38.632zM346.634 137.115c-3.233.652-6.319 1.069-9.205 1.243-1.243-1.852-6.806-10.422-11.004-21.217 2.043-2.356 5.659-2.582 7.006-2.556 3.668 7.362 9.065 16.115 13.203 22.53m21.991-7.049a131.923 131.923 0 0 1-9.37 3.607c-6.215-5.094-14.516-12.786-19.618-21.096-.009-.426.009-.817.035-1.208.009-.131 0-.287.017-.418.191-1.634.765-2.903 1.721-3.772 1.634-1.478 3.955-1.452 4.729-1.4.13.165.33.409.591.722 9.17 11.092 16.523 19.001 21.895 23.565m19.844-10.161c-1.965 1.2-6.285 3.738-11.986 6.545-6.884-5.189-19.183-15.011-27.458-24.764a5.584 5.584 0 0 1 .008-.661c0-.139 0-.296.009-.434.009-.053.026-.105.035-.157.139-.965.487-1.765 1.052-2.373.999-1.078 2.643-1.634 4.902-1.661 3.85 3.452 16.393 14.152 33.438 23.505m42.026-8.701c-4.694 4.025-9.64 7.589-14.724 10.613-3.972-1.452-40.131-14.794-59.176-28.91.009-.044.009-.087.018-.131.383-3.138 2.642-4.529 3.894-5.059 18.27 10.005 51.013 18.872 69.988 23.487m18.219-19.479a137.901 137.901 0 0 1-9.535 11.222c-12.734-1.965-44.677-7.771-76.342-20.54v-.06c.009-.279.035-.548.087-.818.009-.06.026-.121.035-.173.043-.235.104-.47.174-.687.018-.044.026-.086.044-.13.078-.252.182-.496.287-.731.026-.052.044-.104.069-.157.105-.208.2-.409.313-.599.018-.026.026-.052.044-.078.122-.218.252-.409.374-.6.035-.044.061-.087.095-.131.113-.165.226-.321.339-.469a.202.202 0 0 1 .035-.053c.122-.157.235-.296.339-.417.035-.035.061-.07.087-.095.087-.105.174-.2.252-.279 0-.008.009-.017.018-.026 19.954 7.858 63.771 12.891 83.285 14.821m14.533-22.965c-2.842 5.389-5.885 10.526-9.057 15.29-17.306-.748-59.211-3.425-86.834-12.36v-.061a7.316 7.316 0 0 1 .043-.974l.026-.2c.044-.33.096-.652.183-.982 0-.018.008-.044.017-.061.078-.313.174-.626.278-.93.017-.052.035-.105.052-.165.113-.305.226-.6.357-.887l.078-.166c.13-.296.261-.574.4-.835 0-.008.009-.017.009-.017.139-.27.278-.513.417-.748a.835.835 0 0 1 .07-.131c.13-.218.261-.426.374-.609.026-.044.052-.078.078-.121.104-.166.208-.313.296-.444.009-.008.017-.026.026-.035 22.19 5.636 71.448 5.027 93.187 4.436m11.074-25.033a215.179 215.179 0 0 1-6.641 16.055c-24.068 1.634-67.242 3.798-92.97.452.095-.113.208-.235.313-.348 2.721-2.425 5.659-6.571 7.18-8.849 35.21 2.478 75.142-4.068 92.118-7.31m-90.641 4.068c-.661.357-1.165.609-1.608.774l-.243.096-.148.226c0 .008-.209.33-.556.869-1.304 1.973-4.729 6.241-7.301 9.057-.617.522-1.2.948-1.73 1.191l-.252.13c-.209.14-2.034 1.348-2.669 2.669l-.087.122c-.113.147-.252.339-.417.573-.017.026-.043.061-.061.087-.061.095-.131.191-.2.296a3.221 3.221 0 0 0-.113.182 5.766 5.766 0 0 0-.156.244c-.078.113-.148.243-.226.373a.525.525 0 0 1-.061.095c-.887 1.504-1.869 3.625-2.069 5.842 0 .017-.009.034-.009.052a6.478 6.478 0 0 0-.026.573c-.009.079-.009.157-.009.235 0 .13.009.26.017.382 0 .105 0 .2.009.296-.365.618-1.226 2.182-1.347 3.425l-.061.052v.052c-.044.053-.121.131-.182.2-.052.053-.095.105-.165.174-.087.095-.183.217-.278.33-.069.087-.13.157-.2.244-.113.139-.226.305-.347.461-.061.095-.122.173-.191.269-.122.183-.244.383-.374.592-.052.086-.113.173-.165.278a7.43 7.43 0 0 0-.356.696c-.044.104-.096.191-.148.296-.104.243-.191.504-.278.764-.043.113-.087.226-.122.348a10.5 10.5 0 0 0-.174.765c-.026.157-.069.304-.087.46a8.332 8.332 0 0 0-.043.678c-.008.174-.035.339-.026.513-.478.417-1.225 1.277-1.469 2.703l-.069-.035.026.418c-.017.113-.035.226-.035.357-1.156.521-3.738 2.077-4.502 5.459-.035.147-.043.313-.078.47-.043.26-.104.512-.122.799-.261.278-.548.765-.652 1.565-1.217.078-3.529.452-5.163 2.112-.687.696-1.156 1.539-1.443 2.512-.026.087-.035.174-.061.261a8.606 8.606 0 0 0-.191.991c-.026.208-.026.435-.035.651-.009.2-.044.383-.035.583-.652.321-1.356 1.069-1.591 2.547-1.243-.053-3.607.113-5.441 1.747-1.426 1.269-2.208 3.147-2.33 5.572v.008c-.756-.409-1.721-.738-2.677-.486-.869.234-1.53.887-1.973 1.956-1.513-.147-5.094-.173-7.614 2.443-1.79-4.876-3.042-9.544-3.72-13.907a49.091 49.091 0 0 1-.53-4.807 41.69 41.69 0 0 1-.052-4.659 29.48 29.48 0 0 1 .113-1.73c.539.121 1.052.208 1.547.278 9.135 1.165 17.41-4.285 18.427-12.16 1.008-7.884-5.615-15.246-14.759-16.419a19.847 19.847 0 0 0-2.06-.148c.895-5.824 1.773-9.735 2.616-11.647a701.8 701.8 0 0 0 1.312-.079c2.112-.139 5.659-.409 10.5-.887a208.78 208.78 0 0 0 3.564-.365c4.503-.47 9.188-1.035 13.916-1.669l.2-.026a555.318 555.318 0 0 0 35.559-5.946c-2.531 2.257-5.886 5.03-8.719 6.577m94.144-14.368c-15.776 4.207-54.665 13.569-90.38 14.212 2.573-1.852 5.094-4.251 7.215-6.276l.817-.774c32.76-6.797 62.244-16.063 87.651-27.571-.61 3.077-2.235 10.604-5.303 20.409"/><path fill="#008BC8" d="m310.666 80.305.234-22.93c-31.883-4.164-54.586-15.22-61.618-18.992-7.171 3.582-30.396 14.212-61.862 18.914l.235 23.147 61.618-37.732 61.393 37.593z"/><path fill="#0086C4" d="m204.67 99.797 18.219-18.54-3.329-1.426 29.709-26.137 29.719 26.137-3.329 1.426 18.218 18.54-2.694 1.582 19.061 21.278.27-26.911-61.245-47.597-61.461 47.771.269 26.989 19.288-21.53z"/><path fill="#0086C4" d="m280.885 97.579-18.54-20.435 3.016-.635-16.089-13.786-16.08 13.786 3.007.635-18.54 20.435 4.442.634-32.891 40.957c2.051 5.85 8.214 17.019 26.467 26.954 10.152 4.728 25.815 12.56 33.482 19.105 7.666-6.546 23.329-14.377 33.482-19.105 18.644-10.144 24.651-21.331 26.58-27.111l-32.769-40.801 4.433-.633z"/><path fill="#FFF" d="m310.511 95.745.157-15.437-61.393-37.593-61.618 37.733.148 15.471 61.47-47.771z"/><path fill="#FFF000" d="m310.242 122.656-19.062-21.278 2.695-1.582-18.219-18.531 3.329-1.435-29.71-26.137-29.71 26.137 3.32 1.435-18.218 18.531 2.695 1.582-19.279 21.531.122 12.212c.018.252.191 1.739.999 4.051l32.891-40.957-4.433-.635 18.531-20.435-3.008-.635 16.089-13.786 16.089 13.786-3.016.635 18.54 20.435-4.442.635 32.769 40.8c.73-2.173.878-3.59.904-3.886l.124-12.473z"/><path fill="#FFF" d="m249.273 80.626-51.414 68.92 51.414-31.848 51.414 31.848zM223.286 153.654H275.1v3.894h-51.814z"/><path fill="#FFF" d="M263 143.762c-2.477-4.946-7.58-8.345-13.49-8.345-5.902 0-11.004 3.399-13.49 8.345h-16.671v17.645h19.722c2.721 2.599 6.389 4.207 10.439 4.207 4.059 0 7.727-1.608 10.439-4.207h19.27v-17.645H263zm14.099 15.794h-55.821v-13.934h55.821v13.934z"/><path fill="#FFF" d="M223.286 147.622H275.1v3.894h-51.814z"/><path fill="none" stroke="#0B4E96" stroke-miterlimit="10" stroke-width="0.002" d="M262.442 150.182c0 .114.008.218.008.331a3.648 3.648 0 0 0-.008-.331zM262.451 150.515c0 .114-.009.227-.009.331.009-.104.009-.217.009-.331z"/><path fill="#231815" d="M139.157 159.435s-2.234 8.353 5.85 11.43c0 0 2.677-8.162 4.476-13.959 1.304.27 16.367 5.572 13.812 17.071l-9.996 30.752-2.06 1.33-2.868.817-2.477-.496-2.851-.904-1.799-2.868-.939-3.034-2.425-38.793 1.277-1.346z"/><path fill="#FFF000" d="M139.902 170.831s7.145 6.841 20.331 5.207l-8.657 29.206s-2.868 1.426-6.119.512c0 0-3.364-.843-3.703-5.667l-1.852-29.258z"/><path fill="#231815" d="M359.18 159.435s2.234 8.353-5.85 11.43c0 0-2.677-8.162-4.477-13.959-1.304.27-16.367 5.572-13.812 17.071l9.996 30.752 2.06 1.33 2.869.817 2.477-.496 2.851-.904 1.799-2.868.939-3.034 2.425-38.793-1.277-1.346z"/><path fill="#FFF000" d="M358.436 170.831s-7.145 6.841-20.331 5.207l8.657 29.206s2.869 1.426 6.119.512c0 0 3.364-.843 3.703-5.667l1.852-29.258z"/><path fill="#FFF" d="M264.661 150.605c0 8.38-6.797 15.177-15.176 15.177-8.388 0-15.185-6.797-15.185-15.177 0-8.388 6.797-15.176 15.185-15.176 8.379 0 15.176 6.789 15.176 15.176"/><path fill="#E50012" d="M249.515 137.578c-7.032 0-12.751 5.615-12.925 12.604-.009.113-.009.218-.009.331a6.463 6.463 0 0 0 6.467 6.467c3.573 0 6.467-2.894 6.467-6.467s2.894-6.467 6.467-6.467a6.47 6.47 0 0 1 6.458 6.137c-.174-6.99-5.893-12.605-12.925-12.605"/><path fill="#0086C4" d="M262.442 150.182a6.466 6.466 0 0 0-12.925.33c0 3.572-2.903 6.476-6.467 6.476a6.473 6.473 0 0 1-6.467-6.137c.182 6.989 5.902 12.604 12.934 12.604 7.032 0 12.751-5.615 12.925-12.604 0-.113.008-.226.008-.339.001-.113-.008-.217-.008-.33"/><path fill="#008BC8" d="M311.005 56.575c-32.065-4.19-55.056-15.524-61.34-18.905l-.374-.2-.374.192c-6.45 3.225-29.97 14.107-61.618 18.836l-.695.105.695 69.267.035 2.112c.018 1.382.035 2.773.026 4.155-.018 5.355 1.765 10.414 5.615 15.924 4.963 7.102 12.473 13.412 22.365 18.792 9.092 4.242 25.511 12.343 33.299 18.992l.522.444.521-.444c7.788-6.65 24.207-14.75 33.343-19.01 8.136-4.433 14.464-9.292 19.34-14.863 2.364-2.704 4.303-5.502 5.754-8.327 2.773-5.381 2.825-10.944 2.886-16.315l.704-70.658-.704-.097zm-1.617 70.736c-.052 5.19-.105 10.553-2.703 15.594-1.391 2.704-3.251 5.398-5.537 8.006-4.746 5.424-10.926 10.17-18.853 14.481-10.943 5.102-25.451 12.447-33.134 18.784-7.684-6.337-22.191-13.682-33.091-18.758-9.631-5.242-16.95-11.387-21.774-18.288-3.651-5.224-5.346-9.987-5.32-14.985.008-1.4-.009-2.79-.035-4.19l-.704-69.963c30.944-4.737 54.074-15.263 61.027-18.705 6.789 3.607 29.449 14.577 60.819 18.792l-.695 69.232z"/><path fill="#009844" d="M86.231 160.729c-4.207.696-6.215-5.25-6.215-5.25-2.634-5.389-7.893-6.623-7.893-6.623-2.695-.843-2.86.799-2.86.799-.122.765.4 1.356 1.234 1.513 1.234.226 2.173.843 3.007 1.756.843.913 1.669 1.868 2.217 2.99.678 1.382.8 3.086 1.252 4.546.513 1.678 1.043 3.321 2.19 4.738 2.773 3.373 7.128.921 8.266.2 1.956-1.478 4.459-1.817 4.459-1.817 1.313-.278 6.154-1.565 5.772-5.911-.157-1.817-.939-3.364-1.739-4.92-.695-1.365-1.799-2.669-2.277-4.129-.391-1.19-.47-2.451-.504-3.694-.035-1.225.2-2.33.922-3.355.495-.696.452-1.487-.165-1.947 0 0-1.278-1.051-2.608 1.426 0 0-2.895 4.555-1.017 10.257 0 0 2.156 5.998-.904 8.11 0 0-.713.557-1.469.87-.756.302-1.668.441-1.668.441M82.877 139.642a2.1 2.1 0 0 0 2.738 1.156 2.105 2.105 0 0 0 1.156-2.738 2.103 2.103 0 0 0-2.738-1.156 2.1 2.1 0 0 0-1.156 2.738M77.159 141.97a2.102 2.102 0 1 1-3.893 1.58 2.102 2.102 0 0 1 3.893-1.58"/><path fill="#009844" d="M85.44 154.246a1.382 1.382 0 0 0 .756-1.799l-2.912-7.154a1.383 1.383 0 0 0-1.799-.757 1.383 1.383 0 0 0-.756 1.8l2.912 7.154a1.382 1.382 0 0 0 1.799.756M103.548 190.856c-4.138 1.739-7.649-3.842-7.649-3.842-4.016-4.868-9.7-4.842-9.7-4.842-2.955-.2-2.729 1.521-2.729 1.521.061.809.739 1.287 1.634 1.243 1.321-.069 2.434.33 3.512 1.061 1.087.73 2.165 1.504 2.999 2.512 1.035 1.243 1.582 2.964 2.399 4.346.939 1.582 1.878 3.147 3.407 4.303 3.66 2.782 7.519-.809 8.501-1.817 1.634-1.991 4.12-2.956 4.12-2.956 1.278-.609 5.902-3.112 4.451-7.467-.609-1.826-1.791-3.216-2.99-4.607-1.043-1.226-2.503-2.295-3.346-3.668-.687-1.122-1.078-2.382-1.417-3.651-.339-1.252-.374-2.434.121-3.659.331-.835.096-1.635-.652-1.947 0 0-1.565-.774-2.321 2.095 0 0-1.843 5.372 1.478 10.744 0 0 3.677 5.606 1.069 8.518 0 0-.591.748-1.287 1.243-.704.505-1.6.87-1.6.87M94.938 170.108a2.212 2.212 0 0 0 3.086.505 2.209 2.209 0 0 0 .504-3.086 2.21 2.21 0 1 0-3.59 2.581M89.66 173.894a2.211 2.211 0 1 1-3.59 2.581c-.713-1-.487-2.382.504-3.086a2.214 2.214 0 0 1 3.086.505"/><path fill="#009844" d="M101.148 184.418a1.45 1.45 0 0 0 .33-2.025l-4.728-6.598a1.46 1.46 0 0 0-2.025-.339 1.46 1.46 0 0 0-.339 2.026l4.737 6.606c.46.643 1.373.8 2.025.33M126.469 219.658c-4.077 2.426-8.57-2.903-8.57-2.903-4.92-4.511-10.874-3.66-10.874-3.66-3.121.226-2.634 2-2.634 2 .191.835.965 1.234 1.904 1.061 1.374-.27 2.59-.009 3.825.599 1.243.6 2.486 1.252 3.512 2.191 1.261 1.148 2.086 2.869 3.147 4.198 1.217 1.522 2.425 3.017 4.198 4.007 4.233 2.373 7.753-1.938 8.631-3.147 1.426-2.33 3.885-3.694 3.885-3.694 1.243-.826 5.728-4.12 3.564-8.475-.904-1.817-2.338-3.095-3.798-4.381-1.278-1.13-2.956-2.034-4.033-3.347-.887-1.077-1.478-2.346-2.025-3.616-.539-1.261-.739-2.495-.409-3.851.226-.931-.139-1.721-.965-1.947 0 0-1.747-.583-2.121 2.529 0 0-1.148 5.902 3.112 11.031 0 0 4.668 5.337 2.364 8.762 0 0-.513.877-1.165 1.504-.662.626-1.548 1.139-1.548 1.139M114.421 199.189c.887.93 2.373.974 3.303.079a2.335 2.335 0 0 0 .087-3.303 2.338 2.338 0 1 0-3.39 3.224M109.447 203.925a2.343 2.343 0 0 1-.079 3.303 2.345 2.345 0 0 1-3.312-.078 2.336 2.336 0 0 1 .087-3.303 2.328 2.328 0 0 1 3.304.078"/><path fill="#009844" d="M123.014 213.267a1.545 1.545 0 0 0 .052-2.173l-5.919-6.215a1.53 1.53 0 0 0-2.173-.052 1.545 1.545 0 0 0-.052 2.173l5.919 6.215a1.546 1.546 0 0 0 2.173.052M156.572 242.499c-3.92 2.93-9.101-2.06-9.101-2.06-5.528-4.094-11.543-2.572-11.543-2.572-3.173.565-2.486 2.33-2.486 2.33.287.834 1.121 1.165 2.06.877 1.382-.417 2.66-.278 3.99.2 1.339.487 2.686 1.026 3.842 1.878 1.417 1.043 2.443 2.721 3.677 3.964 1.408 1.435 2.808 2.834 4.729 3.66 4.607 1.982 7.745-2.825 8.518-4.155 1.208-2.538 3.59-4.207 3.59-4.207 1.182-.983 5.424-4.842 2.738-9.066-1.121-1.765-2.729-2.929-4.363-4.094-1.434-1.017-3.251-1.765-4.503-2.999-1.025-.999-1.765-2.243-2.46-3.486-.687-1.235-1.035-2.478-.835-3.912.131-.965-.33-1.747-1.2-1.895 0 0-1.852-.399-1.904 2.834 0 0-.539 6.172 4.381 10.978 0 0 5.363 4.964 3.364 8.727 0 0-.426.948-1.034 1.66-.608.721-1.46 1.338-1.46 1.338M142.014 222.804a2.417 2.417 0 0 0 3.399-.27 2.417 2.417 0 0 0-.27-3.399 2.403 2.403 0 0 0-3.399.27 2.403 2.403 0 0 0 .27 3.399M137.424 228.197a2.404 2.404 0 0 1 .27 3.399 2.403 2.403 0 0 1-3.399.269 2.419 2.419 0 0 1-.27-3.399 2.418 2.418 0 0 1 3.399-.269"/><path fill="#009844" d="M152.341 236.318a1.584 1.584 0 0 0-.183-2.234l-6.737-5.737a1.592 1.592 0 0 0-2.234.174 1.584 1.584 0 0 0 .182 2.234l6.736 5.745a1.594 1.594 0 0 0 2.236-.182M190.646 260.414c-3.503 3.877-9.979-.286-9.979-.286-6.641-3.156-12.638-.322-12.638-.322-3.216 1.242-2.13 2.955-2.13 2.955.47.817 1.417.991 2.347.504 1.356-.73 2.729-.851 4.224-.617 1.504.234 3.025.53 4.416 1.182 1.704.8 3.129 2.347 4.676 3.399 1.773 1.217 3.538 2.399 5.72 2.869 5.241 1.13 7.545-4.563 8.084-6.119.748-2.912 2.895-5.155 2.895-5.155 1.043-1.269 4.702-6.198 1.008-10.083-1.539-1.626-3.468-2.512-5.424-3.39-1.712-.774-3.772-1.182-5.337-2.217-1.287-.852-2.321-1.999-3.303-3.155s-1.591-2.391-1.686-3.929c-.061-1.051-.704-1.773-1.643-1.739 0 0-2.034-.044-1.417 3.355 0 0 .704 6.589 6.858 10.622 0 0 6.649 4.103 5.328 8.466 0 0-.252 1.078-.739 1.956-.496.878-1.26 1.704-1.26 1.704M171.312 242.746a2.585 2.585 0 0 0 3.512-.982 2.582 2.582 0 0 0-.991-3.512 2.57 2.57 0 0 0-3.503.982 2.57 2.57 0 0 0 .982 3.512M167.605 249.35a2.571 2.571 0 0 1 .982 3.512 2.57 2.57 0 0 1-3.503.982 2.582 2.582 0 0 1-.991-3.512 2.587 2.587 0 0 1 3.512-.982"/><path fill="#009844" d="M184.932 254.799a1.694 1.694 0 0 0-.652-2.303l-8.249-4.642a1.706 1.706 0 0 0-2.312.651 1.695 1.695 0 0 0 .652 2.304l8.257 4.642a1.704 1.704 0 0 0 2.304-.652M232.251 270.464c-2.156 5.077-10.048 3.156-10.048 3.156-7.71-.861-12.717 4.033-12.717 4.033-2.781 2.355-1.104 3.686-1.104 3.686.747.652 1.756.496 2.512-.313 1.104-1.191 2.434-1.782 4.007-2.069 1.582-.279 3.199-.522 4.807-.348 1.973.217 3.92 1.261 5.832 1.782 2.182.599 4.355 1.174 6.693.887 5.615-.678 5.954-7.145 5.954-8.883-.261-3.164 1.113-6.137 1.113-6.137.6-1.626 2.547-7.806-2.469-10.405-2.095-1.087-4.329-1.313-6.589-1.513-1.964-.183-4.164.113-6.084-.373-1.565-.4-2.999-1.191-4.381-2.008-1.374-.817-2.408-1.834-3.034-3.338-.417-1.025-1.313-1.521-2.243-1.164 0 0-2.034.66-.252 3.833 0 0 2.973 6.328 10.5 8.223 0 0 8.049 1.807 8.24 6.615 0 0 .113 1.165-.069 2.208-.19 1.042-.668 2.128-.668 2.128M206.88 259.51a2.721 2.721 0 0 0 3.164-2.19 2.734 2.734 0 0 0-2.199-3.164 2.707 2.707 0 0 0-3.155 2.191 2.717 2.717 0 0 0 2.19 3.163M205.459 267.372a2.722 2.722 0 0 1 2.19 3.164 2.71 2.71 0 0 1-3.155 2.191 2.735 2.735 0 0 1-2.199-3.164 2.722 2.722 0 0 1 3.164-2.191"/><path fill="#009844" d="M224.618 266.835a1.797 1.797 0 0 0-1.443-2.077l-9.831-1.774a1.793 1.793 0 0 0-2.078 1.443 1.803 1.803 0 0 0 1.443 2.078l9.831 1.773a1.798 1.798 0 0 0 2.078-1.443M412.118 160.729c4.207.696 6.215-5.25 6.215-5.25 2.634-5.389 7.892-6.623 7.892-6.623 2.686-.843 2.86.799 2.86.799.122.765-.4 1.356-1.234 1.513-1.234.226-2.173.843-3.008 1.756-.843.913-1.669 1.868-2.217 2.99-.678 1.382-.799 3.086-1.251 4.546-.513 1.678-1.043 3.321-2.191 4.738-2.773 3.373-7.128.921-8.266.2-1.956-1.478-4.459-1.817-4.459-1.817-1.312-.278-6.154-1.565-5.772-5.911.156-1.817.939-3.364 1.738-4.92.696-1.365 1.799-2.669 2.278-4.129.391-1.19.469-2.451.504-3.694.035-1.225-.2-2.33-.921-3.355-.496-.696-.452-1.487.165-1.947 0 0 1.269-1.051 2.608 1.426 0 0 2.895 4.555 1.017 10.257 0 0-2.156 5.998.904 8.11 0 0 .712.557 1.469.87.756.302 1.669.441 1.669.441M415.472 139.642a2.1 2.1 0 0 1-2.738 1.156 2.105 2.105 0 0 1-1.156-2.738 2.101 2.101 0 1 1 3.894 1.582M421.19 141.97a2.102 2.102 0 0 0 3.894 1.582 2.1 2.1 0 1 0-3.894-1.582"/><path fill="#009844" d="M412.909 154.246a1.383 1.383 0 0 1-.757-1.799l2.912-7.154a1.38 1.38 0 1 1 2.555 1.043l-2.912 7.154a1.38 1.38 0 0 1-1.798.756M394.801 190.856c4.129 1.739 7.649-3.842 7.649-3.842 4.016-4.868 9.7-4.842 9.7-4.842 2.955-.2 2.729 1.521 2.729 1.521-.061.809-.739 1.287-1.634 1.243-1.321-.069-2.434.33-3.512 1.061-1.087.73-2.164 1.504-2.999 2.512-1.034 1.243-1.582 2.964-2.399 4.346-.939 1.582-1.878 3.147-3.407 4.303-3.659 2.782-7.519-.809-8.501-1.817-1.634-1.991-4.12-2.956-4.12-2.956-1.278-.609-5.902-3.112-4.45-7.467.609-1.826 1.791-3.216 2.99-4.607 1.043-1.226 2.495-2.295 3.338-3.668.695-1.122 1.087-2.382 1.426-3.651.339-1.252.374-2.434-.122-3.659-.33-.835-.095-1.635.652-1.947 0 0 1.565-.774 2.321 2.095 0 0 1.843 5.372-1.478 10.744 0 0-3.677 5.606-1.069 8.518 0 0 .591.748 1.286 1.243.704.505 1.6.87 1.6.87M403.411 170.108a2.212 2.212 0 0 1-3.086.505 2.209 2.209 0 0 1-.504-3.086 2.21 2.21 0 1 1 3.59 2.581M408.689 173.894a2.211 2.211 0 1 0 3.59 2.581c.713-1 .487-2.382-.504-3.086a2.214 2.214 0 0 0-3.086.505"/><path fill="#009844" d="M397.202 184.418a1.449 1.449 0 0 1-.33-2.025l4.728-6.598a1.46 1.46 0 0 1 2.025-.339c.652.47.809 1.383.339 2.026l-4.737 6.606c-.461.643-1.374.8-2.025.33M371.88 219.658c4.077 2.426 8.57-2.903 8.57-2.903 4.92-4.511 10.874-3.66 10.874-3.66 3.12.226 2.634 2 2.634 2-.191.835-.965 1.234-1.904 1.061-1.373-.27-2.59-.009-3.825.599-1.243.6-2.486 1.252-3.512 2.191-1.26 1.148-2.086 2.869-3.147 4.198-1.217 1.522-2.425 3.017-4.19 4.007-4.242 2.373-7.762-1.938-8.64-3.147-1.426-2.33-3.886-3.694-3.886-3.694-1.243-.826-5.728-4.12-3.564-8.475.904-1.817 2.338-3.095 3.799-4.381 1.278-1.13 2.955-2.034 4.042-3.347.878-1.077 1.469-2.346 2.017-3.616.539-1.261.739-2.495.409-3.851-.226-.931.139-1.721.965-1.947 0 0 1.747-.583 2.121 2.529 0 0 1.147 5.902-3.112 11.031 0 0-4.668 5.337-2.364 8.762 0 0 .513.877 1.165 1.504.661.626 1.548 1.139 1.548 1.139M383.929 199.189a2.336 2.336 0 0 1-3.303.079 2.326 2.326 0 0 1-.078-3.303 2.327 2.327 0 0 1 3.303-.079c.93.887.965 2.365.078 3.303M388.903 203.925a2.343 2.343 0 0 0 .078 3.303 2.334 2.334 0 0 0 3.303-.078 2.327 2.327 0 0 0-.078-3.303 2.326 2.326 0 0 0-3.303.078"/><path fill="#009844" d="M375.336 213.267a1.546 1.546 0 0 1-.052-2.173l5.919-6.215a1.53 1.53 0 0 1 2.173-.052c.608.582.634 1.555.052 2.173l-5.919 6.215a1.546 1.546 0 0 1-2.173.052M341.778 242.499c3.92 2.93 9.101-2.06 9.101-2.06 5.528-4.094 11.543-2.572 11.543-2.572 3.173.565 2.486 2.33 2.486 2.33-.287.834-1.121 1.165-2.06.877-1.382-.417-2.66-.278-3.99.2-1.339.487-2.686 1.026-3.842 1.878-1.417 1.043-2.442 2.721-3.677 3.964-1.408 1.435-2.808 2.834-4.729 3.66-4.607 1.982-7.745-2.825-8.518-4.155-1.208-2.538-3.581-4.207-3.581-4.207-1.191-.983-5.433-4.842-2.747-9.066 1.121-1.765 2.729-2.929 4.364-4.094 1.434-1.017 3.251-1.765 4.502-2.999 1.026-.999 1.765-2.243 2.46-3.486.695-1.235 1.034-2.478.834-3.912-.13-.965.331-1.747 1.2-1.895 0 0 1.852-.399 1.904 2.834 0 0 .539 6.172-4.381 10.978 0 0-5.363 4.964-3.364 8.727 0 0 .426.948 1.035 1.66.608.721 1.46 1.338 1.46 1.338M356.334 222.804a2.417 2.417 0 0 1-3.399-.27 2.417 2.417 0 0 1 .27-3.399 2.403 2.403 0 0 1 3.399.27 2.403 2.403 0 0 1-.27 3.399M360.926 228.197a2.403 2.403 0 0 0-.27 3.399 2.402 2.402 0 0 0 3.399.269 2.419 2.419 0 0 0 .27-3.399 2.418 2.418 0 0 0-3.399-.269"/><path fill="#009844" d="M346.008 236.318a1.585 1.585 0 0 1 .182-2.234l6.737-5.737a1.593 1.593 0 0 1 2.234.174 1.584 1.584 0 0 1-.182 2.234l-6.736 5.745a1.593 1.593 0 0 1-2.235-.182M307.704 260.414c3.503 3.877 9.978-.286 9.978-.286 6.641-3.156 12.638-.322 12.638-.322 3.216 1.242 2.13 2.955 2.13 2.955-.469.817-1.417.991-2.347.504-1.356-.73-2.729-.851-4.224-.617-1.504.234-3.025.53-4.416 1.182-1.704.8-3.129 2.347-4.676 3.399-1.773 1.217-3.538 2.399-5.719 2.869-5.241 1.13-7.545-4.563-8.084-6.119-.748-2.912-2.895-5.155-2.895-5.155-1.043-1.269-4.703-6.198-1.008-10.083 1.539-1.626 3.468-2.512 5.424-3.39 1.712-.774 3.772-1.182 5.337-2.217 1.286-.852 2.321-1.999 3.303-3.155.982-1.156 1.59-2.391 1.686-3.929.061-1.051.704-1.773 1.643-1.739 0 0 2.034-.044 1.417 3.355 0 0-.704 6.589-6.858 10.622 0 0-6.65 4.103-5.328 8.466 0 0 .252 1.078.739 1.956.495.878 1.26 1.704 1.26 1.704M327.038 242.746a2.585 2.585 0 0 1-3.512-.982 2.582 2.582 0 0 1 .991-3.512 2.57 2.57 0 0 1 3.503.982 2.57 2.57 0 0 1-.982 3.512M330.745 249.35a2.571 2.571 0 0 0-.982 3.512 2.57 2.57 0 0 0 3.503.982 2.582 2.582 0 0 0 .991-3.512 2.587 2.587 0 0 0-3.512-.982"/><path fill="#009844" d="M313.416 254.799a1.694 1.694 0 0 1 .652-2.303l8.249-4.642a1.706 1.706 0 0 1 2.312.651 1.695 1.695 0 0 1-.652 2.304l-8.258 4.642a1.703 1.703 0 0 1-2.303-.652M266.098 270.464c2.155 5.077 10.048 3.156 10.048 3.156 7.719-.861 12.716 4.033 12.716 4.033 2.782 2.355 1.104 3.686 1.104 3.686-.747.652-1.756.496-2.512-.313-1.104-1.191-2.434-1.782-4.007-2.069-1.582-.279-3.19-.522-4.807-.348-1.973.217-3.92 1.261-5.832 1.782-2.182.599-4.355 1.174-6.693.887-5.615-.678-5.954-7.145-5.954-8.883.261-3.164-1.104-6.137-1.104-6.137-.608-1.626-2.556-7.806 2.46-10.405 2.095-1.087 4.329-1.313 6.589-1.513 1.965-.183 4.164.113 6.085-.373 1.565-.4 2.999-1.191 4.381-2.008 1.373-.817 2.408-1.834 3.034-3.338.417-1.025 1.313-1.521 2.243-1.164 0 0 2.034.66.252 3.833 0 0-2.973 6.328-10.5 8.223 0 0-8.049 1.807-8.24 6.615 0 0-.113 1.165.07 2.208.189 1.042.667 2.128.667 2.128M291.471 259.51a2.72 2.72 0 0 1-3.164-2.19 2.734 2.734 0 0 1 2.199-3.164 2.708 2.708 0 0 1 3.155 2.191 2.717 2.717 0 0 1-2.19 3.163M292.892 267.372a2.723 2.723 0 0 0-2.191 3.164 2.71 2.71 0 0 0 3.155 2.191 2.735 2.735 0 0 0 2.199-3.164 2.722 2.722 0 0 0-3.163-2.191"/><path fill="#009844" d="M273.731 266.835a1.79 1.79 0 0 1 1.443-2.077l9.831-1.774a1.792 1.792 0 0 1 2.077 1.443 1.803 1.803 0 0 1-1.443 2.078l-9.831 1.773a1.798 1.798 0 0 1-2.077-1.443M249.186 265.023a3.212 3.212 0 1 0 .034-6.423 3.206 3.206 0 0 0-3.225 3.19 3.214 3.214 0 0 0 3.191 3.233M249.128 273.296a3.208 3.208 0 0 1 3.19 3.234 3.205 3.205 0 0 1-3.225 3.19 3.214 3.214 0 0 1-3.199-3.234 3.214 3.214 0 0 1 3.234-3.19"/><path fill="#231815" d="M179.593 202.692c.574 1.521.478 2.756-.261 3.686s-1.912 1.287-3.52 1.069c-1.782-.226-3.668-1.13-5.659-2.721-1.999-1.591-3.303-3.234-3.912-4.903-.548-1.504-.452-2.721.287-3.642.747-.939 1.912-1.313 3.503-1.113 1.765.235 3.651 1.148 5.641 2.738 1.991 1.583 3.303 3.217 3.921 4.886m-8.71-4.937c-.921-.218-1.556-.095-1.921.365-.365.452-.339 1.104.07 1.947.452.93 1.304 1.895 2.538 2.877 1.234.983 2.364 1.6 3.39 1.852.947.218 1.599.105 1.956-.339.365-.46.322-1.121-.104-1.982-.478-.948-1.33-1.913-2.556-2.895-1.243-.982-2.373-1.59-3.373-1.825m12.612 4.737-14.142-11.265 1.408-1.765 4.65 3.703 2.147-2.695 2.417 1.93-2.138 2.695 3.459 2.755a14.57 14.57 0 0 0 1.608-1.408 21.113 21.113 0 0 0 1.565-1.773l.713-.896-10.118-8.066 1.417-1.782 12.543 9.996-1.339 1.678a32.986 32.986 0 0 1-1.938 2.199c-.782.817-1.478 1.469-2.086 1.939l1.243.99-1.409 1.765zM191.028 214.992l11.647 5.65-.982 2.034-11.969-5.807c-.895-.434-1.452-.895-1.695-1.4-.208-.486-.139-1.087.2-1.791l1.982-4.094 2.782 1.356-1.965 4.052zm15.524-.243-6.597-3.199-1.921 3.964-2.755-1.339 1.921-3.964-6.728-3.26.982-2.034 12.151 5.902c.339-.383.652-.809.93-1.295.261-.408.565-.974.904-1.669l.965-1.991-11.647-5.65.991-2.051 14.429 6.997-1.712 3.538a24.249 24.249 0 0 1-1.017 1.913 12.93 12.93 0 0 1-1.113 1.529l1.2.583-.983 2.026zM227.748 210.179l-.504 2.156-3.738-.878c-.374 1.582-.2 3.121.522 4.624.6 1.261 1.504 2.356 2.703 3.295l-1.782 1.356a14.302 14.302 0 0 1-2.399-2.295c-.782-.93-1.33-1.817-1.652-2.66-.643.617-1.521 1.173-2.634 1.652a14.536 14.536 0 0 1-3.216.982l-.826-1.973c1.495-.278 2.781-.861 3.868-1.747 1.234-1.017 2.043-2.321 2.425-3.938l-3.642-.852.504-2.156 10.371 2.434zm2.651 13.013-1.73 7.38-3.008-.704 1.217-5.181-12.134-2.851.513-2.19 15.142 3.546zm2.851-12.152-1.078 4.616 2.051.478-.531 2.234-2.051-.478-.991 4.251-3.016-.713 2.608-11.091 3.008.703zM251.812 212.586l-.035 2.252-4.025-.053c-.026 1.974.495 3.695 1.556 5.155.852 1.156 2.008 2.112 3.477 2.869l-1.426 1.773a17.247 17.247 0 0 1-2.981-1.878c-.991-.774-1.739-1.555-2.251-2.321-.496.738-1.252 1.495-2.26 2.26a18.498 18.498 0 0 1-2.99 1.799l-1.226-1.808c1.452-.696 2.599-1.617 3.434-2.773 1.025-1.408 1.547-3.112 1.573-5.12l-3.816-.053.026-2.251 10.944.149zm-7.075 17.106 12.543.165-.026 2.26-12.899-.174c-.991-.008-1.704-.191-2.13-.548-.4-.356-.591-.921-.583-1.704l.061-4.259 3.086.044-.052 4.216zm12.438-2.799-3.086-.043.096-7.571-3.399-.052.026-2.278 3.399.052.07-4.807 3.086.044-.192 14.655zM271.104 210.363l1.513 7.145c.374 1.774 1.426 3.529 3.155 5.268 1.243 1.235 2.556 2.225 3.946 2.99l-1.547 1.965c-1.208-.521-2.338-1.269-3.399-2.225-1.251-1.139-2.181-2.408-2.79-3.808-.026 1.504-.409 3.051-1.147 4.659a14.254 14.254 0 0 1-2.208 3.399l-1.938-1.216c.817-.983 1.547-2.382 2.208-4.199.835-2.338 1.069-4.407.696-6.189l-1.513-7.145 3.024-.644zm9.5-2.182 1.686 7.971 2.06-.444.478 2.251-2.06.435 1.991 9.44-3.025.635-4.155-19.644 3.025-.644zM296.937 202.097l2.616 5.711-6.302 2.886.939 2.051 9.605-4.398-.435-.948-2.938 1.339-.922-2.007 2.938-1.348-.782-1.713-2.938 1.348-.93-2.026 2.938-1.347-.643-1.408 2.816-1.287 4.807 10.5-2.816 1.287-.174-.383-9.848 4.511c-.852.391-1.565.513-2.156.365-.591-.157-1.043-.574-1.347-1.243l-1.842-4.025 6.319-2.895-.774-1.686-6.319 2.895-.921-2.017 9.109-4.162zm9.935 9.892c1.53.174 2.538.782 3.016 1.834.461 1.043.243 2.199-.643 3.46-.974 1.417-2.599 2.642-4.859 3.677-2.33 1.069-4.355 1.513-6.076 1.33-1.538-.148-2.547-.748-3.025-1.782-.478-1.051-.278-2.217.608-3.494.991-1.417 2.651-2.66 4.981-3.721 2.286-1.052 4.285-1.487 5.998-1.304m-8.179 5.467c-.583.67-.765 1.243-.539 1.739.217.47.765.696 1.652.696.991 0 2.208-.331 3.642-.982 1.391-.635 2.408-1.33 3.06-2.087.591-.678.782-1.243.574-1.712-.226-.496-.791-.731-1.686-.722-.991.008-2.182.33-3.573.974-1.435.651-2.479 1.346-3.13 2.094M312.063 193.244l1.208 1.599 7.858-5.954-1.208-1.59 2.46-1.868 5.537 7.301-10.535 7.988c-.791.591-1.478.878-2.069.861-.574-.035-1.095-.373-1.565-.991l-4.146-5.476 2.46-1.87zm2.555 3.381 1.617 2.13 7.858-5.954-1.617-2.13-7.858 5.954zm16.802-.991-6.024 4.564 3.816 5.042-2.443 1.86-3.816-5.05-5.963 4.52-1.373-1.817 14.429-10.935 1.374 1.816z"/><path fill="none" d="M253.769-192.9C96.234-192.9-31.462-68.672-31.462 84.56M539 84.56C539-68.672 411.296-192.9 253.769-192.9M253.769 362.02C411.296 362.02 539 237.802 539 84.56M-31.462 84.56c0 153.242 127.695 277.46 285.231 277.46"/></svg>