<svg xmlns="http://www.w3.org/2000/svg" id="_레이어_2" viewBox="0 0 352 263"><defs><clipPath id="clippath"><path d="M0 0h352v263H0z" style="fill:none"/></clipPath><style>.cls-1{fill:#fff}.cls-8{fill:#6a0011;fill-rule:evenodd}</style></defs><g id="_레이어_1-2" style="clip-path:url(#clippath);fill:none"><path d="M299.44 141.94c2.12-.22 3.67-2.11 3.45-4.19l-.77-7.22c-.22-2.09-2.14-3.62-4.26-3.4l-5.16.53c-.31-2.89-.72-5.74-1.25-8.56l5.87-1.88c2.03-.65 3.15-2.81 2.49-4.81l-2.28-6.9c-.66-2-2.86-3.1-4.88-2.45l-4.92 1.57c-.91-2.75-1.92-5.46-3.04-8.12l5.34-3.03c1.85-1.05 2.49-3.4 1.42-5.21l-3.69-6.28c-1.07-1.82-3.45-2.45-5.3-1.4l-4.48 2.55c-1.47-2.5-3.04-4.94-4.7-7.31l4.6-4.07c1.58-1.4 1.71-3.83.29-5.39l-4.93-5.39c-1.43-1.56-3.89-1.69-5.48-.28l-3.86 3.42c-1.96-2.14-4-4.21-6.13-6.2l3.64-4.93c1.25-1.7.87-4.1-.86-5.33l-5.97-4.27c-1.73-1.23-4.16-.85-5.41.84l-3.05 4.13c-2.37-1.69-4.8-3.3-7.3-4.81l2.51-5.55c.87-1.92-.02-4.18-1.96-5.04l-6.74-2.95c-1.95-.85-4.25.02-5.12 1.93l-2.1 4.65c-2.67-1.17-5.39-2.24-8.16-3.21l1.28-5.93c.44-2.05-.9-4.09-2.99-4.53l-7.21-1.51c-2.09-.44-4.16.89-4.6 2.94l-1.08 4.98c-2.85-.59-5.74-1.08-8.66-1.46v-6.08c0-2.1-1.74-3.82-3.88-3.82h-7.25c-2.13 0-3.88 1.72-3.88 3.82v5.11c-2.95 0-5.88.11-8.78.33l-1.29-5.95c-.44-2.05-2.51-3.37-4.6-2.94l-7.21 1.51c-2.09.44-3.43 2.47-2.99 4.53l1.08 4.98c-2.88.6-5.72 1.31-8.52 2.12l-2.51-5.54c-.87-1.92-3.17-2.79-5.12-1.93l-6.74 2.95c-1.95.85-2.83 3.12-1.97 5.04l2.1 4.65c-2.68 1.18-5.31 2.45-7.88 3.82l-3.62-4.91c-1.25-1.7-3.69-2.08-5.42-.84l-5.96 4.27a3.786 3.786 0 0 0-.86 5.33l3.05 4.13c-2.37 1.7-4.67 3.48-6.9 5.35l-4.6-4.08c-1.58-1.4-4.05-1.28-5.48.28l-4.93 5.39a3.779 3.779 0 0 0 .29 5.39l3.86 3.42c-1.96 2.14-3.83 4.36-5.62 6.64L83 67.79c-1.85-1.05-4.23-.42-5.3 1.4l-3.69 6.28c-1.07 1.82-.43 4.16 1.42 5.21l4.48 2.55c-1.46 2.49-2.83 5.04-4.1 7.65l-5.86-1.87c-2.03-.65-4.23.45-4.89 2.45l-2.28 6.9c-.66 2 .46 4.16 2.49 4.81l4.92 1.57c-.9 2.73-1.7 5.51-2.38 8.32l-6.14-.64c-2.12-.22-4.04 1.31-4.26 3.4l-.77 7.22c-.22 2.09 1.33 3.97 3.45 4.19l5.16.53c-.3 2.85-.49 5.72-.57 8.63l-6.15.64c-2.12.22-3.67 2.11-3.45 4.19l.77 7.22c.22 2.09 2.14 3.61 4.26 3.4l5.16-.53c.31 2.89.72 5.74 1.25 8.56l-5.87 1.88c-2.03.65-3.15 2.81-2.49 4.81l2.28 6.9c.66 2 2.86 3.1 4.88 2.45l4.92-1.57c.91 2.75 1.92 5.46 3.04 8.12l-5.34 3.03c-1.85 1.05-2.49 3.39-1.42 5.21l3.69 6.28c1.07 1.82 3.45 2.45 5.3 1.4l4.48-2.55c1.47 2.5 3.04 4.94 4.69 7.31l-4.6 4.07a3.796 3.796 0 0 0-.29 5.39l4.93 5.39c1.43 1.56 3.89 1.69 5.48.28l3.86-3.42c1.96 2.14 4 4.21 6.13 6.2l-3.64 4.93c-1.25 1.7-.87 4.1.86 5.33l5.97 4.26c1.73 1.23 4.16.86 5.42-.84l3.05-4.13c2.37 1.69 4.8 3.3 7.3 4.81l-2.51 5.55c-.87 1.92.02 4.18 1.96 5.04l6.74 2.95c1.95.85 4.25-.02 5.12-1.93l2.1-4.65c2.67 1.17 5.39 2.24 8.16 3.21l-1.28 5.93c-.44 2.05.9 4.09 2.99 4.53l7.21 1.51c2.09.44 4.15-.89 4.6-2.94l1.08-4.98c2.85.59 5.74 1.08 8.66 1.46v6.08c0 2.1 1.74 3.82 3.88 3.82h7.24c2.13 0 3.88-1.72 3.88-3.82v-5.11c2.95 0 5.88-.11 8.78-.33l1.28 5.95c.44 2.05 2.51 3.38 4.6 2.94l7.21-1.51c2.09-.44 3.43-2.47 2.99-4.53l-1.08-4.98c2.88-.6 5.72-1.31 8.52-2.12l2.51 5.54c.87 1.92 3.17 2.79 5.12 1.93l6.74-2.95c1.95-.85 2.83-3.12 1.96-5.04l-2.1-4.65c2.68-1.18 5.31-2.45 7.88-3.82l3.62 4.91c1.25 1.7 3.69 2.08 5.42.84l5.97-4.27c1.72-1.23 2.11-3.63.86-5.33l-3.05-4.13c2.37-1.7 4.67-3.48 6.9-5.35l4.6 4.08c1.59 1.4 4.05 1.28 5.48-.28l4.93-5.39a3.779 3.779 0 0 0-.29-5.39l-3.86-3.42c1.96-2.14 3.83-4.36 5.62-6.64l5.36 3.05c1.85 1.05 4.23.42 5.3-1.4l3.69-6.29c1.07-1.82.43-4.16-1.42-5.21l-4.48-2.55c1.46-2.49 2.83-5.04 4.1-7.65l5.86 1.88c2.03.65 4.23-.45 4.89-2.45l2.28-6.9c.66-2-.46-4.16-2.49-4.81l-4.92-1.57c.9-2.73 1.7-5.51 2.38-8.32l6.14.64c2.12.22 4.04-1.31 4.26-3.4l.77-7.22c.22-2.09-1.33-3.97-3.45-4.19l-5.16-.53c.3-2.85.49-5.72.57-8.63l6.16-.64Z" style="fill:#f6eb00"/><path d="M299.44 141.94c2.12-.22 3.67-2.11 3.45-4.19l-.77-7.22c-.22-2.09-2.14-3.62-4.26-3.4l-5.16.53c-.31-2.89-.72-5.74-1.25-8.56l5.87-1.88c2.03-.65 3.15-2.81 2.49-4.81l-2.28-6.9c-.66-2-2.86-3.1-4.88-2.45l-4.92 1.57c-.91-2.75-1.92-5.46-3.04-8.12l5.34-3.03c1.85-1.05 2.49-3.4 1.42-5.21l-3.69-6.28c-1.07-1.82-3.45-2.45-5.3-1.4l-4.48 2.55c-1.47-2.5-3.04-4.94-4.7-7.31l4.6-4.07c1.58-1.4 1.71-3.83.29-5.39l-4.93-5.39c-1.43-1.56-3.89-1.69-5.48-.28l-3.86 3.42c-1.96-2.14-4-4.21-6.13-6.2l3.64-4.93c1.25-1.7.87-4.1-.86-5.33l-5.97-4.27c-1.73-1.23-4.16-.85-5.42.84l-3.05 4.13c-2.37-1.69-4.8-3.3-7.3-4.81l2.51-5.55c.87-1.92-.02-4.19-1.96-5.04l-6.74-2.95c-1.95-.85-4.25.02-5.12 1.93l-2.1 4.65c-2.67-1.17-5.39-2.24-8.16-3.21l1.28-5.93c.44-2.05-.9-4.09-2.99-4.53l-7.21-1.51c-2.09-.44-4.16.89-4.6 2.94l-1.08 4.98c-2.85-.59-5.74-1.08-8.66-1.46v-6.08c0-2.1-1.74-3.82-3.88-3.82h-7.25c-2.13 0-3.88 1.72-3.88 3.82v5.11c-2.95 0-5.88.11-8.78.33l-1.29-5.95c-.44-2.05-2.51-3.37-4.6-2.94l-7.21 1.51c-2.09.44-3.43 2.47-2.99 4.53l1.08 4.98c-2.88.6-5.72 1.31-8.52 2.12l-2.51-5.54c-.87-1.92-3.17-2.79-5.12-1.93l-6.74 2.95c-1.95.85-2.83 3.12-1.97 5.04l2.1 4.65c-2.68 1.18-5.31 2.45-7.88 3.82l-3.62-4.91c-1.25-1.7-3.69-2.08-5.42-.84l-5.96 4.27a3.786 3.786 0 0 0-.86 5.33l3.05 4.13c-2.37 1.7-4.67 3.48-6.9 5.35l-4.6-4.08c-1.58-1.4-4.05-1.28-5.48.28l-4.93 5.39a3.779 3.779 0 0 0 .29 5.39l3.86 3.42c-1.96 2.14-3.83 4.36-5.62 6.64l-5.36-3.05c-1.85-1.05-4.23-.42-5.3 1.4L74 75.47c-1.07 1.82-.43 4.16 1.42 5.21l4.48 2.55c-1.46 2.49-2.83 5.04-4.1 7.65l-5.86-1.87c-2.03-.65-4.23.45-4.89 2.45l-2.28 6.9c-.66 2 .46 4.16 2.49 4.81l4.92 1.57c-.9 2.73-1.7 5.51-2.38 8.32l-6.14-.64c-2.12-.22-4.04 1.31-4.26 3.4l-.77 7.22c-.22 2.09 1.33 3.97 3.45 4.19l5.16.53c-.3 2.85-.49 5.72-.57 8.63l-6.16.64c-2.12.22-3.67 2.11-3.45 4.19l.77 7.22c.22 2.09 2.14 3.61 4.26 3.4l5.16-.53c.31 2.89.72 5.74 1.25 8.56l-5.87 1.88c-2.03.65-3.15 2.81-2.49 4.81l2.28 6.9c.66 2 2.86 3.1 4.88 2.45l4.92-1.57c.91 2.75 1.92 5.46 3.04 8.12l-5.34 3.03c-1.85 1.05-2.49 3.39-1.42 5.21l3.69 6.28c1.07 1.82 3.45 2.45 5.3 1.4l4.48-2.55c1.47 2.5 3.04 4.93 4.69 7.31l-4.6 4.07a3.796 3.796 0 0 0-.29 5.39l4.93 5.39c1.43 1.56 3.89 1.69 5.48.28l3.86-3.42c1.96 2.14 4 4.21 6.13 6.2l-3.64 4.93c-1.25 1.7-.87 4.1.86 5.33l5.97 4.26c1.73 1.23 4.16.86 5.42-.84l3.05-4.13c2.37 1.69 4.8 3.3 7.3 4.81l-2.51 5.55c-.87 1.92.02 4.18 1.96 5.04l6.74 2.95c1.95.85 4.25-.02 5.12-1.93l2.1-4.65c2.67 1.17 5.39 2.24 8.16 3.21l-1.28 5.93c-.44 2.05.9 4.09 2.99 4.53l7.21 1.51c2.09.44 4.16-.89 4.6-2.94l1.08-4.98c2.85.59 5.74 1.08 8.66 1.46v6.08c0 2.1 1.74 3.82 3.88 3.82h7.24c2.13 0 3.88-1.72 3.88-3.82v-5.11c2.95 0 5.88-.11 8.78-.33l1.28 5.95c.44 2.05 2.51 3.38 4.6 2.94l7.21-1.51c2.09-.44 3.43-2.47 2.99-4.53l-1.08-4.98c2.88-.6 5.72-1.31 8.52-2.12l2.51 5.54c.87 1.92 3.17 2.79 5.12 1.93l6.74-2.95c1.95-.85 2.83-3.12 1.96-5.04l-2.1-4.65c2.68-1.18 5.31-2.45 7.88-3.82l3.62 4.91c1.25 1.7 3.69 2.08 5.42.84l5.97-4.27c1.72-1.23 2.11-3.63.86-5.33l-3.05-4.13c2.37-1.7 4.67-3.48 6.9-5.35l4.6 4.08c1.59 1.4 4.05 1.28 5.48-.28l4.93-5.39a3.779 3.779 0 0 0-.29-5.39l-3.86-3.42c1.96-2.14 3.83-4.36 5.62-6.64l5.36 3.05c1.85 1.05 4.23.42 5.3-1.4l3.69-6.28c1.07-1.82.43-4.16-1.42-5.21l-4.48-2.55c1.46-2.49 2.83-5.04 4.1-7.65l5.86 1.88c2.03.65 4.23-.45 4.89-2.45l2.28-6.9c.66-2-.46-4.16-2.49-4.81l-4.92-1.57c.9-2.73 1.7-5.51 2.38-8.32l6.14.64c2.12.22 4.04-1.31 4.26-3.4l.77-7.22c.22-2.09-1.33-3.97-3.45-4.19l-5.16-.53c.3-2.85.49-5.72.57-8.63l6.16-.64Z" style="fill:none;stroke:#231815;stroke-miterlimit:10;stroke-width:.19px"/><path d="M284.96 139.18c0 56.8-47.32 102.85-105.7 102.85S73.57 195.98 73.57 139.18 120.89 36.33 179.26 36.33s105.7 46.05 105.7 102.85" style="fill:#004398"/><path d="M219.79 180.56c-6.32 0-11.6 6.17-12.96 14.44H124v16h10v-8h8v8h10v-8h54.73c1.2 8.57 6.59 15.04 13.06 15.04 7.35 0 13.31-8.34 13.31-18.63s-5.96-18.63-13.31-18.63m-.76 30.5c-3.99 0-7.23-5.51-7.23-12.3s3.23-12.3 7.23-12.3 7.23 5.51 7.23 12.3-3.24 12.3-7.23 12.3" style="fill:#de1c1c"/><path d="M112.61 154h-.77l-.96-.9s-2.55.22-5.7.9H101v1.15c-4.59 1.57-8.75 4.27-7.29 8.8 0 0 1.46-5.01 7.29-7.34v1.92l-.62 3.51c-.15.34-.22.64-.18.85 0 0 7.23-6.61 10.69-6.29l1.28-2.3-.03-.03.47-.27ZM181.47 202.99s3.08 3.69 6.15 3.42c0 0-5.16-5.72-3.55-6.85l-2.61 3.42ZM174.05 201.54s3.38 4.89 7.41 4.58c0 0-8.07-5.77-2.15-8.96l-5.26 4.38ZM158.47 197.51s-.12 5.58 3.18 7.62c0 0-2.85-8.84 1.58-10.43l-4.75 2.8Z" class="cls-1"/><path d="M162.09 200.92s.22 4.2 6.91 4.2c0 0-8.49-7.29-2.12-8.07l-4.79 3.87Z" class="cls-1"/><path d="m169.39 168.01 1.86-2.26 22.67 10.03-.34 2.71-1.78 2.7-3.24-2.65-1.63 1.82.55 1.89s-.79.29-.54.53l-2.72 1.5-8.65 5.13-3.42.43-2.17 1.91-1.53 2.8-1.13 1.89-2.6 3.44-1.78.48-.19-1.28-1.03-.7-1.91 1.26-1.33-1.95 1.45-1.69 1.21-.53s4.34-5.75 5.89-5.78 2.66.25 2.66.25l.62-1.04s.61-1.34.98-1.37c.36-.02 2.16-1.06 2.16-1.06s2.02-1.18 2.59-1.12c.57.06 1.97-.93 2.35-.96.37-.03 1.05-.8 1.05-.8l-.71-5.28-3.2-2.53-3.15-4.73-2.97-3.04Z" class="cls-1"/><path d="M207.49 178.84s-7.51 4-7.72 4.79l-3.58 3.05-2.26 1.29-2.2 1.96-2.2 1.24-3.33 2.74-1.56 8.41-2.16.46-.94-2.02s-.73-.72-1.23-.4l-5.8-1.19s1.08-1.42 1.39-1.51c.31-.09 1.31-2.2 1.31-2.2s1.86-1.09 2.24-1.08c.39 0 1.41-.97 1.41-.97l1.2-.59 5.62-3.32.69-1.64s1.52-1.32 1.78-1.37c.26-.05 1.52-1.51 1.52-1.51s.9-1.2 1.23-1.2c.33 0-1.13-2.61-1.13-2.61l.54-1.06 1.77-1.39 10.55-1.13 2.83 1.24ZM215.14 150.83l-3.28 4.14-1.11 2.51-1.49 3.46.8 6.13 2.14 7.63 11.77 13.89 9.95 12.66s.7-2.99 1.62-2.6c0 0 .05-3.14 2.16-3.7 0 0 .97-1.38 1.62-1.06l6.29-3.33 3.44.69s.93-.44 2.93.62l12.05-1.29 1.76-2.7-16.38-11.84-30.82-25.73-3.44.52ZM157.77 108.86s.57 1.54.57 2.36-7.01 5.26-7.01 5.26l-8.74 3.13-2.35-1.61-2.35-2.91-14.29-8.04-19.8-9.71-8.6-5.72-17.71-23-17.66-19.13-13.85-21.35 6.92-2.7 12.29 8.57 9.23-.09 7.1 5.91 7.28 7.04 7.46-.52 4.79 5.04 7.03 5.08 7.79 6.29 4.79 6.47 7.26 2.14 4.06 6.59 4.79 3.33 4.86 7.89 3.66 2.02 7.52 10.24 2.46 3.39 2.49 4.03ZM170.95 110.58l3.22 1.48-5.7 4.29-5.39 4.65H157v-6.72l1.91-3.11 12.04-.59z" class="cls-1"/><path d="m221.78 70.3-12.89 3.29-8.92 4.51-4.89 5.62-1.71 2.24-3.16 5.8-6.24 8.51-4.02 8.51-21.22 15.99 7.01 9.02 7.37 2.96 5.92 12.25 12.63 7.99h11.44l-3.81 2.96.92 4.9 2.24 2.12 5.66 1.88 3.82-1.88-1.58-6.35 2.3-4.79.73-6.45 3.49-.99-1.25-2.75-3.55-2.06-.46-1.76-1.51-1.4-6.23-4.47-3.38-1.22s.98-4.34 1.49-4.55l1.32-2.5 16-6.69 6.28-.1 8.29-2.77 4.05-2 3.42-.8 5-3 1.22-1.35.32-.64s.15-.72.82-.73l5.34-3.39s6.65-4.26 7.72-4.25c0 0 11.94.04 12.28.52l1.88-3.28 8.8-5.61 6.57-5.2 2.39-4.04 4.38-5.58.39-2.67 8.49-9.41 4.34-11.45 7.72-5.16-.96-5.67-38.42 9.02-12.98 2.15-20.52 9.11-17.1 3.01-7.19 2.6Z" class="cls-1"/><path d="m178.09 161.22 14.82-1.91 3.73 10.69-2.31 5.48-1.87-.6-2.84-1.66-1.42-3.82-4.34-1.66-2.58-1.04-4.7-.17 1.51-5.31zM116.6 136.97l-.8 3.68 10.65-.32 9.26-4.76 4.32-5.16-6.32-.58-17.11 7.14zM141.43 143.48l5.59 9.52h19.57l-3.06-16.18-16.24-1.23-5.86 7.89zM104.38 146.42 114.4 141h5.57s3.16 3.62 3.16 3.8-1.51 2.71-1.51 2.71l-1.51 1.97s-4.74 2.92-4.88 2.99c-.14.07-5.1.53-5.1.53h-4.3l-.4 1.06-2.43.94h-1.99v-3.02l.79-2.11 1.44-3.13 1.15-.32Z" class="cls-1"/><path d="M104.3 151.02c.05-2.42 3.11-1.89 4.86-2.65-1.02 2.64-3.07 1.25-4.86 2.65" class="cls-8"/><path d="M289.43 88.04c-12.1 2.56-28.58 6.41-44.29 3.18 1.51-.99 4.02-1 5.4-2.12-7.23.7-19.71 1.76-29.16.53-.47-1.7 1.78-.73 1.62-2.12-6.67 3.17-14.84 4.87-25.39 4.23 6.39 3.84 15.2-1.11 21.6-1.59 2.84-.21 6.25 1.25 10.26 1.59 8.25.69 15.72 1.09 22.68 1.59 5.62.41 11.64.42 16.74 0 8.03-.66 13.01-5.16 16.74 0-1.07 5.48-7.54 5.67-10.8 9-.78-.12-.19-1.58-1.08-1.59-11.17 1.12-25.56-.6-37.81-1.59.39-1.73 3.02-1.27 4.32-2.12-7.35.11-18.35 1.28-25.92-1.06.24-.65.69-1.09 1.62-1.06-5.88-.41-13.78 2.58-21.06 1.06 5.38 3.18 11.66-.23 17.28 0 3.96.16 7.81 2.72 11.88 3.18 2.93.33 6.08-.25 9.18 0 9.81.78 19.47 4.25 29.16 2.65-2.96.98.08 2.36-1.08 4.76-8.9 5.83-25.94 1.76-35.64-1.06.94-.84 2.88-.71 4.32-1.06-6.76-1.67-16.14-.77-21.06-4.23-6.53 1.4-11.01.71-17.82 0 10.18 3.06 22.09 1.89 32.94 4.76 6.16 3.67 14.13 5.56 24.3 5.29.45 5.2-4.57 5.05-8.64 5.82-3 1.65-4.92 4.35-9.72 4.23-3.33 2.73-8.16 3.99-14.58 3.7-3.2 4.35-12.61 2.72-14.04 7.41-6.45-.21-11.07-2.21-16.2-3.71 3.19 3.05 10.46 4.92 15.66 4.23.73.16.45 1.33.54 2.12 22.02 15.47 43.19 31.77 64.81 47.63 1.58.47 1.66.47 3.24 0 1.73 3.58 8.53 3.4 8.64 7.41.13 4.74-3.99 2.73-10.8 4.23-1.35.3-4.27 2.9-7.02 2.65-.82-.07-3.65-1.67-5.4-2.65-15-8.38-29.63-29.5-42.13-37.04 10.85 13.01 24.46 23.31 36.73 34.93-1.95 4.21-6.9.46-9.72 2.65-4.84-1.43-6.93-5.56-10.26-8.47 2.8.79 6.5 5.27 9.72 7.41-6.65-6.72-15.47-15.89-22.68-23.81.2 1.59 3.09 5.08 4.86 6.88-2.11-.05-4.45-4.45-7.02-5.82 5.63 10.73 17.95 17.66 21.6 28.58-7.72-8.13-12.88-18.78-22.14-25.4 6.63 10.81 19.51 18.25 22.14 31.22-8-1.33-7.9-10.61-14.04-13.76-2.17-7.95-10.34-14.56-15.66-21.17.32 1.71 2.09 6.78 1.62 9.53-3.41 4.15-10.95.48-15.12 1.06-6.98-4.63-11.59-11.58-22.14-12.7 3.92 1.8 7.59 3.86 11.34 5.82-.46 1.55-1.74-.32-2.7 0 1.75 2.18 5.31-.37 5.94 3.18-1.72.45-1.67-.83-2.7-1.06 1.04 2.94 5 .28 6.48 3.18-.45 1.14-1.4 1.81-1.08 3.71-1.6-1.07-3.91.14-4.86-.53.47 2.76 2.8.98 4.32 1.06-2.77 3.46-8.58 3.94-10.8 7.94-8-1.4-7.84 9.54-14.58 11.11.99-1.74.43-3.82 3.24-2.65-.84-1.87-1.42-.41.54-1.59.85-.51-.29-3.39 2.16-1.59.28-1.66-1.48-2.36 1.08-2.12-4.14-2.96-5.32 5.57-8.64 6.88-1.42.16-1.77-.73-1.62-2.12.07-2.48.79.58 2.16 0 .27-1.66-1.86-1.4-.54-2.65.43.28.88.55 1.62.53.76-.19.05-.93-.54-1.06 3.03.04 1.6-3 4.32-1.59-1.39-3.55 3.95-6.44 7.02-4.23.67-1.71-1.75-.4-1.08-2.12 1.01.42 1.98.89 3.24 1.06.67-1.71-1.75-.41-1.08-2.12 1.58-.14 1.66 1.2 3.24 1.06.02-.91-.4-1.37-1.08-1.59.46-1.55 1.74.32 2.7 0 .34-.57-1.01-2.54 1.62-1.06-1.66-4.75-6.87-14.17-13.5-17.47-7.93-1.05-12.82-5.07-18.36-8.47-8.58-1.12-14.55-4.8-22.68-6.35-1.32.06-.11 1.75.54 1.59-.95.29-5.24-.72-6.48-.53-.02.91.4 1.37 1.08 1.59-8.26-.39-14.71 2.61-19.98 7.41 2.88-1.78 5.08-9.77 10.8-9-5.96 1.04-16.92 1.76-17.28 10.06-5.87-5.56 1.99-12.25 7.02-13.76.85-11.52 13.96-11.02 16.2-21.17.95.13 1.23.91 1.08 2.12 2.17.37 1.33-2.23 3.24-2.12v1.59c10.32-5.14 24.46-16.85 36.19-20.64 3.82-1.24 8.76-.14 13.5 1.06-2.57 4.18-7.63 5.93-10.8 9.53 8.2-3.08 12.36-10.12 18.9-14.82.72-4.94 4.52-6.87 7.02-10.05.29-4.12 2.03-6.83 4.86-8.47 2.82-13.38 16.68-14.54 29.71-19.05 10.89-3.77 21.75-7.47 30.25-10.58.68-.13.54-1.05 0-1.06 26.68-9.85 57.88-15.26 77.77-31.75 2.4 9.96-3.23 16.58-8.1 21.17 3.94 9.78-6.06 14.33-11.34 18.52 1.8 7.35-5.46 10.09-10.26 12.7.07 8.03-8.28 13.38-14.04 12.17 1.97.35 2.07-1.15 3.78-1.06m-18.78-27.52c.33-1.63 4.73-3.04 2.16-4.23-8.68 8.26-22.4 11.56-37.81 13.23-1.69.16 1.37-1.53-.54-1.59-5.11 5.16-13.9 7.81-22.14 10.06-2.62.71-5.95 1.3-7.02 3.17 7.24-1.99 13.06-2.79 18.9-5.29 3.62-1.55 6.66-4.47 9.72-5.29 7.39-2 13.68-1 19.98-2.65 4.57-1.19 8.61-4 13.5-5.29 8.83-2.32 17.93-3.23 26.46-5.82 8.25-2.5 16.56-4.16 23.22-9.53-14.7 5.18-29.04 10.71-46.45 13.23m-8.1 12.17c1.13-1.54 4.04-1.33 4.32-3.7-10.24 4.11-22.99 8.48-37.81 6.35-5.81 5.78-17.41 5.88-25.93 9 5.6-.18 10.18-.63 15.12-2.12 4.33-1.31 7.79-4.71 11.88-5.29 1.81-.26 4.01.49 5.94.53 8 .16 15.13-3.09 23.22-3.71 3.63-.27 7.73.75 11.34.53 13.48-.84 25.45-4.14 35.64-9 .08-.63.96-1.2 0-1.59-11.92 5.61-25.66 9.43-43.75 9m-61.57 7.41c4.42-3.08 9.42-4.53 11.34-5.29 1.47-.58 13.63-4.94 8.1-3.7-8.03 1.79-17.52 4.41-23.76 10.58-3.44 3.4-5.1 9.43-7.56 13.23-2.32 3.58-5.38 5.92-5.94 9.53 8.24-6.76 9.53-18.57 17.83-24.34m54.01 2.12c.58-1.38 3.2-.74 3.78-2.12-8.22.91-23.91 5.88-34.03 1.59-4.78 4.49-12.63 5.97-22.14 5.82 7.38 4.2 14.79-2.76 22.14-3.7 6.31-.81 14.04 1.26 21.06.53 17-1.77 37.18-1.57 52.39-6.88.55 0 .68-.93 0-1.06-13.14 3.17-26.66 5.98-43.21 5.82m-50.77 23.28c10.55 3.95 22.58 9.27 35.11 9.53-6.35-2.07-14.66-2.22-19.44-5.82.64-.08 1.53.09 1.62-.53-6.76-.09-13.62-2.27-16.2-4.76-5.5 1.88-12.79-.99-17.28 0 4.49 1.42 9.96 1.88 16.2 1.59m-8.1 4.23c10.81 2.49 19.24 11.74 32.41 9.53-6.85-1.05-13.44-2.36-18.36-5.29 1.68.37 5.06-.28 3.24-1.59-5.52 1.52-11.14-1.43-15.12-3.18.42-.12 1.06-.01 1.08-.53-5.88.48-9.82-.96-14.58-1.59 2.64 3.53 7.83 1.84 11.34 2.65m16.74 12.17c-3.09-1.38-7.47-1.5-9.18-4.23 1.43 0 3.18.29 3.24-1.06-6.05.11-10.87-.99-14.58-3.18.33-.91 2.56.04 2.7-1.06-5.38.86-10.42-1.43-14.04-.53 12.72.94 20.68 9.37 31.86 10.06m-8.64 3.7c-2.84-.75-4.9-2.26-7.02-3.7-.17-1.4 3.03.5 2.16-1.59-6.36.23-10.4-1.8-14.58-3.7 1.38-.06 2.57-.3 3.24-1.06-4.8.82-9.47-1.3-12.42-.53 10.9 1.85 18.94 9.31 28.62 10.58m-3.24 3.71c-1.99-2.46-6.9-2.07-9.18-4.23.15-1.09 2.39-.13 2.16-1.59-5.01-.21-9.9-.54-11.34-4.23-4.88.89-8.51-2.24-11.34-1.59 10.28 3.51 18.55 8.99 29.71 11.64m-14.58-3.18c-4.18-.13-7.15-1.46-9.72-3.18.64-.26 1.22-.56 1.62-1.06-4.12.85-7.38-1.92-10.26-.53 6.66.43 11.34 8.18 18.36 4.76m-14.58-1.59c-2.58-.65-5.75-.72-8.1-1.59.6 2.24 5.89 2.68 8.1 1.59m-4.32 1.59c-2.32.65-3.98-2.06-5.4-.53 1.28.95 4.35 2.4 5.4.53m13.5 2.12c-2.89 1.82-7.3-.96-9.18 0 2.32.94 7.61 3 9.18 0m-4.86 2.65c-3.59-.01-5.73-1.44-8.64-2.12 1.36 1.97 6.62 4.11 8.64 2.12m-45.91 3.17c2.18-.51 4.95-.44 5.94-2.12-2.18.51-4.95.44-5.94 2.12m69.67-.53c-2.76 1.41-10.1-1.19-12.96-1.06 3.34.61 10.47 4.76 12.96 1.06m-13.5.53c-.13.93-.93 1.21-2.16 1.06-1.43.3-4.76-1.84-3.78-.53 4.43 2.36 8.84 4.75 14.58 5.82-.88-3.35-7.19-1.37-9.72-4.23.53-.54 1.07-1.07 1.62-1.59 1.83 1.3 7.04 4.01 9.18 1.59-2.86.02-6.9-.66-9.72-2.12m-60.49 3.7c2.85-1.09 6.3-1.59 8.64-3.18-3.33.62-7.2.7-8.64 3.18m70.75 4.76c-2.61-.47-10.39-1.26-10.26-4.23-4.31.68-6.73-3.27-9.18-2.65 5.18 2.92 13.46 8.24 19.44 6.88m-80.48-3.18c2.03-.68 6.63-1.6 5.94-3.17-1.55 1.48-4.9 1.2-5.94 3.17M210.7 142c-3.27-1.21-5.88-5.87-9.18-5.29 3.26 1.22 6.12 5.64 9.18 5.29m-12.96 5.29c-.08.7 1.82 1.97.54 2.12-9.73-2.15-14.68-6.4-22.69-9.53 6.11 5.66 15.3 8.3 24.3 11.11.63 1.33 2.15 1.77 2.16 3.7-10.04 1.7-15.49-8.45-22.68-9.53 6.91 3.89 14.18 12.82 24.31 10.05-2.22-3.47-4.76-6.63-6.48-10.58-8.02.37-14.98-4.67-21.06-7.94 3.73 6.93 14.63 6.83 21.6 10.58m-51.31-5.29c3.29.22 6.64-2.3 5.94-4.23-.95 2.42-4 2.78-5.94 4.23m9.18 2.12c-.3.32 7.42-2.9 4.86-4.23-1.5 2.8-3.72 3.01-4.86 4.23m58.87 3.7c-3.99-2.27-8.07-7.26-11.88-7.94 3.84 2.41 8.33 7.01 11.88 7.94m-105.32 3.7c.52-1.35 1.08-3.68-.54-4.23.85-2.52 5.48-1.33 5.94-4.23-5.76-.69-8.4 8.88-12.42 4.76-.45.61-.71 1.42-.54 2.65 2.73.14 4.02 1.7 7.56 1.06m34.03-4.76c1.83.18 4.58-1.47 3.24-2.65-.35 1.6-2.45 1.48-3.24 2.65m-28.08-.53c1.61-.19 3.29-.3 3.78-1.59-1.18.61-3.49.1-3.78 1.59m42.13 3.18c3.07.17 6.67-1.91 5.4-4.23-.22 2.96-3.82 2.61-5.4 4.23m46.45 0c-1.1-.16-1.06-1.43-2.16-1.59.39 1.93 2.55 2.44 1.08 4.76 1.72-.43 2-2.27 2.7-3.7-.72-1.41-.79-3.46-2.7-3.7-.18 1.62 3.07 2.59 1.08 4.23m-52.93-.53c-4.07-.07-.54.92 1.62.53.14-.97 3.08-1.86 1.62-2.65-.43 1.34-2.22 1.35-3.24 2.12m55.63 3.17c1.27.17.52 2.31 1.62 2.65-.58-1.98 1.34-1.51 1.08-3.18-.42-.69-.98-3.91-2.16-2.12 1.86 1.92 1 3.2-.54 2.65m-103.16 1.06c0 .7-.95.48-1.08 1.06 1.53.44 1.4-.75 2.7-.53.64-1.57-2.28-2.27-2.7-1.06.42.12 1.07.02 1.08.53m136.1 19.05c8.05 6.23 15.31 13.86 24.3 17.46-16.77-11.09-31.75-26.75-48.07-36.51 6.94 7.07 15.69 12.79 23.76 19.05m-30.79-14.29c.03-.91-.42-1.36-1.08-1.59 1.16 1.36-.5 3 .54 3.7 1.69-.31 3.52-4.23 1.08-5.29-.31.93.65 3.11-.54 3.18m-4.86 2.65c.71.68 1.99.68 2.7 0 .23-1.5-1.14-4.12-2.16-2.65 2.11.54.67 2.4-.54 2.65m-16.2 1.59c1.84 1.17 6.38-.7 4.86-2.65-.42 2.05-3.32 1.69-4.86 2.65m25.92 1.06c8.34 10.71 19.04 21.92 29.71 28.58-11.39-9.83-22.09-20.34-31.87-31.75-.46 1.13-.39 3.37 0 4.23.49-.92 1.21-2.04 2.16-1.06m-9.18 0c-1.5-.78-.25 5.69 2.16 4.76-.48-.16-2.36-1.43-1.08-1.59.77.13.91.87 1.62 1.06.05-1.44-.9-1.06 0-2.12-.33-.73-2.08-.08-2.16-1.06.42-.12 1.06-.01 1.08-.53-1.01.03-1.14-.41-.54-1.06-1.55-.27-3.62-2.77-4.86-1.59.97.99 3.31.63 3.78 2.12m3.78-1.59c-.16 1.08-1.46 1.04-1.62 2.12 2.81.61 3.16-4.09 1.08-2.65.33.03.64.08.54.53m-30.79 3.7c2.04.38 5.29-.77 3.78-2.12-.27 1.67-3.09.86-3.78 2.12m7.02 1.59c1.2-.62 4.81-1.61 3.24-3.18.07 1.86-4.36 2.04-3.24 3.18m4.86 1.06c2.65.3 3.98-.69 4.32-2.65-1.55.77-2.36 2.28-4.32 2.65m1.62 5.29c2.56 1.14 4.56-2.87 3.24-2.12-.21 1.56-2.54 1.04-3.24 2.12m-10.8 1.59c-1.43 0-3.08.2-3.78-.53-.42 2.38 3.37 1.75 3.78.53" class="cls-8"/><path d="M128.06 103.92c-5.2-17.31-12.47-32.59-19.98-47.63 10.24-.68 12.55 6.4 15.66 12.7 6.09-3.12 8.66 5.35 10.26 10.05 5.56-1.08 7.62 5.01 9.18 9.53 5.54 1.63 5.52 8.71 10.8 10.58.47 3.95 2.76 6.12 3.78 9.53-.27 1.67-2.47 1.46-3.78 2.12.17-1.24.85-1.99.54-3.7-1.68 1.88-1.41 5.67-4.86 5.82 2.01-4.06.29-8.98 0-13.76-1.48 2.52.01 6.68 0 9.53.09 2.23-.83 0-1.62 0 .15 1.79.86 3.04.54 5.29-3.18 1.12-5.56 3.02-8.1 4.76-5.52-4.68-11.33-7.94-18.9-11.11-7.42-3.11-16.57-3.97-22.14-7.94-5.79-4.12-8.07-10.09-12.42-15.35-.63-.44-1.45-.7-2.7-.53C66.3 60.36 45.37 39.77 20.59 22.95c4.99-8.18 21.06-2.93 25.93 1.59.67-1.28 1.45-2.46 2.7-3.18 8.95.41 13.14 5.47 18.36 9.53 9.82-5.38 19.04 6.22 23.22 13.23 2.26.1 1.67-2.6 4.32-2.12 4.97.96 6.16 5.6 9.72 7.94 1.08 1.08-.24 1.04-.54 2.12 5.87 6.95 8.04 17.53 12.96 25.4-.85.25 3.12 9.17 4.86 13.76 1.93 5.1 3.59 9.85 5.94 12.7m-52.93-47.1c12.09 9.85 21.23 22.59 29.16 36.51-4.32-13.86-15.92-23.59-24.84-34.4-7.44-9.01-14.93-18.2-23.22-25.4-1.45-1.26-3.17-4.35-5.4-3.18 9.58 7.9 19.94 17.86 25.92 27.52-.14-.74-1.18-.6-1.62-1.06m14.04 6.88c11.54 7.21 17.05 20.34 23.76 32.28-3.72-12.59-12.91-22.68-19.44-33.34-3.3-5.38-7.47-10.44-11.34-15.35-3.86-4.88-8.28-10.52-12.96-12.7 8.69 9.12 18.46 20.02 23.76 30.69-.51-.95-2.99-2.66-3.78-1.59m13.5 6.35c9.72 5.65 12.3 18.29 17.82 28.05-3.18-11.7-7.88-24.73-17.82-28.05m5.4 2.12c-3.59-9.26-9.58-20.98-15.66-24.87 6.04 7.49 9.84 17.17 15.66 24.87m19.44 15.35c-1.07.27-1.24-2.92-2.16-1.06 5.16 5.18 4.85 15.71 8.64 22.23-1.84-10.54-5.53-22.69-8.64-32.28-.56-1.72-.96-6.94-2.16-5.29 1.62 5.3 3.29 10.53 4.32 16.41m9.18 9.52c-1.64-.33-1.05-2.85-2.7-3.17 2.58 5.93 3.44 13.57 5.94 19.58-2.01-12.53-2.44-23.96-7.02-34.4 1.28 5.98 2.65 11.87 3.78 17.99m9.18 17.46c-.38-8.49.74-17.4-2.7-23.81-.27 5.03 2.22 10.16 1.08 14.29.22-1.44-2.53-4.44-1.62-3.18 1.26 4.06 1.51 9.1 3.24 12.7M230.14 188.59c1.74.77 5.8 3.84 7.56 6.35-4.24 1.57-5.06-4.49-7.56-6.35M191.79 185.42c-.98-1.31 2.35.83 3.78.53-.49-1.11-1.59-1.61-3.24-1.59.64-1.43 2.82 0 3.78 0-.59-1.89-2.93-2.07-4.32-3.18 2.76-.94 6.07 2.55 9.72 1.06-6.9 5.41-13.38 11.23-16.2 20.64-.96.29-2.24.27-2.7 1.06-1.38-.06-1.07-1.77-1.08-3.17 1.72-.31 1.67.99 2.7 0-.08-.98-1.83-.33-2.16-1.06-2.22 1.31-5.08 3.76-8.1 2.64-.39-1.62.55-1.93.54-3.17 1.97-.47 2.88.93 3.78 0-.13-.93-.93-1.21-2.16-1.06-1.39-1.05 2.67-.34 3.24 0 .44-2.02-2.6-.62-2.16-2.65.37 1.05 3.22-.33 2.7 1.59 1.9-.33.48-2.21-1.08-2.12.72-1.51 2.4.41 3.24.53.1-1.15-.44-1.68-1.62-1.59.76-1.54 1.86.94 3.24.53.1-1.15-.44-1.68-1.62-1.59 2.18-2.73 5.85-6.86 10.26-4.23.16-1.4-.75-1.74-2.16-1.59-1.09-1.2 3.41-.21 3.78.53.25-1.66-1.36-1.49-2.16-2.12m-10.26 13.76c.95-.3 3.17.64 3.24-.53-.69-.73-3.23-.92-3.24.53" class="cls-8"/></g></svg>