<svg xmlns="http://www.w3.org/2000/svg" width="299.18457pt" height="150pt" viewBox="0 0 299.18457 150"><defs><clipPath id="a"><path d="M58.197 787.417"/></clipPath><clipPath id="c"><path d="M681.151 978.707"/></clipPath></defs><g fill="#51617e"><path d="M773.086 1077.308h1.064c.654 0 1.064-.048 1.243-.076l.438-.306.164-.607-.164-.579-.457-.301c-.132-.048-.518-.062-1.163-.062h-1.125zm-1.436 4.416v-7.636h3.027c.772 0 1.328.07 1.662.198l.819.72c.207.344.315.74.315 1.215 0 .598-.164 1.069-.484 1.44-.33.368-.796.594-1.394.683l.763.645c.197.236.475.645.824 1.247l.866 1.488h-1.714l-1.045-1.657c-.367-.598-.626-.979-.762-1.134l-.424-.311-.725-.084h-.292v3.187M778.839 1081.724v-7.64h5.29v1.294h-3.85v1.704h3.582v1.286h-3.582v2.066h3.973v1.29M786.907 1075.379v2.17h.796c.532 0 .899-.048 1.092-.1l.47-.358.184-.635-.193-.636-.466-.353c-.188-.052-.579-.09-1.186-.09zm-1.436 6.345v-7.635h2.307c.861 0 1.431.048 1.69.104.424.118.777.372 1.05.758.273.381.41.885.41 1.492 0 .556-.114 1.017-.354 1.389l-.885.79c-.358.147-.974.217-1.84.217h-.942v2.886M792.114 1074.084h1.435v4.138c0 .64.024 1.06.052 1.257l.461.777.956.277.814-.198.434-.537c.075-.23.117-.729.117-1.492v-4.222h1.436v4.01c0 1.032-.066 1.77-.188 2.227-.127.457-.41.829-.848 1.106-.442.287-1.012.424-1.727.424-.744 0-1.333-.114-1.747-.348a2.065 2.065 0 0 1-.908-.984c-.189-.433-.288-1.215-.288-2.363M800.465 1078.401v2.038h1.336c.58 0 .956-.048 1.12-.09l.425-.31.164-.607-.183-.612-.476-.335c-.202-.056-.607-.084-1.228-.084zm0-3.046v1.775h.95c.575 0 .918 0 1.064-.048l.57-.278.212-.602-.17-.542-.404-.277c-.17-.048-.631-.048-1.39-.048zm-1.44-1.27h2.856c.782 0 1.328.07 1.648.187l.796.664.324 1.068-.273 1.008-.72.654.98.678c.235.325.362.716.362 1.163 0 .555-.156 1.03-.461 1.412l-1.083.716c-.287.066-.956.094-2.006.094h-2.424M806.146 1081.724v-7.565h1.44v6.275h3.579v1.29M812.483 1081.73h1.445v-7.646h-1.445zM820.015 1078.91l1.393.484c-.226.852-.58 1.478-1.092 1.874-.504.39-1.12.583-1.86.583-.927 0-1.68-.315-2.254-.941-.66-.73-.998-1.7-.998-2.928 0-1.309.338-2.325.998-3.065.588-.635 1.365-.955 2.344-.955.8 0 1.469.24 2 .72.391.339.669.847.853 1.516l-1.427.362-.546-.95-.955-.325c-.528 0-.956.202-1.29.607-.335.39-.504 1.059-.504 1.991 0 .946.16 1.629.49 2.048.324.395.748.602 1.256.602l.994-.386c.273-.259.48-.668.598-1.238M828.328 1077.902c0 .88.183 1.53.574 1.976.372.438.848.65 1.412.65.57 0 1.031-.212 1.413-.64.367-.447.56-1.111.56-2.005 0-.885-.184-1.549-.55-1.963-.363-.424-.839-.64-1.423-.64-.583 0-1.068.22-1.435.64-.368.423-.551 1.092-.551 1.982m-1.483.056c0-.914.165-1.662.466-2.255.306-.589.706-1.022 1.196-1.318.499-.278 1.097-.424 1.803-.424 1.017 0 1.84.334 2.485 1.026.64.687.97 1.652.97 2.914 0 1.285-.344 2.278-1.026 2.999-.598.626-1.408.95-2.43.95-1.035 0-1.845-.315-2.442-.94-.683-.721-1.022-1.7-1.022-2.952M835.154 1081.724v-7.64h4.877v1.294h-3.446v1.803h2.984v1.295h-2.984v3.248M845.59 1081.724v-7.64h1.44v3.399l2.914-3.4h1.95l-2.68 2.962 2.797 4.679h-1.883l-1.93-3.582-1.167 1.28v2.302M853.941 1077.902c0 .88.184 1.53.565 1.976.381.438.852.65 1.417.65.57 0 1.036-.212 1.407-.64.377-.447.565-1.111.565-2.005 0-.885-.179-1.549-.55-1.963-.363-.424-.834-.64-1.422-.64-.593 0-1.069.22-1.436.64-.372.423-.546 1.092-.546 1.982m-1.473.056c0-.914.14-1.662.447-2.255.306-.589.71-1.022 1.2-1.318.5-.278 1.092-.424 1.798-.424 1.017 0 1.85.334 2.486 1.026.65.687.965 1.652.965 2.914 0 1.285-.339 2.278-1.017 2.999-.602.626-1.412.95-2.424.95-1.036 0-1.85-.315-2.448-.94-.678-.721-1.007-1.7-1.007-2.952M862.061 1077.308h1.069c.65 0 1.06-.048 1.243-.076l.428-.306.165-.607-.165-.579-.452-.301c-.136-.048-.518-.062-1.167-.062h-1.12zm-1.44 4.416v-7.636h3.022c.781 0 1.332.07 1.666.198l.815.72c.207.344.315.74.315 1.215 0 .598-.16 1.069-.485 1.44-.324.368-.79.594-1.388.683l.767.645c.198.236.48.645.82 1.247l.87 1.488H865.3l-1.036-1.657c-.376-.598-.63-.979-.762-1.134l-.429-.311-.725-.084h-.287v3.187M868.266 1081.724v-7.64h5.281v1.294h-3.855v1.704h3.592v1.286h-3.592v2.066h3.983v1.29M879.3 1078.702l-.984-2.824-.97 2.824zm2.636 3.022h-1.553l-.612-1.732h-2.867l-.584 1.732h-1.53l2.768-7.635h1.53M891.69 1078.702l-.989-2.824-.965 2.824zm2.631 3.022h-1.553l-.607-1.732h-2.867l-.589 1.732h-1.52l2.763-7.635h1.53M895.494 1081.73h1.44v-7.646h-1.44zM899.98 1077.308h1.064c.654 0 1.068-.048 1.247-.076l.438-.306.165-.607-.165-.579-.452-.301c-.137-.048-.532-.062-1.167-.062h-1.13zm-1.431 4.416v-7.636h3.027c.767 0 1.318.07 1.661.198l.815.72c.212.344.315.74.315 1.215 0 .598-.16 1.069-.485 1.44-.33.368-.79.594-1.393.683l.772.645c.193.236.47.645.824 1.247l.856 1.488h-1.713l-1.031-1.657c-.381-.598-.64-.979-.763-1.134l-.442-.311-.72-.084h-.292v3.187M909.672 1081.724v-7.64h4.887v1.294h-3.456v1.803h2.99v1.295h-2.99v3.248M917.195 1077.902c0 .88.193 1.53.584 1.976.371.438.842.65 1.407.65.574 0 1.031-.212 1.403-.64.381-.447.57-1.111.57-2.005 0-.885-.189-1.549-.556-1.963-.358-.424-.833-.64-1.417-.64-.588 0-1.064.22-1.431.64-.377.423-.56 1.092-.56 1.982m-1.474.056c0-.914.156-1.662.452-2.255.311-.589.72-1.022 1.205-1.318.495-.278 1.088-.424 1.794-.424 1.021 0 1.855.334 2.5 1.026.64.687.95 1.652.95 2.914 0 1.285-.324 2.278-1.016 2.999-.589.626-1.398.95-2.42.95-1.036 0-1.85-.315-2.443-.94-.683-.721-1.022-1.7-1.022-2.952M925.49 1077.308h1.068c.64 0 1.06-.048 1.238-.076l.433-.306.17-.607-.17-.579-.452-.301c-.127-.048-.518-.062-1.163-.062h-1.125zm-1.441 4.416v-7.636h3.031c.772 0 1.323.07 1.657.198l.82.72c.211.344.32.74.32 1.215 0 .598-.17 1.069-.49 1.44-.325.368-.795.594-1.389.683l.758.645c.207.236.485.645.834 1.247l.866 1.488h-1.723l-1.036-1.657c-.376-.598-.635-.979-.762-1.134l-.438-.311-.711-.084h-.297v3.187M935.737 1078.91l1.399.484c-.217.852-.58 1.478-1.083 1.874-.509.39-1.13.583-1.869.583-.923 0-1.676-.315-2.255-.941-.664-.73-.993-1.7-.993-2.928 0-1.309.33-2.325.998-3.065.579-.635 1.365-.955 2.349-.955.786 0 1.454.24 2 .72.382.339.669.847.838 1.516l-1.426.362-.537-.95-.96-.325c-.532 0-.96.202-1.29.607-.33.39-.499 1.059-.499 1.991 0 .946.16 1.629.485 2.048.325.395.744.602 1.271.602l.98-.386c.282-.259.48-.668.592-1.238M938.378 1081.724v-7.64h5.291v1.294h-3.86v1.704h3.587v1.286h-3.587v2.066h3.983v1.29M901.001 1066.628c3.079 0 5.098-.273 6.082-.796.989-.527 1.474-1.144 1.474-1.864 0-.706-.485-1.332-1.474-1.874-.984-.541-3.003-.81-6.082-.81-3.017 0-5.041.269-6.077.81-1.022.542-1.53 1.173-1.53 1.907 0 .692.508 1.304 1.53 1.831 1.036.523 3.06.796 6.077.796m0-8.45c3.098 0 5.762.386 8.031 1.163 2.255.776 3.385 2.32 3.385 4.627 0 2.288-1.13 3.822-3.385 4.6-2.269.776-4.933 1.167-8.03 1.167-3.136 0-5.829-.391-8.083-1.168-2.26-.777-3.385-2.311-3.385-4.6 0-2.306 1.125-3.85 3.385-4.626 2.254-.777 4.947-1.163 8.082-1.163m13.21-2.232H887.8v-3.238h9.59v-3.818h4.09v3.945h5.927c.334-.537.532-1.52.593-2.956.052-1.44.09-2.942.09-4.524h-17.917v-3.366h21.937v2.726a39.82 39.82 0 0 1-.15 4.175c-.133 1.38-.354 2.67-.688 3.884h2.937M796.068 1069.772h-3.898v-13.915h-3.088v13.915h-3.888v-4.274c-1.064.282-1.921.452-2.59.499-.673.056-1.402.132-2.188.207h-8.766v-23.81h10.46v3.323h-6.425v17.126h7.004c.716 0 1.318-.16 1.79-.504.475-.33.715-.8.715-1.403v-19.94h3.888v11.5h3.088v-11.5h3.898M827.062 1051.62h-3.644v9.674h-3.968v-20.237h3.968v7.254h3.644zm-19.193 2.462c1.262 0 2.161-.39 2.693-1.144.518-.748.8-1.567.8-2.42 0-.889-.282-1.703-.814-2.461-.541-.763-1.45-1.125-2.716-1.125-1.243 0-2.133.362-2.674 1.125-.541.758-.81 1.572-.81 2.462 0 .852.269 1.67.81 2.42.541.753 1.45 1.143 2.711 1.143m15.417 15.398h-21.725v-10.516h3.992v7.184h17.733zm-6.882-23.264h-2.617c.48.56.847 1.205 1.087 1.935.25.74.377 1.52.377 2.368 0 2-.688 3.643-2.053 4.914-1.36 1.276-3.15 1.916-5.366 1.916-2.208 0-3.987-.63-5.339-1.897-1.341-1.261-2.01-2.909-2.01-4.933 0-.847.127-1.629.377-2.368.24-.73.598-1.375 1.05-1.935h-2.439v-3.154h6.44v-2.838h3.987v2.838h6.506M854.661 1061.294h-3.992v-20.26h3.992zm-13.133-16.09h-7.25v8.069h7.25zm13.143 24.276h-22.398v-10.483h4.001v7.15h18.397zm-9.156-12.907H830.28v-14.697h15.234zM884.2 1055.678h-11.208v3.601h9.114v10.446h-4.03v-7.122h-18.849v-3.324h9.768v-3.6h-11.203v-3.329h19.498c.405-.885.64-1.869.701-2.951a80.48 80.48 0 0 0 .085-4.077h-17.912v-3.361h21.942v3.163c0 .697-.024 1.657-.052 2.89-.038 1.215-.273 2.67-.697 4.336h2.843M943.152 1069.443h-23.74v-10.253h3.959v6.915h19.78zm.64-12.946h-11.213v6.572h-3.992v-6.572h-11.209v-3.37h19.508a9.244 9.244 0 0 0 .74-3.47c.023-1.228.032-2.66.032-4.302h-17.912v-3.366h21.942v2.72c0 1.53-.047 2.995-.137 4.374-.09 1.38-.33 2.73-.706 4.044h2.947" style="stroke-width:4.70744" transform="matrix(2.32044 0 0 2.32044 -1476.042 -2378.006)"/></g><path fill="#e0ded6" d="m703.892 1060.899 4.194-4.807 1.6 2.345c-.626 1.765.32 4.585.32 4.585-.979.781-2.72 4.66-2.72 4.66l-1.756.372" style="stroke-width:4.70744" transform="matrix(2.32044 0 0 2.32044 -1476.042 -2378.006)"/><path fill="#e0ded6" d="m696.397 1069.96-1.652-1.93 5.574-3.643 5.328 3.719-1.75 1.93s-3.07 2.193-7.5-.076M693.676 1067.41l-2.113-.378-.5-1.28s-.056-1.238-.531-2.683c0 0 .433-3.018-.47-4.242l1.312-2.334 5.037 4.876-1.723 6.478s-.97 0-1.012-.438M705.035 1041.791c.627-5.065-1.478-6.699-1.478-6.699-2.005-1.61-5.32-.739-5.32-.739-.983.433-1.896 1.921-1.896 1.921-.669-.353-2.665.39-2.665.39-1.53.396-.588 2.642-.588 2.642 1.3-1.14 3.37-.126 3.37-.126.358.475-.216 2.664-.216 2.664l-.617 1.182-2.537 2.927.292 1.502s-.48.72 1.12 1.36l-.085 1.907s.208 1.874-3.125 4.538l.047.862 6.232.423 2.439-6.477 2.118 6.407 5.927-.5s.061-.258.259-1.36c0 0-2.514-1.294-3.103-3.408 0 0-1.063-1.817-1.614-2.716 0 0 1.873-.142 3.304-1.187 0 0-.353-1.901-2.038-3.86M636.538 1031.887c-.509 1.506 1.134 5.027 3.3 6.407.131.57.16 1.722.71 2.805.546 1.06 1.61 2.053 2.443 2.613-.103.97 1.907 3.017 3.493 4.09 1.728 4.58 5.372 4.722 5.372 4.722l.588.052s.033 1.21 1.04 1.869c.998.668 4.576 1.384 4.576 1.384l7.419-1.384s-.094 1.149 2.066 1.04c2.161-.112 7.509 2.952 7.509 2.952l2.146 1.37 2.585-.048s.955.913 1.92 1.341c.965.433 2.222.062 2.222.062l1.403-4.985 1.925-3.822.608-.984 2.49-3.173c-1.907-2.293-2.75-3.658-4.985-4.25-.65-.17-1.375-.49-1.6-.952-.547-1.125.715-3.111.715-3.111-.108-5.183-7.537-3.917-7.537-3.917-5.235.367-9.236-.108-9.236-.108.301.81-9.528-2.627-9.528-2.627s.405 1.04.768 2.095c-1.323.866-13.398.15-22.412-3.45M741.97 1035.733s13.397.146 22.412-3.446c.513 1.506-1.13 5.027-3.3 6.407-.263 1.125-1.478 4.279-3.154 5.409.108.974-1.906 3.022-3.497 4.09-1.723 4.58-5.362 4.731-5.362 4.731l-.593.048-1.036 1.874-4.58 1.379-7.34-2.071-2.96 1.139-6.69 3.54-1.68.739-3.05.593-2.462 1.427-3.545-.542.09-4.237-1.347-4.08-.82-.956-3.421-3.465c1.901-2.293 3.756-4.01 5.997-4.604.654-.174 1.3.15 1.52-.31.551-1.126-.362-3.498-.362-3.498.108-5.178 7.056-3.813 7.056-3.813 5.23.367 9.406-.207 9.406-.207-.302.819 9.165-1.916 9.165-1.916l-.447 1.77" style="stroke-width:4.70744" transform="matrix(2.32044 0 0 2.32044 -1476.042 -2378.006)"/><path fill="#fac612" d="M685.396 1039.376c1.092-9.142 7.833-8.2 7.833-8.2 1.61-2.905 2.721-3.752 2.721-3.752 4.317-3.413 8.271-.513 8.271-.513 2.396 1.525 3.38 4.077 3.38 4.077 4.477-.471 6.586 3.055 6.586 3.055 1.337.786 1.765 6.143 1.765 6.143.828.156 1.285 1.911 1.285 1.911.042 1.177-.475 1.398-.475 1.398-1.648.316-1.841.188-1.846.184-3.478 2-4.881 4.373-4.881 4.373l-.626.222-1.323-1.177c-.55-.39-.123-.9-.123-.9 4.28-4.434 4.27-5.752 4.27-5.752.669-1.61.264-2.65.264-2.65-.749-2.9-2.839-3.385-2.839-3.385-1.525-.819-4.006-.33-4.006-.33-1.06.391-1.3-.87-1.3-.87-.192-1.417-.795-1.845-.795-1.845-2.674-2.204-4.815-.74-4.815-.74-1.827.575-2.684 3.456-2.684 3.456l-.55.362c-3.507-.414-4.157.08-4.157.08-3.399 2.039-2.57 5.22-2.57 5.22.833 2.877 3.125 5.113 3.125 5.113.622.31.471 1.431.471 1.431l-1.949 1.248-3.596-3.008c-1.573-1.615-2.966-1.469-2.966-1.469-.08-1.22.664-2.75.664-2.75 1.106.434.866-.931.866-.931M726.384 1064.67s1.454 7.442-6.647 9.899c0 0 1.596 4.92-3.375 7.221 0 0 .574 4.397-2.67 5.81 0 0-3.558 1.256-5.493-1.041 0 0-4.185 3.87-8.055-.268 0 0-3.196 5.027-8.37 0 0 0-3.248 2.88-6.227 1.732 0 0-2.928-.16-2.514-6.285 0 0-5.988-1.75-2.062-7.611 0 0-6.972-.81-6.454-9.655 0 0-5.023-3.352-3.394-7.509 0 0 1.596.74 2.142.66 0 0 1.149 1.176 1.695 1.332 0 0 .098 2.73 3.078 3.596 0 0-.781 5.103.786 6.284 0 0 4.265 3.32 7.062-.094 0 0 .842-1.487 1.468-1.035.636.461.193 3.215.316 3.29l-.1 1.257s-1.077 1.996-1.948 2.392c0 0-1.775 2.316-1.695 3.102 0 0 .226 2.485 2.26 2.88 0 0-1.191 4.143 2.344 4.063 0 0 2.646 0 3.352-1.968 0 0 .833 2.241 3.347 1.77 0 0 2.834 1.003 3.154-4.335l-.541-4.896s-.627-1.365-.038-1.953c.588-.589 4.458-.217 4.618.25 0 0-.838.578-.913 3.323 0 0-.702 5.201 1.421 7.084 0 0 2.895 2.213 4.934-1.167 0 0 .607 2.095 3.276 1.944 0 0 3.333 0 1.916-4.336 0 0 2.203-1.19 2.443-1.897 0 0 1.398-1.685-.565-4.039 0 0-1.27-1.21-2.763-2.386 0 0 .306-2.142.15-3.399 0 0 5.95 3.7 9.086.565 0 0 1.906-.452 1.356-5.715 0 0 2.72-1.022 3.398-4.58 0 0 2.284-.711 2.81-1.182 0 0 1.23 4.44-2.588 6.896" style="stroke-width:4.70744" transform="matrix(2.32044 0 0 2.32044 -1476.042 -2378.006)"/><path fill="#fac612" d="m699.16 1059.675-2.41 1.436-4.006-4.025M699.853 1061.068l.084 3.003-4.66 3.13M703.698 1061.42l1.314 6.323-4.326-7.339M702.22 1056.86l5.296-.367-7.094 3.304M698.068 1056.295l1.747-4.345.047 6.877" style="stroke-width:4.70744" transform="matrix(2.32044 0 0 2.32044 -1476.042 -2378.006)"/><path fill="#c99d2c" d="M718.922 1043.105c.791 1.148.631-2.877.631-2.877 1.205-2.25 3.399-2.462 3.399-2.462 1.78-.212 4.034-.31 4.034-.31 1.412-.212.575-.636.575-.636-4.915.108-6.125.687-6.125.687-2.354.678-2.565 2.665-2.565 2.665.108 1.935.051 2.933.051 2.933M698.05 1037.456s.522-.212.574.419c0 0 .522 1.36 1.629.258l.725-.579s1.464-.414 1.628-1.303c0 0 .156-.523-.419 0 0 0-1.934 1.256-3.144.57 0 0-.26-.307-1.309 0 0 0-.626.894.316.635M673.773 1037.56s2.246.47 3.663.47c0 0 3.036-.212 3.926 2.302l.73 2.457s.936-1.878-.999-4.444c0 0-1.36-.941-3.973-.941l-3.403-.212.056.367" style="stroke-width:4.70744" transform="matrix(2.32044 0 0 2.32044 -1476.042 -2378.006)"/><path fill="#c99d2c" d="m702.329 1056.973 4.933-.42-6.661 3.009zm57.2-18.736c-16.27 1.991-19.46.052-19.46.052l2.08-2.24c8.577.423 20.976-3.324 20.976-3.324 1.309-.466 1.036.523 1.036.523-.683 4.5-4.632 4.99-4.632 4.99m.786.785c-.838 2.98-1.827 3.715-1.827 3.715-.946 1.304-2.043 1.05-2.043 1.05-10.62 1.04-19.987-3.089-19.987-3.089.517-.419 3.097-2.057 3.097-2.057 9.264 2.038 19.974.17 19.974.17.838-.15.786.212.786.212m-11.769 8.845c-6.967-.263-15.28-5.079-15.28-5.079-.523-1.304 2.75-1.784 2.75-1.784.88.381 5.657 2.175 10.661 2.81 5.207.655 10.813.546 10.813.546-1.045 4.868-8.944 3.507-8.944 3.507m5.032 1.526c-6.001 9.457-23.207-3.738-23.207-3.738 1.144-.782 2.24-2.41 2.24-2.41s6.14 2.523 9.35 3.817c3.215 1.29 10.874 1.587 10.874 1.587 1.097-.048.743.743.743.743m-6.044 4.59c-6.355 5.894-20.2-5.776-20.2-5.776 1.21-.63 2.57-2.325 2.57-2.325 1.615 1.7 10.428 5.875 11.576 6.237 1.144.372 5.706 1.36 5.706 1.36.744-.117.348.504.348.504m-13.223.589c-4.67 1.064-9.302-3.762-9.302-3.762l2.213-1.868c.197.513 7.348 4.99 7.348 4.99.588.47-.259.64-.259.64m-4.124 1.704c-3.21 1.035-7.325-2.584-8.238-3.47-.216-.484.137-.654.744-1.026.607-.376 1.375-.574 1.375-.574.823 1.21 6.36 4.076 6.36 4.076.94.551-.24.994-.24.994m-4.143 8.28s1.515 7.428-6.595 9.89c0 0 1.883 4.972-3.088 7.274 0 0 .579 4.392-2.67 5.809 0 0-3.554 1.256-5.488-1.05 0 0-4.19 3.879-8.06-.26 0 0-3.191 5.024-8.374 0 0 0-3.244 2.877-6.223 1.729 0 0-2.933-.16-2.514-6.28 0 0-5.494-1.785-1.568-7.645 0 0-7.277-.782-6.75-9.617 0 0-5.131-3.201-3.507-7.354 0 0 1.492.702 2.038.622 0 0 1.022 1.261 1.572 1.417 0 0 .08 2.669 3.06 3.53 0 0-.626 5.179.946 6.355 5.423 3.625 6.459-.048 8.328-1.134.654.17.146 2.862.381 3.022l-.155 1.252s-1.022 1.963-1.888 2.359c0 0-1.798 2.433-1.723 3.22 0 0 .15 2.749 2.194 3.135 0 0-1.017 4.086 2.509 4.006 0 0 2.669.08 3.38-1.883 0 0 .861 2.269 3.37 1.798 0 0 3.004.546 3.3-4.627.254-4.472-.63-5.838-.63-5.838s1.092.26 1.958.236c.668 0 2.085-.31 2.085-.31s-.725 1.995-.744 2.616c0 0-.71 5.414 1.417 7.302 0 0 3.14 2.193 5.183-1.177 0 0 .697 2.189 3.37 2.038 0 0 3.531-.156 2.12-4.477 0 0 2.117-1.176 2.357-1.883 0 0 1.328-1.963-.635-4.316 0 0-1.097-1.172-2.59-2.354 0 0 .236-1.808.08-3.06 0 0 5.965 3.686 9.105.55 0 0 1.963-.55 1.412-5.808 0 0 2.57-1.022 3.244-4.58 0 0 2.146-.626 2.664-1.097 0 0 .951 4.133-2.871 6.59m-55.548-8.61s-.23-.31.395-.63c0 0 2.514-1.248 6.28-4.152 0 0 2.123 1.144 2.175 1.883 0 0-3.116 2.98-6.807 3.45 0 0-1.723 0-2.043-.55m-1.252-.938s-1.803.787-3.37-.786c0 0 3.732-1.661 7.733-5.357l2.783 1.902s-3.851 3.535-7.146 4.241m-11.571.4s-3.342.147-4.364-2.602c0 0 1.102-.076 1.572-.076 0 0 4.096-.716 7.942-2.566 2.758-1.332 5.663-3.055 7.899-4.533 0 0 1.177 1.45 2.438 2.862 0 0-5.21 6.524-15.487 6.915m-5.494-3.079s-3.653 0-4.905-4.152c0 0 4.868.928 11.458-1.19 0 0 6.058-2.293 9.307-3.917l2.34 2.076s-3.56 2.495-7.707 4.524c-3.097 1.52-6.096 2.725-10.493 2.66m-6.694-5.669s-2.273-1.628-2.123-2.805c0 0 7.909.946 13.642-.546 0 0 7.184-2.316 7.88-2.796.806.184 2.006.833 2.637.913l.41 1.158s-11.934 6.247-19.64 5.216c0 0-1.474-.112-2.806-1.14m-5.324-8.12s5.837 1.328 11.934 1.262c3.163-.048 6.548-.494 9.556-1.356l2.786 1.652s-9.165 5.019-19.677 3.211c0 0-4.674-.297-4.599-4.769m-3.29-6.03s14.998 4.058 22.299 3.192l2.104 2.287s-9.02 2.89-20.007.302c0 0-4.316-1.154-4.396-5.78m21.54.912s3.654 1.808 8.79 2.622c0 0 2 3.107 3.888 4.793 0 0-2.128.57-4.816-.325-2.476-.82-5.432-2.928-7.861-7.09m9.74 7.918s1.934.132 3.464-.226c0 0 4.067 2.707 5.828 2.858 0 0-3.243 1.642-5.865.979-1.318-.339-2.726-1.765-3.427-3.61m8.04-5.057c2.904-.508 5.766.471 5.766.471 3.3 1.102 1.841 4.001 1.841 4.001-2.589 6.482 4.44 8.836 4.44 8.836-.043.164-.43 2.627-2.26 3.818-1.752 1.144-3.258 1.036-3.653.814l-1.37-1.332c-.01-.09 2.391-.941 3.158-1.327.763-.386 2.321-1.389 2.321-1.389.311-.584-.357-.348-.357-.348-2.486 2.043-5.155 2.843-5.824 2.768-.659-.066-2.697-1.893-2.697-1.893 3.808-.114 6.557-1.86 6.557-1.86.909-.39.471-.71.471-.71l-.819.164c-2.853 1.652-4.99 2.175-6.378 1.973-1.803-.264-2.415-1.582-2.415-1.582 4.942-.16 7.89-2.674 7.89-2.674l-.198-.546c-.274.508-3.969 2.217-3.969 2.217-1.803.664-3.333.843-4.9.461-1.568-.376-2.316-2.838-2.316-2.838 4.792.861 6.284-1.177 6.284-1.177 1.332.048 2.114-.626 2.114-.626 1.492-.899.668-2.471.668-2.471-1.021-1.257-2.113-.122-2.113-.122l-.48 1.026c-3.922-.636-6.982-4.745-6.982-4.745-.668-.518-.546.348-.546.348 3.884 4.788 7.965 5.065 7.965 5.065l.273-.823c.316-1.069 1.14-.674 1.14-.674.818 1.064-.16 1.846-.16 1.846-1.53 1.059-3.494 0-3.494 0-5.375-2.156-7.884-6.91-7.884-6.91 5.606.56 7.927.24 7.927.24m9.462 3.374c1.092-9.142 7.645-8.242 7.645-8.242 1.61-2.9 2.749-3.804 2.749-3.804 4.312-3.417 7.89-.513 7.89-.513 2.39 1.534 3.45 4.081 3.45 4.081 4.472-.47 6.355 2.867 6.355 2.867 1.337.786 1.812 6.275 1.812 6.275.82.164 1.483 1.733 1.483 1.733.043 1.181-.226 1.016-.226 1.016-1.652.32-1.812.33-1.821.32-3.484 1.996-5.132 4.35-5.132 4.35l-.39.235-1.14-1.054c-.55-.39-.273-.71-.273-.71 4.28-4.43 4.397-5.725 4.397-5.725.664-1.615.278-2.75.278-2.75-.753-2.904-3.065-3.69-3.065-3.69-1.53-.819-3.963-.156-3.963-.156-1.064.39-1.257-.664-1.257-.664-.193-1.417-.796-1.854-.796-1.854-2.669-2.19-5.24-.885-5.24-.885-1.83.579-2.56 3.511-2.56 3.511l-.259.094c-3.507-.41-4.345.164-4.345.164-3.403 2.039-2.617 5.489-2.617 5.489.838 2.886 3.14 5.211 3.14 5.211.63.316.353 1.252.353 1.252l-1.723 1.14-3.3-2.905c-1.568-1.605-3.14-1.374-3.14-1.374-.075-1.21.669-2.75.669-2.75 1.101.433 1.026-.663 1.026-.663m33.037 14.795c0-.588.25-.612.795-.974.55-.358 1.168-.744 1.52-.513l6.243 4.114c1.134.668-.946 1.177-.946 1.177-3.489.475-7.612-3.804-7.612-3.804m-2.985 4.081c.08-.475.395-.235.395-.235.471 1.06 2.75 1.92 2.75 1.92.588.514-.043.787-.043.787-2.236.39-3.215-.589-3.215-.589-.353-.663.113-1.883.113-1.883m1.85-3.926c.546.118 1.525 1.22 1.525 1.22 1.455 1.487 3.926 2.82 3.926 2.82.744.48.513.63.513.63-1.69 1.022-3.61.396-3.61.396-5.3-1.77-4.755-4.868-4.755-4.868l2.401-.198m-7.518 25.806c1.224 0 1.63 1.79 1.63 1.79l.898-.872s1.14 1.295-.198 2.514c0 0-1.84 1.14-3.295-.278l-.894-1.327s.974-1.812 1.86-1.827m-12.202-.066c-.043 2.232-1.22 3.295-1.22 3.295-2.076 1.879-4.232-1.219-4.232-1.219.824-2.434 1.921-1.803 1.921-1.803l1.3 1.685c.898-.588 1.209-2.47 1.209-2.47-.155-2.237-1.84-1.766-1.84-1.766l2.47-3.262c.434 1.059.392 5.54.392 5.54m4.533-5.644 2.466 3.253s-1.685-.466-1.835 1.77c0 0 .306 1.878 1.21 2.471l1.299-1.69s1.162-.682 1.981 1.751c0 0-2.221 3.16-4.302 1.276 0 0-1.172-1.064-1.215-3.295 0 0-.042-4.477.396-5.536m-5.894-4.787-1.648-1.93 5.456-3.489 5.14 3.569-1.449 1.925s-3.06 2.198-7.499-.076m-9.509 10.982 1.186.73s.495-1.271.989-1.389c.494-.122 1.883-.395 2.076 1.252 0 0 .48 2.354-1.605 2.632 0 0-2.001.546-2.787-.71 0 0-.687-2.242.141-2.515m8.963-44.82s-4.43-.734-2.99 3.955c.42-.579.923-1.045 1.366-1.106.438-.062 1.38-.084 1.812.739 0 0 .598 1.44-.899 3.088 0 0-1.483 2.005-2.269 2.438 0 0-2.909-2.589-3.455-5.102 0 0-.866-2.59 1.294-4.595 0 0 2.119-1.92 5.65-.23zm11.26 9.896s-.786-1.643-1.567-2.231c0 0 .155-5.739 0-6.163 0 0-.509-1.765-.984-2.278 0 0 3.455-2.358 6.284.513 0 0 2.9 2.627.076 5.88 0 0-3.103 4.048-3.809 4.279m2.905 2.594c2.047-2.905 5.498-4.557 5.498-4.557 1.295-.31 1.332.433 1.332.433-.277 2.514-5.493 5.145-5.493 5.145l-1.337-1.021m-6.13 12.319 4.12-4.802 1.421 2.335c-.626 1.76-.06 4.406-.06 4.406-.985.786-2.293 4.694-2.293 4.694l-1.61.39zm-.343.668 1.3 5.842-3.927-6.788zm-.028-17.182c-.904-.395-1.153-2.165-1.153-2.165l.946-1.135 1.214 1.295c.08.668-1.007 2.005-1.007 2.005m-2.886.108c-.786-.663-1.007-2.076-1.007-2.076l1.139-1.299c.466.904 1.092 1.3 1.092 1.3-.08 1.054-1.224 2.075-1.224 2.075m-2.933-.235c-.706-.428-.941-2.278-.941-2.278.508-.108 1.375-1.093 1.375-1.093l.936 1.45c-.508 1.493-1.37 1.921-1.37 1.921m-.273 12.169-6.213-.448.169-.616c3.338-2.67 3.427-4.505 3.427-4.505l2.486-2.514c-1.573-.862-3.404-.47-3.404-.47l-.626-1.889 2.118-2.273c.626-.315.98-.664.98-.664.668 1.252 1.332 1.798 1.332 1.798.555-.156 1.534-1.6 1.534-1.6 1.14 2.038 1.413 1.996 1.413 1.996.668-.316 1.454-1.845 1.454-1.845a4.405 4.405 0 0 0 1.492 1.572l1.017-1.332c1.685 1.958 1.94 4.73 1.94 4.73-2.91-.24-3.997.048-3.997.048.55.9 2.523 2.81 2.523 2.81.589 2.114 3.112 3.409 3.112 3.409-.203 1.101-.268 1.36-.268 1.36l-5.701.49-2.32-6.675zm2.35 4.67-.08 2.861-4.355 3.103zm-1.686-4.826 1.648-4.203-.113 6.557zm.829 3.413-2.241 1.29-3.964-3.884zm-8.445 3.375s.437-3.026-.466-4.236l1.294-2.203 4.99 4.872-1.77 6.28-2.387-1.271c-.14-.627-.847-2.585-1.661-3.442m7.38-31.28s2.237-2.039 5.099.083c0 0 1.182 1.257.984 2.82 0 0-3.686-2.937-7.141.16 0 0-1.177-.861 1.059-3.064m.197 3.102s3.178-1.017 5.179.584c0 0 1.963 1.186 1.332 6.242 0 0-.782-.424-1.37-1.605 0 0-.63 1.605-1.205 1.826-.593-.24-.636-.452-1.266-1.869 0 0-.942 1.671-1.37 1.775-.41-.273-1.102-1.186-1.14-1.813 0 0-.555 1.064-1.416 1.29l-.01-1.925c-.33-.39-2.373-1.365-3.668-.226 0 0-.31-1.78.758-2.32 1.069-.533 1.893-.457 2.373-.227 0 0 .819-1.299 1.803-1.732m-9.66 14.245s-4.74-1.92-4.472-5.103c0 0 2.712-.23 5.574 3.728 0 0 .315.904-1.102 1.375m-5.724 11.848s-1.21-.122-1.84-.668c0 0 2.207-1.765 2.993-.984l.165.946s-.692.316-1.318.706m1.765-6.388s1.394.386.156 2.523c0 0-1.135 2.302-5.452 2.533 0 0-1.963.084-2.744-.701 0 0-.32-.24.15-.396 0 0 4.557-1.412 5.814-3.14 0 0 1.14-.974 2.076-.819m-2.711.509s-2.51 2.509-5.329 2.749c0 0-1.026.466-2.358-.164 0 0-.707-.396-.156-.786 0 0 5.56-3.446 6.228-3.545.636-.104 2.01.88 1.615 1.746m-6.435 3.927s2.043 1.722 4.792 1.092c0 0 1.021 1.807 3.535 1.492 0 0 1.629 4.09 3.041 5.978 0 0-1.789 2.66-4.613 2.26 0 0-3.455.315-3.535-3.997v-3.53s-3.22-.711-3.22-3.295m11.072 20.402c.31.508.033.706.033.706l-.857-.048c-1.615-1.135-.909-2.975-.909-2.975 1.573-3.183 2.83-3.46 2.83-3.46.55 1.652 1.332 2.594 1.332 2.594.588.866.508 1.722.508 1.722-.508-.433-1.685-.466-1.685-.466-1.84.156-1.252 1.921-1.252 1.921m24.756-1.375-1.097.08-.037-.47s1.134-.744 1.454-1.53c0 0 1.14-2.01 1.271-2.67 0 0 2.81 1.526 2.533 3.644-.076.584-.42 1.784-2.1 2.73.028-.607-.772-2.325-2.024-1.784m8.944-8.464c-3.879 1.723-8.341-1.629-8.341-1.629 1.341-2.862 3.417-6.689 3.417-6.689 4.604 1.78 5.861-.781 5.861-.781 1.464.781 4.133-1.21 4.133-1.21.104 2.876-3.192 4.081-3.192 4.081 1.464 4.656-1.878 6.228-1.878 6.228m3.761-33.328c5.23.371 8.79 0 8.79 0-2.246 6.068-8.841 6.91-8.841 6.91-3.818.73-3.244-1.883-3.244-1.883.518-1.313 1.568-.842 1.568-.842.734.734-.052 1.727-.052 1.727 5.131.786 8.06-3.978 8.06-3.978.31-.786-.264-.47-.264-.47-3.296 4.448-7.062 4.03-7.062 4.03.523-.368-.108-1.517-.108-1.517-1.46-1.624-2.56.678-2.56.678-.735 2.985 2.09 2.773 2.09 2.773 1.944 2.146 5.813 1.935 5.813 1.935 1.36-.104.626.63.626.63-.913 1.064-1.737 1.742-2.772 1.954-3.362.673-7.043-2.293-7.043-2.293-1.05-.207-.39.34-.39.34 4.655 2.876 6.98 2.31 6.98 2.31 1.15-.051-.46 1.437-.46 1.437-3.395 2.471-7.824-2.279-7.824-2.279l-.245.26c.216.183.72.752 1.337 1.124 1.402.857 3.733 1.84 3.733 1.84.838.363-.909 1.324-.909 1.324-3.766 1.36-6.52-2.594-6.52-2.594-.682-.32-.433.292-.433.292 1.2 2.043 4.929 3.06 4.929 3.06-1.163.922-2.35 1.402-3.159 1.247-1.29-.254-1.873-1.643-1.873-1.643l-2.359-2.716c8.794-3.248 5.334-9.89 5.334-9.89.108-5.179 6.858-3.766 6.858-3.766m6.643 6.642c-3.507.946-4.025.212-4.025.212.941-.104 2.72-1.413 2.72-1.413 1.413.415 3.48.222 3.48.222-.895 1.831-1.898 3.28-3.894 3.276-1.99 0-5.47-1.304-5.47-1.304 1.05-.056 2.015-.518 2.015-.518 2.613 1.205 5.442 0 5.442 0 .518-.63-.268-.475-.268-.475m11.665-8.582c-4.6 7.956-12.395 6.91-12.395 6.91 2.566-1.675 3.507-5.074 3.507-5.074 4.237-.156 8.888-1.836 8.888-1.836m22.713-2.693c-15.224 4.868-22.76 3.926-22.76 3.926.706-.866.946-2.353.946-2.353-6.675 3.61-21.033 2.269-21.033 2.269-4.321-.466-5.423 2.674-5.423 2.674-1.568-8.634-8.473-8.319-8.473-8.319-8.634-11.382-15.62.231-15.62.231-7.456 1.417-7.927 8.403-7.927 8.403-1.332-3.61-7.847-2.825-7.847-2.825-1.097.467-9.104-.08-9.104-.08-5.885-1.02-10.05-2.984-10.05-2.984-.231 1.257 1.02 2.594 1.02 2.594-9.339 1.177-22.524-3.776-22.524-3.776-.311 5.033 3.295 7.382 3.295 7.382.315 3.85 2.669 4.401 2.669 4.401.475 3.446 3.926 4.943 3.926 4.943 1.262 4.627 5.734 4.943 5.734 4.943 3.526 5.969 13.025 1.647 13.025 1.647 1.022 1.102 4.322 1.102 4.322 1.102.07.546.936.937.936.937-1.257 5.809 3.536 8.087 3.536 8.087-.711 7.847 5.804 9.806 5.804 9.806-2.274 6.284 2.669 8.247 2.669 8.247-.706 4.392 2.354 5.564 2.354 5.564 3.295 2.128 7.306-.546 7.306-.546 5.484 3.616 8.553-.156 8.553-.156 3.606 3.3 7.767.316 7.767.316 3.536 2.043 6.35.55 6.35.55 3.927-2.043 2.99-6.124 2.99-6.124 5.258-2.67 3.535-7.687 3.535-7.687 7.687-2.674 6.51-10.05 6.51-10.05 4.157-3.456 2.9-7.768 2.9-7.768 2.199-.706 2.359-1.572 2.359-1.572 2.669.395 3.135-1.022 3.135-1.022 10.836 5.343 12.96-1.172 12.96-1.172 5.093-.706 6.04-4.787 6.04-4.787 4.236-1.883 3.845-4.712 3.845-4.712 3.686-3.14 2.9-5.028 2.9-5.028 4.477-3.295 3.375-7.061 3.375-7.061" style="stroke-width:4.70744" transform="matrix(2.32044 0 0 2.32044 -1476.042 -2378.006)"/><path fill="#e0ded6" d="M705.549 1078.288s-1.38-.344-1.893.541c-.522.89.513 2.73.513 2.73s.513-1.473 1.478-1.473 1.888 1.205 2.199 1.765c.282-.17 1.294-1.892 2.047-1.854.636.048 1.813.753 1.888 1.562 0 0 1.478-1.18.81-2.584-.669-1.403-3.324-.216-3.324-.216l-1.143-.626-1.333.55M711.315 1073.03c-.522.194-1.073-1.125-.979-1.544l.47-.457.34.697c.188-.142.254-.786.25-1.248l.531-.447c.122.202-.085 2.801-.612 2.999M709.216 1074.602c-.528.194-1.215-.904-1.125-1.323l.593-.485.357.509c.189-.146.24-.556.236-1.022l.541-.362c.123.202-.08 2.485-.602 2.683M704.739 1076.165c-.527.198-1.346-.98-1.257-1.403l.48-.235.353.536.334-.348.58.052c.127.198.037 1.205-.49 1.398M706.815 1075.36c-.532.194-1.078-.513-.989-.937.094-.424.377-.292.377-.292l.466.17c.184-.136.216-.048.212-.494l.518-.273c.122.198-.057 1.629-.584 1.826M708.185 1076.381c-.532.198-1.135-.381-1.045-.805l.404-.499.415.235c.188-.142.245-.15.24-.607l.579.066c.117.203-.07 1.412-.593 1.61M710.83 1075.068c-.527.194-1.073-.518-.988-.937l.376-.292.372.084c.189-.132.198 0 .193-.475l.631-.207c.122.202-.056 1.629-.584 1.826M709.762 1077.214c-.452.17-.928-.447-.852-.805l.33-.254.315.08.188-.683.579-.094c.113.174-.104 1.591-.56 1.756M707.455 1077.977l-.753-.767.381-.226.212.192.127-.344h.537l-.504 1.168M706.024 1077.6c-.523.199-1.191-.649-1.097-1.073l.457-.084.494.1c.188-.136.047 0 .042-.456l.4-.297c.128.198.231 1.615-.296 1.812M694.787 1078.457s1.008-.192 1.52.692c.519.89-.578 2.444-.578 2.444s-.725-1.507-1.68-1.507c-.961 0-1.794.264-2.025 1.389-.33-1.215-1.855-1.648-2.302-1.648-.442 0-1.671.4-1.746 1.21 0 0-1.817-1.28-1.149-2.683.66-1.403 3.022.198 3.022.198l1.794-.537 1.742.74M687.971 1070.328l.532.442c-.01.466.061 1.111.25 1.252l.338-.696.466.456c.09.414-.452 1.737-.974 1.544-.527-.198-.734-2.796-.612-2.998M690.136 1072.098l.542.367c-.004.466.047.88.23 1.017l.363-.504s.499.062.588.485c.095.423-.593 1.516-1.115 1.318-.532-.194-.73-2.481-.608-2.683M694.467 1074.913l.58-.052.324.343.363-.532.475.24c.094.42-.725 1.596-1.257 1.403-.522-.198-.607-1.205-.485-1.402M692.297 1073.538l.513.273c-.004.456.028.353.217.494l.461-.174.381.292c.146.678-.15 1.27-.993.937-.518-.212-.701-1.624-.579-1.822M690.955 1074.997l.58-.08c-.01.471.051.476.24.612l.414-.235.4.508c.09.42-.518.998-1.04.805-.528-.198-.716-1.412-.594-1.61M688.352 1073.5l.626.212c-.004.462.01.335.198.471l.367-.084.382.292c.089.419-.462 1.134-.989.937-.527-.192-.701-1.625-.584-1.827M689.463 1075.665l.58.09.188.688.315-.08.325.25c.08.362-.396.974-.847.804-.457-.17-.669-1.586-.56-1.751M691.883 1076.89h.532l.136.339.208-.198.386.226-.763.772-.5-1.163M693.46 1075.897l.405.296c-.004.466-.142.325.047.461l.49-.104.456.09c.094.42-.57 1.267-1.102 1.069-.522-.192-.414-1.61-.296-1.812" style="stroke-width:4.70744" transform="matrix(2.32044 0 0 2.32044 -1476.042 -2378.006)"/><path fill="#c99d2c" d="M700.714 1047.558c.73-1.031 2.59-.753 3.964-.287s2.64 2.41 2.203 2.655c-.429.235-3.413-1.347-3.898-1.28l3.606 1.967c.07.301-1.38.781-2.82.221-1.436-.555-3.12-2.09-3.055-3.276" style="stroke-width:4.70744" transform="matrix(2.32044 0 0 2.32044 -1476.042 -2378.006)"/><path fill="#f8c213" d="M701.213 1047.614c.654-.918 2.189-.565 3.413-.15 1.224.42 2.528 2.137 2.137 2.354-.39.212-3.347-1.497-3.907-1.2.118.475 3.526 1.699 3.592 1.972.065.264-1.158.574-2.439.07-1.285-.494-2.853-1.991-2.796-3.046" style="stroke-width:4.70744" transform="matrix(2.32044 0 0 2.32044 -1476.042 -2378.006)"/><path fill="#c99d2c" d="M705.572 1046.95c1.12-.706 2.905.222 4.048 1.23 1.15.997 1.606 3.393 1.083 3.45-.518.056-2.773-2.67-3.276-2.801l2.72 3.356c-.051.316-1.426.34-2.603-.777-1.172-1.12-2.504-3.337-1.972-4.458" style="stroke-width:4.70744" transform="matrix(2.32044 0 0 2.32044 -1476.042 -2378.006)"/><path fill="#f8c213" d="M706.015 1047.332c.993-.63 2.287.277 3.309 1.167 1.021.895 1.775 2.928 1.309 2.98-.457.048-2.655-2.792-3.314-2.726-.076.509 2.744 3.06 2.697 3.352-.043.283-1.356.09-2.396-.908-1.05-.994-2.086-2.867-1.605-3.865" style="stroke-width:4.70744" transform="matrix(2.32044 0 0 2.32044 -1476.042 -2378.006)"/><path fill="#c99d2c" d="M704.89 1050.603c.979-.79 3.22-.098 4.49.74 1.267.847 1.827 3.055 1.323 3.158-.49.108-3.111-2.269-3.61-2.344l3.154 2.928c0 .315-1.333.475-2.646-.48-1.313-.946-3.05-2.876-2.712-4.002" style="stroke-width:4.70744" transform="matrix(2.32044 0 0 2.32044 -1476.042 -2378.006)"/><path fill="#f8c213" d="M705.483 1050.867c.866-.697 2.405-.132 3.535.621 1.134.744 2.034 2.783 1.596 2.877-.438.098-2.764-2.27-3.39-2.152.004.504 2.886 2.533 2.886 2.81.004.279-1.327.077-2.5-.771-1.172-.843-2.433-2.382-2.127-3.385" style="stroke-width:4.70744" transform="matrix(2.32044 0 0 2.32044 -1476.042 -2378.006)"/><path fill="#c99d2c" d="M711.099 1049.87c1.355-.095 2.791 1.595 3.389 3.125.603 1.534-.306 4.03-.814 3.818-.504-.217-1.342-3.94-1.742-4.327l.974 4.557c-.188.278-1.468-.41-2.043-2.066-.574-1.662-.767-4.322.236-5.108" style="stroke-width:4.70744" transform="matrix(2.32044 0 0 2.32044 -1476.042 -2378.006)"/><path fill="#f8c213" d="M711.31 1050.345c1.206-.084 2.039 1.412 2.57 2.777.533 1.37.25 3.7-.206 3.507-.448-.188-1.173-3.992-1.808-4.27-.306.438 1.13 4.294.96 4.538-.174.255-1.29-.607-1.803-2.085-.508-1.473-.607-3.77.287-4.467" style="stroke-width:4.70744" transform="matrix(2.32044 0 0 2.32044 -1476.042 -2378.006)"/><path fill="#c99d2c" d="M708.232 1053.047c1.243-.396 2.735.772 3.695 2.104s1.384 2.97.847 2.876c-.522-.08-2.786-2.363-3.262-2.64l2.1 4.142c-.113.306-1.483-.062-2.448-1.516-.975-1.455-1.667-3.992-.932-4.966" style="stroke-width:4.70744" transform="matrix(2.32044 0 0 2.32044 -1476.042 -2378.006)"/><path fill="#f8c213" d="M708.373 1053.485c1.11-.353 2.434.814 3.286 2 .857 1.186 1.04 3.55.565 3.47-.466-.08-2.142-3.555-2.801-3.677-.174.494 2.17 3.855 2.076 4.133-.1.273-1.36-.292-2.227-1.591-.861-1.3-1.558-3.465-.899-4.335" style="stroke-width:4.70744" transform="matrix(2.32044 0 0 2.32044 -1476.042 -2378.006)"/><path fill="#c99d2c" d="M714.77 1055.782c1.158.668 1.229 2.466.885 4.119-.343 1.638-2.212 3.69-2.513 3.224-.292-.456 1.05-4.119.927-4.66l-1.68 4.44c-.307.131-.98-1.164-.547-2.9.433-1.733 1.68-4.106 2.928-4.223" style="stroke-width:4.70744" transform="matrix(2.32044 0 0 2.32044 -1476.042 -2378.006)"/><path fill="#f8c213" d="M714.719 1056.285c1.035.594.838 2.533.532 3.997-.302 1.469-1.742 3.102-2.006 2.688-.263-.405 1.205-4.067.838-4.656-.485.212-1.407 4.303-1.68 4.425-.278.112-.72-1.228-.34-2.777.387-1.549 1.55-3.573 2.656-3.677" style="stroke-width:4.70744" transform="matrix(2.32044 0 0 2.32044 -1476.042 -2378.006)"/><path fill="#c99d2c" d="M710.011 1057.684c1.163 0 2.076 1.59 2.528 2.984.452 1.393-.23 3.54-.654 3.324l-1.304-3.927.645 4.077c-.18.236-1.243-.456-1.667-1.953-.419-1.497-.438-3.88.452-4.505" style="stroke-width:4.70744" transform="matrix(2.32044 0 0 2.32044 -1476.042 -2378.006)"/><path fill="#f8c213" d="M710.138 1058.135c1.036 0 1.7 1.366 2.1 2.608.4 1.234.033 3.281-.344 3.088-.372-.198-.838-3.605-1.365-3.888l.63 4.072c-.16.207-1.077-.622-1.454-1.958-.372-1.332-.362-3.366.433-3.922" style="stroke-width:4.70744" transform="matrix(2.32044 0 0 2.32044 -1476.042 -2378.006)"/><path fill="#c99d2c" d="M715.561 1062.292c.626 1.262.061 2.796-1.106 3.95-1.393 1.374-4.397 2.123-4.406 1.586-.014-.532 3.15-3.04 3.328-3.55l-3.662 2.825c-.32-.048-.217-1.605 1.03-2.825 1.243-1.228 3.724-2.527 4.816-1.986" style="stroke-width:4.70744" transform="matrix(2.32044 0 0 2.32044 -1476.042 -2378.006)"/><path fill="#f8c213" d="M715.255 1062.66c.551 1.025-.49 2.419-1.487 3.483-1.008 1.064-3.747 1.864-3.762 1.384-.01-.476 3.465-2.688 3.46-3.366-.508-.07-3.37 2.857-3.653 2.815-.291-.048.029-1.393 1.135-2.48 1.11-1.093 3.328-2.312 4.307-1.837" style="stroke-width:4.70744" transform="matrix(2.32044 0 0 2.32044 -1476.042 -2378.006)"/><path fill="#c99d2c" d="M709.931 1062.546c.984.527 1.215 2.236.965 3.62-.254 1.384-1.925 2.721-2.18 2.34-.254-.372.782-3.455.674-3.907l-1.309 3.742c-.254.118-.843-.946-.518-2.4.325-1.465 1.333-3.272 2.368-3.395" style="stroke-width:4.70744" transform="matrix(2.32044 0 0 2.32044 -1476.042 -2378.006)"/><path fill="#f8c213" d="M709.922 1062.965c.875.47.748 2 .527 3.23-.221 1.228-1.384 2.72-1.61 2.382-.23-.335.918-3.423.598-3.908l-1.309 3.729c-.23.108-.63-1.012-.343-2.312.287-1.299 1.219-3.013 2.137-3.12" style="stroke-width:4.70744" transform="matrix(2.32044 0 0 2.32044 -1476.042 -2378.006)"/><path fill="#c99d2c" d="M707.295 1066.472c.71.617.508 2.151.056 3.239-.46 1.092-2 2.061-2.146 1.699l1.257-3.093-1.747 2.839c-.235.052-.522-.928.004-2.067.532-1.144 1.7-2.702 2.575-2.617" style="stroke-width:4.70744" transform="matrix(2.32044 0 0 2.32044 -1476.042 -2378.006)"/><path fill="#f8c213" d="M707.253 1066.867c.63.546.48 1.864.075 2.839-.41.97-1.794 1.972-1.92 1.647-.128-.31 1.374-2.645 1.2-3.097l-1.751 2.824c-.203.048-.335-.941.14-1.958.467-1.017 1.474-2.33 2.256-2.255" style="stroke-width:4.70744" transform="matrix(2.32044 0 0 2.32044 -1476.042 -2378.006)"/><path fill="#c99d2c" d="M711.598 1067.706c.428.937-.598 2.273-1.61 3.248-1.008.974-3.074 1.365-3.046.927.028-.438 2.64-2.349 2.824-2.777l-3.525 2.433c-.264-.048.127-1.162 1.158-2.24 1.327-1.384 3.337-2.048 4.199-1.591" style="stroke-width:4.70744" transform="matrix(2.32044 0 0 2.32044 -1476.042 -2378.006)"/><path fill="#f8c213" d="M711.226 1067.903c.386.848-.462 2.076-1.356 2.947-.894.866-2.815 1.36-2.787.965.024-.386 2.721-2.25 2.768-2.8l-3.2 2.287c-.232-.048.117-1.149 1.105-2.034.989-.88 2.707-1.765 3.47-1.365" style="stroke-width:4.70744" transform="matrix(2.32044 0 0 2.32044 -1476.042 -2378.006)"/><path fill="#c99d2c" d="M708.222 1072.206c-.282.81-1.704 1.045-2.857 1.045-1.158 0-2.608-.951-2.34-1.196l3.263-.048-3.225-.466c-.127-.18.97-.87 2.189-.828 1.229.048 2.72.72 2.97 1.478" style="stroke-width:4.70744" transform="matrix(2.32044 0 0 2.32044 -1476.042 -2378.006)"/><path fill="#f8c213" d="M707.841 1072.15c-.259.715-1.46.97-2.485.97-1.036 0-2.458-.806-2.213-1.027l3.243-.076-3.2-.48c-.118-.156.72-.607 1.816-.565 1.088.048 2.613.494 2.839 1.177" style="stroke-width:4.70744" transform="matrix(2.32044 0 0 2.32044 -1476.042 -2378.006)"/><path fill="#c99d2c" d="M699.09 1047.614c-.73-1.03-2.702-.81-4.081-.339-1.375.462-2.641 2.406-2.208 2.65.438.236 3.417-1.346 3.907-1.275l-3.61 1.968c-.076.296 1.13.81 2.574.254 1.436-.556 3.484-2.076 3.418-3.258" style="stroke-width:4.70744" transform="matrix(2.32044 0 0 2.32044 -1476.042 -2378.006)"/><path fill="#f8c213" d="M698.652 1047.68c-.65-.923-2.368-.63-3.592-.216-1.224.414-2.528 2.137-2.132 2.349.381.216 3.342-1.488 3.902-1.2-.117.48-3.525 1.703-3.587 1.972-.066.273 1.144.452 2.43-.056 1.284-.49 3.04-1.794 2.98-2.848" style="stroke-width:4.70744" transform="matrix(2.32044 0 0 2.32044 -1476.042 -2378.006)"/><path fill="#c99d2c" d="M694.354 1046.941c-1.125-.71-3.144.23-4.288 1.238-1.144.998-1.605 3.394-1.078 3.45.513.057 2.768-2.668 3.271-2.8l-2.716 3.356c.052.316 1.427.34 2.599-.777 1.177-1.12 2.744-3.347 2.212-4.467" style="stroke-width:4.70744" transform="matrix(2.32044 0 0 2.32044 -1476.042 -2378.006)"/><path fill="#f8c213" d="M694.01 1047.28c-1.29-.565-2.796.17-3.817 1.064-1.022.885-1.6 3.083-1.14 3.13.467.052 2.66-2.787 3.31-2.725.08.513-2.735 3.064-2.693 3.351.043.292 1.351.094 2.401-.903 1.05-.994 2.02-2.74 1.94-3.917" style="stroke-width:4.70744" transform="matrix(2.32044 0 0 2.32044 -1476.042 -2378.006)"/><path fill="#c99d2c" d="M694.41 1050.721c-.974-.786-2.861-.339-4.132.5-1.267.842-1.794 3.177-1.295 3.285.49.108 3.112-2.278 3.615-2.349l-3.154 2.933c0 .31 1.328.466 2.641-.48 1.318-.951 2.67-2.759 2.326-3.889" style="stroke-width:4.70744" transform="matrix(2.32044 0 0 2.32044 -1476.042 -2378.006)"/><path fill="#f8c213" d="M694.208 1050.867c-.87-.697-2.405-.132-3.54.621-1.134.744-2.033 2.783-1.59 2.877.437.098 3.017-2.4 3.643-2.27-.004.495-3.145 2.651-3.145 2.929s1.295.226 2.472-.626c1.172-.848 2.466-2.528 2.16-3.53" style="stroke-width:4.70744" transform="matrix(2.32044 0 0 2.32044 -1476.042 -2378.006)"/><path fill="#c99d2c" d="M688.555 1049.77c-1.351-.094-2.627 1.591-3.22 3.126-.603 1.54.179 4.133.682 3.917.495-.217 1.337-3.945 1.737-4.327l-.974 4.562c.193.268 1.596-.523 2.17-2.18.574-1.656.607-4.311-.395-5.098" style="stroke-width:4.70744" transform="matrix(2.32044 0 0 2.32044 -1476.042 -2378.006)"/><path fill="#f8c213" d="M688.38 1050.345c-1.21-.084-1.92 1.478-2.457 2.848-.536 1.37-.367 3.629.09 3.436.447-.188 1.176-3.992 1.812-4.27.301.438-1.13 4.294-.965 4.538.174.255 1.295-.607 1.803-2.085.513-1.473.612-3.77-.283-4.467" style="stroke-width:4.70744" transform="matrix(2.32044 0 0 2.32044 -1476.042 -2378.006)"/><path fill="#c99d2c" d="M691.464 1053.263c-1.248-.4-2.627.753-3.592 2.086-.965 1.332-.984 3.874-.447 3.78.518-.09 2.274-3.465 2.754-3.743l-2.104 4.143c.113.306 1.722-.188 2.692-1.643.965-1.455 1.431-3.648.697-4.623" style="stroke-width:4.70744" transform="matrix(2.32044 0 0 2.32044 -1476.042 -2378.006)"/><path fill="#f8c213" d="M691.318 1053.485c-1.153-.15-2.288.86-3.15 2.042-.851 1.191-1.176 3.508-.705 3.428.47-.08 2.141-3.555 2.805-3.677.174.494-2.175 3.855-2.08 4.133.098.273 1.365-.292 2.226-1.591.866-1.3 1.455-3.46.904-4.335" style="stroke-width:4.70744" transform="matrix(2.32044 0 0 2.32044 -1476.042 -2378.006)"/><path fill="#c99d2c" d="M684.812 1055.833c-1.153.664-1.148 2.693-.805 4.345.34 1.638 2.246 3.413 2.538 2.947.296-.457-1.045-4.114-.923-4.66l1.676 4.443c.31.126 1.026-1.478.593-3.215-.433-1.737-1.831-3.752-3.079-3.86" style="stroke-width:4.70744" transform="matrix(2.32044 0 0 2.32044 -1476.042 -2378.006)"/><path fill="#f8c213" d="M684.972 1056.285c-1.035.594-1.068 2.396-.758 3.865.297 1.464 1.968 3.234 2.232 2.82.259-.405-1.21-4.067-.838-4.656.485.212 1.407 4.303 1.676 4.425.282.112.725-1.228.339-2.777-.386-1.549-1.55-3.573-2.65-3.677" style="stroke-width:4.70744" transform="matrix(2.32044 0 0 2.32044 -1476.042 -2378.006)"/><path fill="#c99d2c" d="M689.703 1057.792c-1.158 0-2.245 1.37-2.697 2.763-.452 1.393.372 3.658.796 3.432l1.303-3.926-.64 4.081c.179.236 1.309-.452 1.728-1.953.419-1.497.405-3.771-.49-4.397" style="stroke-width:4.70744" transform="matrix(2.32044 0 0 2.32044 -1476.042 -2378.006)"/><path fill="#f8c213" d="M689.553 1058.135c-1.036 0-1.836 1.356-2.236 2.594-.4 1.238.098 3.295.475 3.102.372-.198.843-3.605 1.37-3.888l-.63 4.072c.155.207 1.072-.622 1.449-1.958.377-1.332.363-3.366-.428-3.922" style="stroke-width:4.70744" transform="matrix(2.32044 0 0 2.32044 -1476.042 -2378.006)"/><path fill="#c99d2c" d="M684.12 1062.353c-.621 1.144.598 2.98 1.723 4.17 1.12 1.187 3.606 1.686 3.616 1.15.014-.528-2.97-2.887-3.15-3.4l3.663 2.834c.32-.052.098-1.685-1.144-2.904-1.248-1.224-3.61-2.387-4.708-1.85" style="stroke-width:4.70744" transform="matrix(2.32044 0 0 2.32044 -1476.042 -2378.006)"/><path fill="#f8c213" d="M684.657 1062.8c-.556 1.022.485 2.19 1.487 3.244.998 1.069 3.145 2.029 3.154 1.553.01-.47-3.088-2.758-3.083-3.436.518-.076 3.375 2.853 3.662 2.815.292-.048-.033-1.393-1.139-2.48-1.11-1.093-3.111-2.176-4.081-1.696" style="stroke-width:4.70744" transform="matrix(2.32044 0 0 2.32044 -1476.042 -2378.006)"/><path fill="#c99d2c" d="M689.59 1062.527c-.979.527-1.435 1.794-1.181 3.178.254 1.379 2.26 3.38 2.523 3.003.259-.377-.786-3.46-.668-3.912l1.303 3.743c.255.118.937-1.102.608-2.566-.32-1.455-1.544-3.324-2.585-3.446" style="stroke-width:4.70744" transform="matrix(2.32044 0 0 2.32044 -1476.042 -2378.006)"/><path fill="#f8c213" d="M689.764 1062.965c-.875.47-1.106 1.827-.885 3.055.217 1.239 1.747 2.896 1.968 2.557.23-.335-.913-3.423-.598-3.908l1.309 3.729c.23.108.63-1.012.348-2.312-.291-1.299-1.219-3.013-2.141-3.12" style="stroke-width:4.70744" transform="matrix(2.32044 0 0 2.32044 -1476.042 -2378.006)"/><path fill="#c99d2c" d="M692.175 1066.416c-.706.617-.292 2.208.165 3.295.456 1.092 2.005 2.062 2.141 1.7l-1.256-3.098 1.75 2.843c.227.048.537-1.2.01-2.335-.531-1.144-1.934-2.49-2.81-2.405" style="stroke-width:4.70744" transform="matrix(2.32044 0 0 2.32044 -1476.042 -2378.006)"/><path fill="#f8c213" d="M692.485 1066.9c-.63.547-.419 1.794-.01 2.769.405.97 1.794 1.972 1.921 1.642.132-.31-1.38-2.64-1.205-3.097l1.751 2.83c.207.045.339-.942-.137-1.96-.47-1.02-1.539-2.263-2.32-2.183" style="stroke-width:4.70744" transform="matrix(2.32044 0 0 2.32044 -1476.042 -2378.006)"/><path fill="#c99d2c" d="M688.296 1067.753c-.433.946.395 2.231 1.403 3.2 1.007.98 3.078 1.366 3.045.928-.028-.438-2.636-2.349-2.824-2.777l3.206 2.302c.527-.26.33-1.243-.96-2.33-1.135-.956-3.013-1.77-3.87-1.323" style="stroke-width:4.70744" transform="matrix(2.32044 0 0 2.32044 -1476.042 -2378.006)"/><path fill="#f8c213" d="M688.465 1067.903c-.386.848.457 2.076 1.347 2.947.899.866 2.824 1.36 2.796.965-.028-.386-2.726-2.25-2.768-2.8l3.2 2.287c.232-.048-.122-1.149-1.11-2.034-.984-.88-2.702-1.765-3.465-1.365" style="stroke-width:4.70744" transform="matrix(2.32044 0 0 2.32044 -1476.042 -2378.006)"/><path fill="#c99d2c" d="M691.525 1072.173c.292.81 1.511 1.097 2.664 1.097 1.154 0 2.608-.951 2.34-1.196l-3.257-.048 3.22-.47c.126-.175-.697-.909-1.926-.867-1.229.048-2.782.706-3.04 1.464" style="stroke-width:4.70744" transform="matrix(2.32044 0 0 2.32044 -1476.042 -2378.006)"/><path fill="#f8c213" d="M691.845 1072.15c.26.715 1.46.97 2.49.97 1.031 0 2.453-.806 2.213-1.027l-3.248-.076 3.206-.48c.117-.156-.725-.607-1.818-.565-1.096.048-2.612.494-2.843 1.177" style="stroke-width:4.70744" transform="matrix(2.32044 0 0 2.32044 -1476.042 -2378.006)"/><path fill="#fee600" d="M-90.628 198.315h-48.42a4.615 4.615 0 0 1-4.614-4.613v-48.416c0-2.514 2.001-4.557 4.491-4.623h48.666a4.62 4.62 0 0 1 4.49 4.477v48.708a4.613 4.613 0 0 1-4.613 4.467"/><path fill="#391f1f" d="M-114.24 149.88c-12.216 0-22.116 7.82-22.116 17.47 0 6.204 4.1 11.641 10.263 14.753l-2.086 7.781.16.66.447.183.382-.141 8.963-6.054c1.304.184 2.631.292 3.987.292 12.21 0 22.115-7.82 22.115-17.474 0-9.65-9.904-17.47-22.115-17.47"/><path fill="#fee600" d="M-128.598 164.582h-2.405l-.857-.226-.438-.645-.038-.25.377-.819.946-.296h7.363l.852.226.447.65.014.24-.367.833-.937.287h-2.415v8.294l-.348.956-.932.367-.81-.263-.433-.72-.024-.34M-120.18 165.015h-.034l-1.497 4.674h2.98zm-1.536-2.062.462-.626.781-.184h.607l.834.198.527.767 3.074 8.916.212.706.042.306-.362.824-.843.34c-.584 0-.974-.246-1.149-.726l-.654-1.94h-4.095l-.664 1.94c-.16.48-.542.725-1.144.725l-.753-.23-.386-.664-.024-.269.07-.466.17-.546M-114.782 163.461l.349-.96.932-.358.814.259.429.725.023.334-.005 8.294h4.251l.866.231.429.645.038.245-.377.819-.946.297h-5.315l-.956-.25-.475-.786-.061-.518M-106.398 163.461l.344-.96.932-.358.815.259.428.725.028.334.005 3.855 4.001-4.594.485-.443.527-.136.763.23.428.622.02.099.004.108-.118.485-.306.428-2.613 2.853 3.098 4.905.085.15.372.735.018.085v.075c0 .462-.127.782-.386.98l-.922.296-.636-.132-.499-.555-2.937-4.722-1.398 1.45.014 2.64-.344.961-.941.358-.815-.259-.423-.72-.024-.34"/><g clip-path="url(#a)" transform="translate(-810.774 -976.494)"><clipPath id="b"><path d="m55.278 788.269 2.919-.852-1.477 2.971-2.919.851 1.477-2.97"/></clipPath></g><g clip-path="url(#c)" transform="translate(-810.774 -976.494)"><clipPath id="d"><path d="M679.311 978.707h1.84v-1.023l-1.84-.101v1.124"/></clipPath></g></svg>