<svg xmlns="http://www.w3.org/2000/svg" xml:space="preserve" id="레이어_1" x="0px" y="0px" style="enable-background:new 0 0 750 751" version="1.1" viewBox="0 0 750 751"><style>.st2{fill-rule:evenodd;clip-rule:evenodd;fill:#fff}</style><path d="M375 751c-50.6 0-99.7-9.9-146-29.6-44.7-18.9-84.8-46-119.2-80.5-34.4-34.5-61.4-74.6-80.3-119.3C9.9 475.3 0 426.1 0 375.5s9.9-99.8 29.5-146.1c18.9-44.7 45.9-84.9 80.3-119.3 34.4-34.5 74.5-61.5 119.2-80.5C275.3 9.9 324.4 0 375 0c50.6 0 99.7 9.9 146 29.6 44.7 18.9 84.8 46 119.2 80.5 34.4 34.5 61.4 74.6 80.3 119.3 19.6 46.3 29.5 95.5 29.5 146.1s-9.9 99.8-29.5 146.1c-18.9 44.7-45.9 84.9-80.3 119.3-34.4 34.5-74.5 61.5-119.2 80.5-46.3 19.7-95.4 29.6-146 29.6z" style="fill:#fff"/><path d="M375 736.5c-48.7 0-95.9-9.6-140.4-28.4-42.9-18.2-81.5-44.2-114.6-77.4C87 597.6 61 559 42.8 516 24 471.5 14.5 424.2 14.5 375.5s9.5-96 28.3-140.5C61 192 87 153.4 120 120.3c33.1-33.1 71.6-59.2 114.6-77.4C279.1 24 326.3 14.5 375 14.5s95.9 9.6 140.4 28.4c42.9 18.2 81.5 44.2 114.6 77.4 33 33.1 59 71.7 77.2 114.7 18.8 44.5 28.3 91.8 28.3 140.5s-9.5 96-28.3 140.5C689 559 663 597.6 630 630.7c-33.1 33.1-71.6 59.2-114.6 77.4-44.5 18.8-91.7 28.4-140.4 28.4z" style="fill:red"/><path d="M107.9 598.9c-3.7-1.5-7.6-5-11.6-10.3-4-5.3-6.3-9.9-6.8-13.9s.5-6.9 2.9-8.8c2.4-1.9 5.5-2 9.1-.5 3.6 1.5 7.5 5 11.5 10.3 4.1 5.3 6.4 10 6.9 13.9.5 4-.4 6.9-2.8 8.7-2.5 2-5.5 2.2-9.2.6zm4-12.1c-.7-1.9-2.1-4.2-4.1-6.9-2.1-2.7-3.9-4.6-5.6-5.8-1.7-1.2-3-1.4-4-.6-1.2.9-1.5 2.3-.8 4.2.7 1.9 2 4.2 4.1 6.9 2 2.7 3.9 4.6 5.6 5.8 1.7 1.2 3.1 1.3 4.3.4 1-.7 1.2-2.1.5-4zm-12.5-31.9 5.8-4.4 10.6 13.9 6-4.6 5.3 7-6 4.6 14.3 18.8-5.8 4.4-30.2-39.7zm40.3 25c-2.6 1.4-5 2.5-7.2 3.2l-4.9-6.5 4.5-2.1c1.5-.7 2.8-1.5 4.1-2.5l-18.6-24.5 5.8-4.4 24.3 31.9c-2.8 1.9-5.4 3.5-8 4.9zM158.7 650.7l9.5-13.5 6.8 4.8-5.4 7.6 25.3 17.9-4.2 5.9-32-22.7zm32.1-4.3L184 656l-7-5 6.8-9.6-17.3-12.3 4.2-5.9 27.8 19.7c1.6-1.5 3.1-2.9 4.3-4 1.2-1.1 2.4-2.4 3.5-3.8L181 617.3l4.2-5.9 32.7 23.2c-1.7 2.3-3.7 4.6-6.1 7-2.4 2.4-4.7 4.4-6.8 6l6.3 4.4-4.2 5.9-16.3-11.5zM250.4 686.1l2.1-6.6 47.5 15.2-2.1 6.6-47.5-15.2zm28.4 27.2 2.5-7.7-28.6-9.1 2.1-6.7 36.9 11.8-4.6 14.4-8.3-2.7zm-20-34.3 6.9-21.7 36.3 11.6-1.9 6.1-28.3-9-.6 1.9 28 8.9-1.9 5.9-28-8.9-.5 1.7 28.8 9.2-1.9 6.1-36.9-11.8zM378.8 709.4l-.3 17.3-8.8-.1.3-17.3-20.5-.3.1-7.2 49.9.8-.1 7.2-20.6-.4zm13.3-9.7c-3.3-.5-6.4-1.6-9.2-3.3-2.9-1.7-5.6-3.8-8.2-6.2-1.8 2.4-4.3 4.4-7.7 5.9-3.4 1.5-6.7 2.5-9.9 3l-4.8-6c3.9-.7 7.9-2.2 12.1-4.5 4.2-2.3 6.2-5.2 5.9-8.8v-2.9l9.3.1v2.9c-.1 3.4 1.7 6.3 5.3 8.6 3.6 2.3 7.7 4.1 12.3 5.2l-5.1 6zM456.5 707.6l-10.7-34.3 7.9-2.5 3.3 10.6 9-2.8-3.3-10.6 7.9-2.5 10.7 34.3-24.8 7.8zm11.7-22.1-9 2.8 3.1 9.9 9-2.8-3.1-9.9zm23.1 21.7-14.8-47.6 8-2.5 14.8 47.6-8 2.5zM535.3 647.3l-3.5-5 21.1-14.7 3.5 5-21.1 14.7zm.6-9.4-3.3-4.8 11.3-7.9 3.3 4.8-11.3 7.9zm26.2 10.1c-.9 2.7-2.8 5-5.7 7.1-2.7 1.9-5.5 2.8-8.5 2.8-2.9 0-5.1-1.1-6.6-3.3-1.5-2.1-1.7-4.5-.7-7.1 1-2.7 2.9-5 5.7-6.9 2.9-2 5.8-3 8.6-3s4.9 1.1 6.4 3.3c1.4 2 1.7 4.4.8 7.1zm-9.5-3.9c-.9-.1-2 .3-3.1 1.1-1 .7-1.7 1.6-2 2.5-.3.9-.2 1.7.3 2.4s1.2 1 2.2 1.1 2-.3 3.1-1c1.1-.8 1.8-1.6 2.1-2.6.2-.9.1-1.7-.3-2.4-.6-.6-1.3-1-2.3-1.1zm24.8-3.8-6.8-9.8-2.8 2 5.7 8.1-6.4 4.5-16.4-23.6 6.4-4.5 6.3 9 2.8-2-6.7-9.7 6.4-4.5 18.1 25.9-6.6 4.6zm11.9 11.2c-1.8 3.6-5.3 7.3-10.6 11s-9.9 5.7-14 6.1-6.8-.5-8.3-2.6c-1.5-2.1-1.3-4.9.7-8.5 1.9-3.5 5.5-7.1 10.8-10.8 5.3-3.7 9.9-5.8 13.8-6.3 3.9-.5 6.6.4 8.2 2.6 1.4 2.1 1.2 4.9-.6 8.5zm-11.1-3.3c-1.9.7-4.1 2-6.8 3.8-2.7 1.9-4.7 3.6-6 5.2-1.3 1.6-1.7 2.7-1.2 3.5.5.8 1.8.8 3.8.2 2-.6 4.4-1.9 7.1-3.8 2.6-1.8 4.5-3.5 5.7-5.1 1.2-1.6 1.6-2.8 1.1-3.5-.6-.9-1.9-1-3.7-.3zM637.3 572.8c-.9 1.4-1.9 2.8-3 4.4-1.8 2.6-4.3 6-7.5 10.1s-4.8 6.3-5.1 6.6l-19.9-15.4 16.6-21.5 5.3 4.1-11.4 14.9 2 1.5 11.1-14.4 5.2 4-11.1 14.4 2.1 1.6 4.8-6.2c1.2-1.5 2.7-3.6 4.5-6.2 1.8-2.6 3.1-4.7 4-6.2l5.2 4c-1 1.5-1.9 2.9-2.8 4.3zm6.4-5.3L620.9 550l5.1-6.6 22.7 17.5-5 6.6zm-1.4 35.5-15.1-11.7 22.7-29.4 15.1 11.7-22.7 29.4zm8.2-30L638 589.1l3.6 2.8 12.4-16.1-3.5-2.8z"/><circle cx="376.5" cy="376.5" r="285"/><path d="M362.6 321.5h24l-12-19.1zM358.3 328.3l-12.1 19h24.1zM379.2 347.3h24l-12-19zM374.5 354l-12 19h24.1zM419.8 373.1l-12-19.1-12 19.1zM329.6 373h24.1l-12.1-19z" class="st2"/><path d="M374.9 83.5c-161.6 0-292.5 131-292.5 292.5s130.9 292.5 292.5 292.5c161.5 0 292.5-130.9 292.5-292.5 0-161.5-131-292.5-292.5-292.5zm0 14.4C528.5 97.9 653 222.4 653 376c0 31.5-5.3 61.9-14.9 90.1-17.6-22.1-52.6-63.8-52.6-63.8h31.8c-14.8-18.5-30.3-37.4-45-55.9H603c0-1.1-31.1-37-45.9-55.2H587c-5.3-11.4-10.1-22.6-16.7-32.5-3.9-6.2-8.3-11.9-13.3-17h19.4c-6-10.3-12.8-16.1-19.4-21.3-36-28.7-81.9-44.2-148.1-43.3-6.4.2-12.9.5-19.3.7-25.7 1.9-30.3 2.6-38.9 3.7-27.5 3.4-92.5 17.2-119.5 53.6-7.8 10-21.8 30.6-13.3 49.6-10.2-2.4-25-2.1-35.3 0-40.9 8.4-65.9 29.8-77.6 67.2-13.1 42.1 14.6 81.4 52.6 81.9-13-16.8-3.7-30.4 15.3-32.7 23.3-2.8 47-.5 70.6-.6 16.7 0 35.1-2.3 39.3 10.3 4.8 14.7-14.3 36.8-20.6 41.9-34.8 27.9-79 38.3-141.2 37-15.5-34.7-24.2-73.1-24.2-113.6-.1-153.7 124.4-278.2 278.1-278.2zm-43.3 552.9C342.3 637.5 371 582.3 371 412v-32.7h-7.1V412s5.7 156.7-87.9 224.1c-12-4.6-23.6-9.9-34.8-16.1 18.1-7 67.1-29.4 91.2-82.8 26.8-59.4 23.9-133.3 23.9-133.3v-24.6h-7.1v24.6s10.7 157.5-146.3 190.8c-8-6.3-15.6-13-22.8-20.1 28.4-4 62.3-16.3 62.3-16.3 109.6-36.7 99-160.8 99-160.8v-18.2h-7.1v18.2c1.5 134.3-141.1 146.2-180.8 147-7.8-10.3-15-21.1-21.3-32.5 61.5 1 121-21 147.5-55 9.1-11.7 24-31.8 17.9-53.6-3-10.9-9.9-20.8-19.5-25.2-11.6-5.2-33.4-3-49.6-3-39.3 0-93.8-6.6-93.4 32.8-2.7-4.9-13.7-29-8.3-49 8.8-32.4 48.6-66.7 95.5-58.7 7.6 1.4 17.2 2.5 24 5.4-2.3-5.7-6-10.7-7.6-17.5-4.2-18 5.4-31 12.6-40 19.2-24.2 53.8-37.3 89.7-43.4 18.2-3.3 30.3-4.3 30.3-4.3s14.8-.8 18.9-1.1c19.3-.2 36.6-.7 53.7 2.1 47.9 9 92.6 25 108.6 65.6 2.6 6.5 2.8 14.2 3.8 22.6-.4 0-28.4-.1-29.3-.1.2.2 29.8 36.9 44.3 55h-31.5c14.8 18.4 44.8 55.6 44.6 55.6h-33c20.4 25.4 40.8 50.8 61.2 76.1l.8 1 12.5 15.6c.4.4.4.5.8.9v.1l.2.2c-8.4 18-18.7 34.9-30.6 50.5-39.7-.7-182.3-12.7-180.8-147v-18.2h-7.1v18.2s-10.6 124.1 99 160.8c0 0 33.9 12.4 62.3 16.3-7.2 7.1-14.8 13.8-22.8 20.1C390 561.5 400.6 404 400.6 404v-24.6h-7.1V404s-2.9 73.9 23.9 133.3c24.1 53.4 73.1 75.8 91.2 82.8-11.1 6.1-22.8 11.5-34.8 16.1-93.7-67.5-88-224.2-88-224.2v-32.7h-7.1V412c0 170.3 28.7 225.5 39.5 238.8-14.1 2.2-28.6 3.4-43.3 3.4-14.8 0-29.2-1.2-43.3-3.4z" class="st2"/><path d="m351.4 260.3-1.4 18.1-12.2-6.5-2.3 15.4-16.8-11.7-14.6 8 23.7 22.8 65.6-57.1z" class="st2"/><path d="M130.4 197.4c1.7-2.2 2.5-3.9 2.5-5s-1-2.5-3-4.2l-23.8-20.1c-2-1.7-3.5-2.4-4.6-2.3-1.1.2-2.6 1.3-4.5 3.3l-1-.8 12.6-15c3.6-4.3 7.2-7.1 10.7-8.4s6.9-.6 10.3 2.2c2.5 2.1 3.7 4.6 3.5 7.5-.1 1.6-.7 3.6-1.9 6 2.7-2 5.4-3.2 8.3-3.8 2.9-.6 5.5.2 8 2.3 4.2 3.5 5.4 7.9 3.7 13.1-.9 2.7-2.6 5.6-5.1 8.5l-14.7 17.4-1-.7zm-2.5-36.5c.9-3.1-.1-5.9-2.8-8.1-3.2-2.7-6.4-3.2-9.8-1.5-1.8.9-4 2.9-6.5 5.8-.9 1.1-1.4 1.9-1.5 2.3 0 .4.4 1 1.2 1.7l12.1 10.2 4.2-5.2c1.7-1.8 2.7-3.5 3.1-5.2zm18.4 12.6c.5-2.7-.8-5.4-3.8-7.9s-6-3.2-8.9-1.9c-2.9 1.2-5.8 3.5-8.6 6.9-.7.8-1.1 1.3-1.3 1.6-.2.2-.5.5-.9 1l13.3 11.2c.9.8 1.7 1 2.5.7.7-.3 1.9-1.4 3.5-3.3 2.3-2.9 3.7-5.6 4.2-8.3zM161 161.6c1.8-1.9 2.7-3.3 2.9-4.3.1-1-.6-2.5-2.4-4.4L141 129.4c-1.6-1.9-3-2.8-4.1-2.9s-2.6.7-4.7 2.2l-.9-1 14.9-13 .9 1c-1.8 1.8-2.9 3.3-3.1 4.4-.2 1.1.5 2.5 2 4.3l22.2 25.3c.5.6 1 1 1.5 1.1s1.1 0 1.9-.5c.4-.3.9-.6 1.3-1 .5-.4 1.3-1.1 2.5-2.1 4.7-4.1 7.5-7.3 8.5-9.5s.8-5.6-.4-10.1l1.3-1.2 5.4 11.4-28.3 24.8-.9-1zM194.7 133.7l-.7-1.1c1.4-1.1 2.2-2.4 2.3-3.9.1-1.5-.2-4.9-1.1-10.5l-6-36.8 1.2-.7 35.9 24.2c2.4 1.6 4 2.5 5 2.6.9.2 2.1-.1 3.6-.8l.7 1.1-15 9.5-.7-1.1c1.6-1.2 2.6-2.1 3-2.7.4-.5.3-1.2-.3-2.1-.2-.3-.6-.7-1.3-1.3-.7-.6-1.4-1.2-2.3-1.8l-6-4.2-15.6 9.9c.9 4.8 1.5 7.8 1.7 8.8.2 1 .5 1.8.8 2.3.6 1 1.5 1.4 2.5 1.3.6-.1 1.7-.5 3.2-1.3l.7 1.1-11.6 7.5zm15.9-31.3-17.1-12L197 111l13.6-8.6zM250.3 51.7c2.7-.3 4.3-.6 4.6-.7.6-.3 1.1-.7 1.5-1.2s.6-1.3.5-2.1l1.4-.6 6.7 14.2-1.5.6c-2.1-2.5-4.2-4.4-6.3-5.5-4-2.2-8.3-2.4-12.8-.5s-7.4 5.2-8.8 10c-1.4 4.8-.7 10.3 1.9 16.6 2.4 5.8 5.9 9.7 10.3 11.9s9 2.3 13.6.3c3.3-1.4 6.1-3.5 8.2-6.3 1.2-1.6 2.4-3.7 3.6-6.3l1.7.7c-.7 2.4-1.8 4.7-3.3 7-2.6 3.8-6.1 6.6-10.3 8.4-6.9 2.9-13.4 3-19.3.3-5.5-2.5-9.5-6.8-12.1-13-2.7-6.3-2.9-12.4-.7-18.3 2.3-6.2 6.8-10.8 13.5-13.6 2.3-.9 4.8-1.6 7.6-1.9zM281.6 87.2c2.7-.9 4.3-1.8 4.8-2.7.5-.9.4-2.8-.3-5.7L279 49.2c-.6-2.5-1.3-4-2.3-4.5-.9-.5-2.7-.6-5.4-.1l-.3-1.3 19.4-4.6.3 1.3c-2.6.8-4.2 1.6-4.8 2.6-.6.9-.6 2.6 0 5.1l3.3 14c3.3-4.6 6-8.4 8.1-11.6 3.7-5.7 5.4-9.2 5.1-10.4-.2-.9-.8-1.4-1.6-1.5-.9-.1-2.1 0-3.5.4l-.3-1.3 17.8-4.3.3 1.3c-2.1.7-3.7 1.6-4.8 2.5-1.1.9-2.5 2.7-4.2 5.3l-10.3 15.5 20.4 13.6c3.7 2.4 6.2 3.9 7.4 4.4 1.3.5 2.9.7 5.1.4l.3 1.2-20.8 5-.3-1.2c1.9-.5 3.1-1 3.7-1.4s.8-.9.7-1.6c-.1-.4-.4-.9-1.1-1.6-.6-.7-1.5-1.4-2.7-2.2l-16.5-11-1.6 2.4 3 12.3c.6 2.5 1.4 4 2.3 4.5s2.7.5 5.3.1l.3 1.2-19.2 4.6-.5-1.1zM388.8 72.8c2.6 0 4.3-.3 5.1-.8.8-.6 1.4-2.1 1.7-4.8l3.4-30.9c.3-2.5.1-4.1-.6-5-.7-.8-2.3-1.5-4.8-2l.1-1.3 37 4.1-.9 10-1.8-.2c-.2-3.1-.9-5.2-2-6.2s-3.7-1.8-7.7-2.2l-9.5-1.1c-1-.1-1.7 0-1.9.3-.3.3-.5.9-.6 1.8L404.7 50l10.7 1.2c3 .3 4.9.1 5.8-.7s1.8-2.5 2.6-5.1l1.6.2-1.8 16.1-1.6-.2c-.2-2.8-.7-4.6-1.4-5.6s-2.5-1.6-5.5-1.9l-10.7-1.2-1.9 17.2c-.2 1.4.2 2.2 1 2.6.8.3 3.4.8 7.8 1.2 4.7.5 8.3.4 10.6-.4 2.4-.8 4.7-3.1 6.9-6.8l1.9.2-4.5 11.4-37.6-4.2.2-1.2zM432.1 78.8l.3-1.3c1.8.3 3.3 0 4.4-.9 1.2-.9 3.5-3.5 7-7.9L467 39.5l1.3.4 6.3 42.9c.4 2.8.9 4.7 1.4 5.4.5.8 1.5 1.5 3 2.2l-.3 1.3-17.2-4.7.3-1.3c2 .4 3.4.5 4 .4s1.1-.6 1.4-1.6c.1-.3.1-.9.1-1.8s-.1-1.9-.2-2.9l-.9-7.2-17.8-4.9c-3 3.9-4.8 6.3-5.4 7.2s-1 1.6-1.1 2.2c-.3 1.1-.1 2.1.7 2.7.5.4 1.5.9 3.1 1.5l-.3 1.3-13.3-3.8zm33.8-9.3-2.6-20.7-12.9 16.4 15.5 4.3zM530.6 64.9c2.1 1.8 3.3 2.8 3.6 2.9.9.4 1.6.6 2.2.4.5-.2 1.1-.5 1.7-1.1l1.4.7-5.8 13.6-1.5-.7c.1-3.7-.1-6.6-.8-8.8-1.3-3.8-3.9-6.7-7.9-8.5-4.1-1.9-8.4-2-12.9-.4s-8.5 6-11.8 13.1c-2.7 5.8-3.3 11.1-1.8 15.8 1.5 4.7 4.6 8.1 9.1 10.3.8.4 1.7.7 2.8 1 1.1.3 2.2.6 3.3.7 1.7.2 2.9.2 3.4 0s1-.6 1.3-1.3l4.7-10.1c1.2-2.4 1.5-4.1 1.1-5.1-.4-.9-1.7-2-4-3.2l.6-1.2 16.1 7.6-.6 1.2c-1.6-.6-2.8-.9-3.5-.7-1.2.3-2.2 1.4-3.2 3.5l-5.9 12.5c-.3.7-2.6.9-6.9.4-4.2-.5-8-1.5-11.4-3.1-6.2-2.9-10.6-7.2-13.1-12.8-2.8-6.2-2.6-12.6.5-19.3 2.8-5.9 7-10.1 12.7-12.5 6.3-2.7 12.8-2.5 19.6.7 2.7 1.2 4.9 2.6 7 4.4zM527.9 113.6c2.3 1.2 3.9 1.8 4.9 1.7 1-.1 2.2-1.2 3.7-3.4L554 86.1c1.4-2.1 2-3.6 1.8-4.7-.2-1.1-1.3-2.4-3.4-4l.7-1.1 16.3 11.1-.7 1.1c-2.2-1.3-3.9-2-5-1.9s-2.3 1.1-3.6 3l-18.9 27.8c-.4.6-.7 1.2-.7 1.7s.3 1.1 1 1.7c.4.4.8.7 1.3 1 .5.3 1.4 1 2.7 1.9 5.2 3.5 8.9 5.4 11.3 5.8s5.6-.6 9.7-2.9l1.5 1-9.6 8.1-31.2-21.2.7-.9zM564 138.3c2.1 1.5 3.6 2.3 4.6 2.4 1 0 2.4-.9 4.2-2.9l21-23c1.7-1.8 2.5-3.3 2.5-4.4s-1-2.5-2.8-4.4l.9-1 27.5 25.1-6.6 7.6-1.3-1.2c1.6-2.7 2.3-4.8 2.1-6.2-.3-1.5-1.9-3.6-4.9-6.4l-7-6.4c-.8-.7-1.3-1-1.7-.9s-.9.5-1.5 1.1l-10.5 11.5 8 7.3c2.2 2 3.9 3 5.1 2.9s2.9-1 5.1-2.6l1.2 1.1-10.9 11.9-1.2-1.1c1.4-2.4 2.2-4.1 2.1-5.3 0-1.2-1.1-2.8-3.3-4.8l-8-7.3-11.7 12.8c-.9 1-1.2 1.9-.7 2.7.5.8 2.3 2.6 5.6 5.6 3.5 3.2 6.4 5.2 8.8 5.9 2.4.8 5.6.3 9.6-1.5l1.4 1.3-10.3 6.6-27.9-25.5.6-.9zM608.3 162.8c-1.7 2.9-2.7 5.6-3.1 8-.7 4.2.2 7.9 2.8 11.1 1.4 1.7 3.2 2.7 5.3 3.1 2.1.3 4.2-.3 6.1-1.9 1.8-1.5 2.8-3.4 3-5.7.1-1.5-.1-4.3-.6-8.3l-1-7c-.3-2.1-.3-3.9-.1-5.5.4-2.9 1.7-5.3 3.7-7 2.7-2.3 5.7-3.2 9-2.9 3.3.3 6.2 1.9 8.7 4.9 1 1.2 1.9 3 2.8 5.2.8 2.2 1.3 3.5 1.5 3.7.6.7 1.1 1 1.6 1s1.1-.2 1.8-.5l.9 1.1-10.5 10.7-1.1-1.3c2.7-3.7 4-7.2 3.7-10.2-.2-3.1-1.1-5.6-2.7-7.4-1.2-1.5-2.7-2.4-4.5-2.8s-3.4.1-5 1.4c-1.4 1.2-2.2 2.6-2.5 4.2-.3 1.7-.3 3.8.1 6.5l1 7.2c.6 4.5.7 8 .2 10.4-.5 2.5-1.9 4.6-4 6.3-2.8 2.3-6.1 3.2-9.7 2.7-3.7-.6-6.9-2.5-9.6-5.8-1.4-1.7-2.5-3.7-3.4-6-.9-2.3-1.4-3.6-1.6-3.9-.5-.6-1.1-.9-1.6-.8s-1.1.3-1.6.6l-1-1.2 10.1-11.1 1.3 1.2z"/><path d="M653 376.4c0-153.6-124.5-278.1-278.1-278.1-153.6 0-278.2 124.5-278.2 278.1 0 40.5 8.7 78.9 24.2 113.6 62.2 1.3 106.4-9.1 141.2-37 6.3-5.1 25.5-27.3 20.6-41.9-4.2-12.6-22.6-10.3-39.3-10.3-23.5.1-47.2-2.2-70.6.6-19.1 2.3-28.3 15.9-15.3 32.7-37.9-.5-65.7-39.8-52.6-81.9 11.7-37.4 36.7-58.8 77.6-67.2 10.2-2.1 25.1-2.4 35.3 0-8.5-19.1 5.5-39.6 13.3-49.6 27.1-36.4 92-50.1 119.5-53.6 8.7-1 13.2-1.7 38.9-3.7 6.5-.2 12.9-.4 19.3-.7 66.2-1 112.1 14.6 148.1 43.3 6.6 5.2 13.4 10.9 19.4 21.3H557c5 5 9.4 10.8 13.3 17 6.7 10 11.5 21.1 16.7 32.5h-29.9c14.8 18.3 45.9 54.2 45.9 55.2h-30.8c14.8 18.5 30.3 37.4 45 55.9h-31.8s34.9 41.7 52.6 63.8c9.8-28.2 15-58.5 15-90z" style="fill:#00f"/></svg>